M48
; DRILL file KiCad 10.0.3 date 2026-07-26T12:55:10
; FORMAT={-:-/ absolute / metric / decimal}
; #@! TF.CreationDate,2026-07-26T12:55:10-07:00
; #@! TF.GenerationSoftware,Kicad,Pcbnew,10.0.3
; #@! TF.FileFunction,Plated,1,2,PTH
FMAT,2
METRIC
; #@! TA.AperFunction,Plated,PTH,ComponentDrill
T1C0.500
; #@! TA.AperFunction,Plated,PTH,ComponentDrill
T2C0.700
; #@! TA.AperFunction,Plated,PTH,ComponentDrill
T3C1.000
; #@! TA.AperFunction,Plated,PTH,ComponentDrill
T4C1.050
; #@! TA.AperFunction,Plated,PTH,ComponentDrill
T5C1.100
; #@! TA.AperFunction,Plated,PTH,ComponentDrill
T6C1.300
; #@! TA.AperFunction,Plated,PTH,ComponentDrill
T7C2.700
%
G90
G05
T1
X71.275Y-31.7
X71.275Y-91.7
X71.868Y-30.268
X71.868Y-33.132
X71.868Y-90.268
X71.868Y-93.132
X73.3Y-29.675
X73.3Y-33.725
X73.3Y-89.675
X73.3Y-93.725
X74.732Y-30.268
X74.732Y-33.132
X74.732Y-90.268
X74.732Y-93.132
X75.325Y-31.7
X75.325Y-91.7
X111.275Y-31.7
X111.275Y-91.7
X111.868Y-30.268
X111.868Y-33.132
X111.868Y-90.268
X111.868Y-93.132
X113.3Y-29.675
X113.3Y-33.725
X113.3Y-89.675
X113.3Y-93.725
X114.732Y-30.268
X114.732Y-33.132
X114.732Y-90.268
X114.732Y-93.132
X115.325Y-31.7
X115.325Y-91.7
T2
X97.511Y-69.948
X97.587Y-59.174
X97.587Y-66.794
X100.537Y-47.297
X100.537Y-54.917
X105.131Y-69.948
T3
X73.4Y-37.17
X73.4Y-39.71
X73.4Y-42.25
X73.4Y-44.79
X73.4Y-47.33
X73.4Y-49.87
X73.4Y-52.41
X73.4Y-54.95
X73.4Y-57.49
X73.4Y-60.03
X73.4Y-62.57
X73.4Y-65.11
X73.4Y-67.65
X73.4Y-70.19
X73.4Y-72.73
X73.4Y-75.27
X73.4Y-77.81
X73.4Y-80.35
X73.4Y-82.89
X73.4Y-85.43
X91.18Y-37.17
X91.18Y-39.71
X91.18Y-42.25
X91.18Y-44.79
X91.18Y-47.33
X91.18Y-49.87
X91.18Y-52.41
X91.18Y-54.95
X91.18Y-57.49
X91.18Y-60.03
X91.18Y-62.57
X91.18Y-65.11
X91.18Y-67.65
X91.18Y-70.19
X91.18Y-72.73
X91.18Y-75.27
X91.18Y-77.81
X91.18Y-80.35
X91.18Y-82.89
X91.18Y-85.43
T4
X100.007Y-82.89
X100.007Y-85.39
X110.047Y-75.43
X110.047Y-77.93
T5
X103.387Y-60.422
X103.387Y-62.962
X103.387Y-65.502
X110.337Y-47.32
X110.337Y-50.82
X110.337Y-54.32
T6
X97.757Y-39.7
X101.257Y-39.7
X110.287Y-61.272
X110.287Y-64.772
T7
X73.3Y-31.7
X73.3Y-91.7
X113.3Y-31.7
X113.3Y-91.7
M30
