%TF.GenerationSoftware,KiCad,Pcbnew,10.0.3*%
%TF.CreationDate,2026-07-26T12:37:29-07:00*%
%TF.ProjectId,ANTS Temperature Board PCB,414e5453-2054-4656-9d70-657261747572,rev?*%
%TF.SameCoordinates,Original*%
%TF.FileFunction,Copper,L2,Bot*%
%TF.FilePolarity,Positive*%
%FSLAX46Y46*%
G04 Gerber Fmt 4.6, Leading zero omitted, Abs format (unit mm)*
G04 Created by KiCad (PCBNEW 10.0.3) date 2026-07-26 12:37:29*
%MOMM*%
%LPD*%
G01*
G04 APERTURE LIST*
G04 Aperture macros list*
%AMRoundRect*
0 Rectangle with rounded corners*
0 $1 Rounding radius*
0 $2 $3 $4 $5 $6 $7 $8 $9 X,Y pos of 4 corners*
0 Add a 4 corners polygon primitive as box body*
4,1,4,$2,$3,$4,$5,$6,$7,$8,$9,$2,$3,0*
0 Add four circle primitives for the rounded corners*
1,1,$1+$1,$2,$3*
1,1,$1+$1,$4,$5*
1,1,$1+$1,$6,$7*
1,1,$1+$1,$8,$9*
0 Add four rect primitives between the rounded corners*
20,1,$1+$1,$2,$3,$4,$5,0*
20,1,$1+$1,$4,$5,$6,$7,0*
20,1,$1+$1,$6,$7,$8,$9,0*
20,1,$1+$1,$8,$9,$2,$3,0*%
%AMFreePoly0*
4,1,37,0.603843,0.796157,0.639018,0.796157,0.711114,0.766294,0.766294,0.711114,0.796157,0.639018,0.796157,0.603843,0.800000,0.600000,0.800000,-0.600000,0.796157,-0.603843,0.796157,-0.639018,0.766294,-0.711114,0.711114,-0.766294,0.639018,-0.796157,0.603843,-0.796157,0.600000,-0.800000,0.000000,-0.800000,0.000000,-0.796148,-0.078414,-0.796148,-0.232228,-0.765552,-0.377117,-0.705537,
-0.507515,-0.618408,-0.618408,-0.507515,-0.705537,-0.377117,-0.765552,-0.232228,-0.796148,-0.078414,-0.796148,0.078414,-0.765552,0.232228,-0.705537,0.377117,-0.618408,0.507515,-0.507515,0.618408,-0.377117,0.705537,-0.232228,0.765552,-0.078414,0.796148,0.000000,0.796148,0.000000,0.800000,0.600000,0.800000,0.603843,0.796157,0.603843,0.796157,$1*%
%AMFreePoly1*
4,1,37,0.000000,0.796148,0.078414,0.796148,0.232228,0.765552,0.377117,0.705537,0.507515,0.618408,0.618408,0.507515,0.705537,0.377117,0.765552,0.232228,0.796148,0.078414,0.796148,-0.078414,0.765552,-0.232228,0.705537,-0.377117,0.618408,-0.507515,0.507515,-0.618408,0.377117,-0.705537,0.232228,-0.765552,0.078414,-0.796148,0.000000,-0.796148,0.000000,-0.800000,-0.600000,-0.800000,
-0.603843,-0.796157,-0.639018,-0.796157,-0.711114,-0.766294,-0.766294,-0.711114,-0.796157,-0.639018,-0.796157,-0.603843,-0.800000,-0.600000,-0.800000,0.600000,-0.796157,0.603843,-0.796157,0.639018,-0.766294,0.711114,-0.711114,0.766294,-0.639018,0.796157,-0.603843,0.796157,-0.600000,0.800000,0.000000,0.800000,0.000000,0.796148,0.000000,0.796148,$1*%
G04 Aperture macros list end*
%TA.AperFunction,ComponentPad*%
%ADD10R,2.000000X1.905000*%
%TD*%
%TA.AperFunction,ComponentPad*%
%ADD11O,2.000000X1.905000*%
%TD*%
%TA.AperFunction,ComponentPad*%
%ADD12RoundRect,0.200000X-0.600000X-0.600000X0.600000X-0.600000X0.600000X0.600000X-0.600000X0.600000X0*%
%TD*%
%TA.AperFunction,ComponentPad*%
%ADD13C,1.600000*%
%TD*%
%TA.AperFunction,ComponentPad*%
%ADD14FreePoly0,0.000000*%
%TD*%
%TA.AperFunction,ComponentPad*%
%ADD15FreePoly1,0.000000*%
%TD*%
%TA.AperFunction,ComponentPad*%
%ADD16C,1.400000*%
%TD*%
%TA.AperFunction,ComponentPad*%
%ADD17C,0.800000*%
%TD*%
%TA.AperFunction,ComponentPad*%
%ADD18C,5.400000*%
%TD*%
%TA.AperFunction,ComponentPad*%
%ADD19R,1.575000X1.575000*%
%TD*%
%TA.AperFunction,ComponentPad*%
%ADD20C,1.575000*%
%TD*%
%TA.AperFunction,ComponentPad*%
%ADD21R,1.950000X1.950000*%
%TD*%
%TA.AperFunction,ComponentPad*%
%ADD22C,1.950000*%
%TD*%
%TA.AperFunction,ComponentPad*%
%ADD23R,1.650000X1.650000*%
%TD*%
%TA.AperFunction,ComponentPad*%
%ADD24C,1.650000*%
%TD*%
G04 APERTURE END LIST*
D10*
%TO.P,Q1,1,G_1*%
%TO.N,Net-(Q1-G)*%
X103386675Y-65501675D03*
D11*
%TO.P,Q1,2,D_2*%
%TO.N,Net-(Q1-D)*%
X103386675Y-62961675D03*
%TO.P,Q1,3,S_3*%
%TO.N,GND*%
X103386675Y-60421675D03*
%TD*%
D12*
%TO.P,U1,1,GP0_1*%
%TO.N,unconnected-(U1-GP0-Pad1)*%
X73400000Y-37170000D03*
D13*
%TO.P,U1,2,GP1_2*%
%TO.N,unconnected-(U1-GP1-Pad2)*%
X73400000Y-39710000D03*
D14*
%TO.P,U1,3,GND4_3*%
%TO.N,GND*%
X73400000Y-42250000D03*
D13*
%TO.P,U1,4,GP2_4*%
%TO.N,unconnected-(U1-GP2-Pad4)*%
X73400000Y-44790000D03*
%TO.P,U1,5,GP3_5*%
%TO.N,unconnected-(U1-GP3-Pad5)*%
X73400000Y-47330000D03*
%TO.P,U1,6,GP4_6*%
%TO.N,unconnected-(U1-GP4-Pad6)*%
X73400000Y-49870000D03*
%TO.P,U1,7,GP5_7*%
%TO.N,unconnected-(U1-GP5-Pad7)*%
X73400000Y-52410000D03*
D14*
%TO.P,U1,8,GND5_8*%
%TO.N,GND*%
X73400000Y-54950000D03*
D13*
%TO.P,U1,9,GP6_9*%
%TO.N,unconnected-(U1-GP6-Pad9)*%
X73400000Y-57490000D03*
%TO.P,U1,10,GP7_10*%
%TO.N,unconnected-(U1-GP7-Pad10)*%
X73400000Y-60030000D03*
%TO.P,U1,11,GP8_11*%
%TO.N,unconnected-(U1-GP8-Pad11)*%
X73400000Y-62570000D03*
%TO.P,U1,12,GP9_12*%
%TO.N,unconnected-(U1-GP9-Pad12)*%
X73400000Y-65110000D03*
D14*
%TO.P,U1,13,GND6_13*%
%TO.N,GND*%
X73400000Y-67650000D03*
D13*
%TO.P,U1,14,GP10_14*%
%TO.N,unconnected-(U1-GP10-Pad14)*%
X73400000Y-70190000D03*
%TO.P,U1,15,GP11_15*%
%TO.N,unconnected-(U1-GP11-Pad15)*%
X73400000Y-72730000D03*
%TO.P,U1,16,GP12_16*%
%TO.N,unconnected-(U1-GP12-Pad16)*%
X73400000Y-75270000D03*
%TO.P,U1,17,GP13_17*%
%TO.N,unconnected-(U1-GP13-Pad17)*%
X73400000Y-77810000D03*
D14*
%TO.P,U1,18,GND7_18*%
%TO.N,GND*%
X73400000Y-80350000D03*
D13*
%TO.P,U1,19,GP14_19*%
%TO.N,unconnected-(U1-GP14-Pad19)*%
X73400000Y-82890000D03*
%TO.P,U1,20,GP15_20*%
%TO.N,unconnected-(U1-GP15-Pad20)*%
X73400000Y-85430000D03*
%TO.P,U1,21,GP16_21*%
%TO.N,/UART_TX*%
X91180000Y-85430000D03*
%TO.P,U1,22,GP17_22*%
%TO.N,/UART_RX*%
X91180000Y-82890000D03*
D15*
%TO.P,U1,23,GND3_23*%
%TO.N,GND*%
X91180000Y-80350000D03*
D13*
%TO.P,U1,24,GP18_24*%
%TO.N,unconnected-(U1-GP18-Pad24)*%
X91180000Y-77810000D03*
%TO.P,U1,25,GP19_25*%
%TO.N,unconnected-(U1-GP19-Pad25)*%
X91180000Y-75270000D03*
%TO.P,U1,26,GP20_26*%
%TO.N,unconnected-(U1-GP20-Pad26)*%
X91180000Y-72730000D03*
%TO.P,U1,27,GP21_27*%
%TO.N,unconnected-(U1-GP21-Pad27)*%
X91180000Y-70190000D03*
D15*
%TO.P,U1,28,GND2_28*%
%TO.N,GND*%
X91180000Y-67650000D03*
D13*
%TO.P,U1,29,GP22_29*%
%TO.N,unconnected-(U1-GP22-Pad29)*%
X91180000Y-65110000D03*
%TO.P,U1,30,RUN_30*%
%TO.N,unconnected-(U1-RUN-Pad30)*%
X91180000Y-62570000D03*
%TO.P,U1,31,GP26_A0_31*%
%TO.N,unconnected-(U1-GP26_A0-Pad31)*%
X91180000Y-60030000D03*
%TO.P,U1,32,GP27_A1_32*%
%TO.N,/mosfet1_gate*%
X91180000Y-57490000D03*
D15*
%TO.P,U1,33,AGND_33*%
%TO.N,unconnected-(U1-AGND-Pad33)*%
X91180000Y-54950000D03*
D13*
%TO.P,U1,34,GP28_A2_34*%
%TO.N,/SIGNAL1*%
X91180000Y-52410000D03*
%TO.P,U1,35,ADC_VREF_35*%
%TO.N,unconnected-(U1-ADC_VREF-Pad35)*%
X91180000Y-49870000D03*
%TO.P,U1,36,3V3_36*%
%TO.N,+3V3*%
X91180000Y-47330000D03*
%TO.P,U1,37,3V3_EN_37*%
%TO.N,unconnected-(U1-3V3_EN-Pad37)*%
X91180000Y-44790000D03*
D15*
%TO.P,U1,38,GND_38*%
%TO.N,GND*%
X91180000Y-42250000D03*
D13*
%TO.P,U1,39,VSYS_39*%
%TO.N,/VSYS*%
X91180000Y-39710000D03*
%TO.P,U1,40,VBUS_40*%
%TO.N,unconnected-(U1-VBUS-Pad40)*%
X91180000Y-37170000D03*
%TD*%
D16*
%TO.P,R5,1*%
%TO.N,+3V3*%
X100537500Y-47297500D03*
%TO.P,R5,2*%
%TO.N,/SIGNAL1*%
X100537500Y-54917500D03*
%TD*%
%TO.P,R7,1*%
%TO.N,/mosfet1_gate*%
X97510850Y-69948350D03*
%TO.P,R7,2*%
%TO.N,Net-(Q1-G)*%
X105130850Y-69948350D03*
%TD*%
D17*
%TO.P,H2,1,1_1*%
%TO.N,GND*%
X111275000Y-31700000D03*
X111868109Y-30268109D03*
X111868109Y-33131891D03*
X113300000Y-29675000D03*
D18*
X113300000Y-31700000D03*
D17*
X113300000Y-33725000D03*
X114731891Y-30268109D03*
X114731891Y-33131891D03*
X115325000Y-31700000D03*
%TD*%
D16*
%TO.P,R1,1*%
%TO.N,Net-(Q1-G)*%
X97586675Y-66794175D03*
%TO.P,R1,2*%
%TO.N,GND*%
X97586675Y-59174175D03*
%TD*%
D19*
%TO.P,J6,1,1_1*%
%TO.N,/UART_RX*%
X100007500Y-82890000D03*
D20*
%TO.P,J6,2,2_2*%
%TO.N,/UART_TX*%
X100007500Y-85390000D03*
%TD*%
D21*
%TO.P,J3,1,1_1*%
%TO.N,+7.5V*%
X110286675Y-61271675D03*
D22*
%TO.P,J3,2,2_2*%
%TO.N,Net-(Q1-D)*%
X110286675Y-64771675D03*
%TD*%
D17*
%TO.P,H1,1,1_1*%
%TO.N,GND*%
X71275000Y-31700000D03*
X71868109Y-30268109D03*
X71868109Y-33131891D03*
X73300000Y-29675000D03*
D18*
X73300000Y-31700000D03*
D17*
X73300000Y-33725000D03*
X74731891Y-30268109D03*
X74731891Y-33131891D03*
X75325000Y-31700000D03*
%TD*%
D19*
%TO.P,J7,1,1_1*%
%TO.N,+7.5V*%
X110047500Y-75430000D03*
D20*
%TO.P,J7,2,2_2*%
%TO.N,GND*%
X110047500Y-77930000D03*
%TD*%
D23*
%TO.P,J1,01,GND_01*%
%TO.N,GND*%
X110337500Y-54320000D03*
D24*
%TO.P,J1,02,SIGNAL_02*%
%TO.N,/SIGNAL1*%
X110337500Y-50820000D03*
%TO.P,J1,03,PWR_03*%
%TO.N,+3V3*%
X110337500Y-47320000D03*
%TD*%
D21*
%TO.P,J5,1,1_1*%
%TO.N,/VSYS*%
X97757500Y-39700000D03*
D22*
%TO.P,J5,2,2_2*%
%TO.N,GND*%
X101257500Y-39700000D03*
%TD*%
D17*
%TO.P,H3,1,1_1*%
%TO.N,GND*%
X71275000Y-91700000D03*
X71868109Y-90268109D03*
X71868109Y-93131891D03*
X73300000Y-89675000D03*
D18*
X73300000Y-91700000D03*
D17*
X73300000Y-93725000D03*
X74731891Y-90268109D03*
X74731891Y-93131891D03*
X75325000Y-91700000D03*
%TD*%
%TO.P,H4,1,1_1*%
%TO.N,GND*%
X111275000Y-91700000D03*
X111868109Y-90268109D03*
X111868109Y-93131891D03*
X113300000Y-89675000D03*
D18*
X113300000Y-91700000D03*
D17*
X113300000Y-93725000D03*
X114731891Y-90268109D03*
X114731891Y-93131891D03*
X115325000Y-91700000D03*
%TD*%
%TA.AperFunction,Conductor*%
%TO.N,GND*%
G36*
X115304561Y-27206551D02*
G01*
X115594621Y-27224096D01*
X115609484Y-27225901D01*
X115891622Y-27277605D01*
X115906159Y-27281188D01*
X116180007Y-27366523D01*
X116193988Y-27371825D01*
X116455559Y-27489549D01*
X116468812Y-27496505D01*
X116714283Y-27644896D01*
X116726601Y-27653398D01*
X116952398Y-27830299D01*
X116963606Y-27840229D01*
X117166420Y-28043043D01*
X117176350Y-28054251D01*
X117353247Y-28280042D01*
X117361753Y-28292366D01*
X117510144Y-28537837D01*
X117517102Y-28551094D01*
X117634819Y-28812648D01*
X117640129Y-28826650D01*
X117725460Y-29100489D01*
X117729044Y-29115027D01*
X117780748Y-29397165D01*
X117782553Y-29412030D01*
X117800099Y-29702088D01*
X117800325Y-29709575D01*
X117800325Y-93702074D01*
X117800099Y-93709561D01*
X117782553Y-93999619D01*
X117780748Y-94014484D01*
X117729044Y-94296622D01*
X117725460Y-94311160D01*
X117640129Y-94584999D01*
X117634819Y-94599001D01*
X117517102Y-94860555D01*
X117510144Y-94873812D01*
X117361753Y-95119283D01*
X117353247Y-95131607D01*
X117176350Y-95357398D01*
X117166420Y-95368606D01*
X116963606Y-95571420D01*
X116952398Y-95581350D01*
X116726607Y-95758247D01*
X116714283Y-95766753D01*
X116468812Y-95915144D01*
X116455555Y-95922102D01*
X116194001Y-96039819D01*
X116179999Y-96045129D01*
X115906160Y-96130460D01*
X115891622Y-96134044D01*
X115609484Y-96185748D01*
X115594619Y-96187553D01*
X115304561Y-96205099D01*
X115297074Y-96205325D01*
X71304576Y-96205325D01*
X71297089Y-96205099D01*
X71007030Y-96187553D01*
X70992165Y-96185748D01*
X70710027Y-96134044D01*
X70695489Y-96130460D01*
X70421650Y-96045129D01*
X70407652Y-96039820D01*
X70254921Y-95971081D01*
X70146094Y-95922102D01*
X70132837Y-95915144D01*
X69887366Y-95766753D01*
X69875042Y-95758247D01*
X69649251Y-95581350D01*
X69638043Y-95571420D01*
X69435229Y-95368606D01*
X69425299Y-95357398D01*
X69248398Y-95131601D01*
X69239896Y-95119283D01*
X69091505Y-94873812D01*
X69084547Y-94860555D01*
X68966825Y-94598988D01*
X68961523Y-94585007D01*
X68876188Y-94311159D01*
X68872605Y-94296622D01*
X68820901Y-94014484D01*
X68819096Y-93999619D01*
X68801551Y-93709561D01*
X68801325Y-93702074D01*
X68801325Y-82787648D01*
X72099500Y-82787648D01*
X72099500Y-82992351D01*
X72131522Y-83194534D01*
X72194781Y-83389223D01*
X72287715Y-83571613D01*
X72408028Y-83737213D01*
X72552786Y-83881971D01*
X72707749Y-83994556D01*
X72718390Y-84002287D01*
X72809840Y-84048883D01*
X72811080Y-84049515D01*
X72861876Y-84097490D01*
X72878671Y-84165311D01*
X72856134Y-84231446D01*
X72811080Y-84270485D01*
X72718386Y-84317715D01*
X72552786Y-84438028D01*
X72408028Y-84582786D01*
X72287715Y-84748386D01*
X72194781Y-84930776D01*
X72131522Y-85125465D01*
X72099500Y-85327648D01*
X72099500Y-85532351D01*
X72131522Y-85734534D01*
X72194781Y-85929223D01*
X72287715Y-86111613D01*
X72408028Y-86277213D01*
X72552786Y-86421971D01*
X72707749Y-86534556D01*
X72718390Y-86542287D01*
X72799544Y-86583637D01*
X72900776Y-86635218D01*
X72900778Y-86635218D01*
X72900781Y-86635220D01*
X72934836Y-86646285D01*
X73095465Y-86698477D01*
X73196557Y-86714488D01*
X73297648Y-86730500D01*
X73297649Y-86730500D01*
X73502351Y-86730500D01*
X73502352Y-86730500D01*
X73704534Y-86698477D01*
X73899219Y-86635220D01*
X74081610Y-86542287D01*
X74174590Y-86474732D01*
X74247213Y-86421971D01*
X74247215Y-86421968D01*
X74247219Y-86421966D01*
X74391966Y-86277219D01*
X74391968Y-86277215D01*
X74391971Y-86277213D01*
X74444732Y-86204590D01*
X74512287Y-86111610D01*
X74605220Y-85929219D01*
X74668477Y-85734534D01*
X74700500Y-85532352D01*
X74700500Y-85327648D01*
X74668477Y-85125466D01*
X74605220Y-84930781D01*
X74605218Y-84930778D01*
X74605218Y-84930776D01*
X74571503Y-84864607D01*
X74512287Y-84748390D01*
X74487982Y-84714937D01*
X74391971Y-84582786D01*
X74247213Y-84438028D01*
X74081614Y-84317715D01*
X74075006Y-84314348D01*
X73988917Y-84270483D01*
X73938123Y-84222511D01*
X73921328Y-84154690D01*
X73943865Y-84088555D01*
X73988917Y-84049516D01*
X74081610Y-84002287D01*
X74102770Y-83986913D01*
X74247213Y-83881971D01*
X74247215Y-83881968D01*
X74247219Y-83881966D01*
X74391966Y-83737219D01*
X74391968Y-83737215D01*
X74391971Y-83737213D01*
X74444732Y-83664590D01*
X74512287Y-83571610D01*
X74605220Y-83389219D01*
X74668477Y-83194534D01*
X74700500Y-82992352D01*
X74700500Y-82787648D01*
X89879500Y-82787648D01*
X89879500Y-82992351D01*
X89911522Y-83194534D01*
X89974781Y-83389223D01*
X90067715Y-83571613D01*
X90188028Y-83737213D01*
X90332786Y-83881971D01*
X90487749Y-83994556D01*
X90498390Y-84002287D01*
X90589840Y-84048883D01*
X90591080Y-84049515D01*
X90641876Y-84097490D01*
X90658671Y-84165311D01*
X90636134Y-84231446D01*
X90591080Y-84270485D01*
X90498386Y-84317715D01*
X90332786Y-84438028D01*
X90188028Y-84582786D01*
X90067715Y-84748386D01*
X89974781Y-84930776D01*
X89911522Y-85125465D01*
X89879500Y-85327648D01*
X89879500Y-85532351D01*
X89911522Y-85734534D01*
X89974781Y-85929223D01*
X90067715Y-86111613D01*
X90188028Y-86277213D01*
X90332786Y-86421971D01*
X90487749Y-86534556D01*
X90498390Y-86542287D01*
X90579544Y-86583637D01*
X90680776Y-86635218D01*
X90680778Y-86635218D01*
X90680781Y-86635220D01*
X90714836Y-86646285D01*
X90875465Y-86698477D01*
X90976557Y-86714488D01*
X91077648Y-86730500D01*
X91077649Y-86730500D01*
X91282351Y-86730500D01*
X91282352Y-86730500D01*
X91484534Y-86698477D01*
X91679219Y-86635220D01*
X91861610Y-86542287D01*
X91954590Y-86474732D01*
X92027213Y-86421971D01*
X92027215Y-86421968D01*
X92027219Y-86421966D01*
X92171966Y-86277219D01*
X92171968Y-86277215D01*
X92171971Y-86277213D01*
X92224732Y-86204590D01*
X92292287Y-86111610D01*
X92385220Y-85929219D01*
X92448477Y-85734534D01*
X92480500Y-85532352D01*
X92480500Y-85327648D01*
X92448477Y-85125466D01*
X92385220Y-84930781D01*
X92385218Y-84930778D01*
X92385218Y-84930776D01*
X92351503Y-84864607D01*
X92292287Y-84748390D01*
X92267982Y-84714937D01*
X92171971Y-84582786D01*
X92027213Y-84438028D01*
X91861614Y-84317715D01*
X91855006Y-84314348D01*
X91768917Y-84270483D01*
X91718123Y-84222511D01*
X91701328Y-84154690D01*
X91723865Y-84088555D01*
X91768917Y-84049516D01*
X91861610Y-84002287D01*
X91882770Y-83986913D01*
X92027213Y-83881971D01*
X92027215Y-83881968D01*
X92027219Y-83881966D01*
X92171966Y-83737219D01*
X92171968Y-83737215D01*
X92171971Y-83737213D01*
X92224732Y-83664590D01*
X92292287Y-83571610D01*
X92385220Y-83389219D01*
X92448477Y-83194534D01*
X92480500Y-82992352D01*
X92480500Y-82787648D01*
X92448477Y-82585466D01*
X92385220Y-82390781D01*
X92385218Y-82390778D01*
X92385218Y-82390776D01*
X92351503Y-82324607D01*
X92292287Y-82208390D01*
X92180578Y-82054635D01*
X98719500Y-82054635D01*
X98719500Y-83725370D01*
X98719501Y-83725376D01*
X98725908Y-83784983D01*
X98776202Y-83919828D01*
X98776206Y-83919835D01*
X98862452Y-84035044D01*
X98862455Y-84035047D01*
X98977664Y-84121293D01*
X98977671Y-84121297D01*
X99085523Y-84161523D01*
X99112517Y-84171591D01*
X99124101Y-84172836D01*
X99188650Y-84199570D01*
X99228501Y-84256961D01*
X99230998Y-84326786D01*
X99195348Y-84386876D01*
X99183738Y-84396440D01*
X99168427Y-84407564D01*
X99025066Y-84550925D01*
X99025062Y-84550930D01*
X98905905Y-84714937D01*
X98813862Y-84895579D01*
X98813861Y-84895582D01*
X98751215Y-85088391D01*
X98719500Y-85288632D01*
X98719500Y-85491367D01*
X98751215Y-85691608D01*
X98813861Y-85884417D01*
X98813862Y-85884420D01*
X98905905Y-86065062D01*
X99025062Y-86229069D01*
X99025066Y-86229074D01*
X99168425Y-86372433D01*
X99168430Y-86372437D01*
X99311486Y-86476372D01*
X99332441Y-86491597D01*
X99431920Y-86542284D01*
X99513079Y-86583637D01*
X99513082Y-86583638D01*
X99609486Y-86614961D01*
X99705893Y-86646285D01*
X99906132Y-86678000D01*
X99906133Y-86678000D01*
X100108867Y-86678000D01*
X100108868Y-86678000D01*
X100309107Y-86646285D01*
X100501920Y-86583637D01*
X100682559Y-86491597D01*
X100846576Y-86372432D01*
X100989932Y-86229076D01*
X101109097Y-86065059D01*
X101201137Y-85884420D01*
X101263785Y-85691607D01*
X101295500Y-85491368D01*
X101295500Y-85288632D01*
X101263785Y-85088393D01*
X101232461Y-84991986D01*
X101201138Y-84895582D01*
X101201137Y-84895579D01*
X101169264Y-84833026D01*
X101109097Y-84714941D01*
X101093872Y-84693986D01*
X100989937Y-84550930D01*
X100989933Y-84550925D01*
X100846572Y-84407564D01*
X100831267Y-84396445D01*
X100788600Y-84341116D01*
X100782620Y-84271502D01*
X100815225Y-84209707D01*
X100876064Y-84175349D01*
X100890901Y-84172836D01*
X100902483Y-84171591D01*
X101037331Y-84121296D01*
X101152546Y-84035046D01*
X101238796Y-83919831D01*
X101289091Y-83784983D01*
X101295500Y-83725373D01*
X101295499Y-82054628D01*
X101289091Y-81995017D01*
X101252916Y-81898028D01*
X101238797Y-81860171D01*
X101238793Y-81860164D01*
X101152547Y-81744955D01*
X101152544Y-81744952D01*
X101037335Y-81658706D01*
X101037328Y-81658702D01*
X100902482Y-81608408D01*
X100902483Y-81608408D01*
X100842883Y-81602001D01*
X100842881Y-81602000D01*
X100842873Y-81602000D01*
X100842864Y-81602000D01*
X99172129Y-81602000D01*
X99172123Y-81602001D01*
X99112516Y-81608408D01*
X98977671Y-81658702D01*
X98977664Y-81658706D01*
X98862455Y-81744952D01*
X98862452Y-81744955D01*
X98776206Y-81860164D01*
X98776202Y-81860171D01*
X98725908Y-81995017D01*
X98720773Y-82042786D01*
X98719501Y-82054623D01*
X98719500Y-82054635D01*
X92180578Y-82054635D01*
X92171966Y-82042781D01*
X92027219Y-81898034D01*
X92027213Y-81898028D01*
X91861613Y-81777715D01*
X91861612Y-81777714D01*
X91861610Y-81777713D01*
X91797313Y-81744952D01*
X91679223Y-81684781D01*
X91484534Y-81621522D01*
X91309995Y-81593878D01*
X91282352Y-81589500D01*
X91077648Y-81589500D01*
X91053329Y-81593351D01*
X90875465Y-81621522D01*
X90680776Y-81684781D01*
X90498386Y-81777715D01*
X90332786Y-81898028D01*
X90188028Y-82042786D01*
X90067715Y-82208386D01*
X89974781Y-82390776D01*
X89911522Y-82585465D01*
X89879500Y-82787648D01*
X74700500Y-82787648D01*
X74668477Y-82585466D01*
X74605220Y-82390781D01*
X74605218Y-82390778D01*
X74605218Y-82390776D01*
X74571503Y-82324607D01*
X74512287Y-82208390D01*
X74451116Y-82124194D01*
X74391971Y-82042786D01*
X74247213Y-81898028D01*
X74081613Y-81777715D01*
X74081612Y-81777714D01*
X74081610Y-81777713D01*
X74017313Y-81744952D01*
X73899223Y-81684781D01*
X73704534Y-81621522D01*
X73529995Y-81593878D01*
X73502352Y-81589500D01*
X73297648Y-81589500D01*
X73273329Y-81593351D01*
X73095465Y-81621522D01*
X72900776Y-81684781D01*
X72718386Y-81777715D01*
X72552786Y-81898028D01*
X72408028Y-82042786D01*
X72287715Y-82208386D01*
X72194781Y-82390776D01*
X72131522Y-82585465D01*
X72099500Y-82787648D01*
X68801325Y-82787648D01*
X68801325Y-70087648D01*
X72099500Y-70087648D01*
X72099500Y-70292351D01*
X72131522Y-70494534D01*
X72194781Y-70689223D01*
X72258691Y-70814653D01*
X72283854Y-70864037D01*
X72287715Y-70871613D01*
X72408028Y-71037213D01*
X72552786Y-71181971D01*
X72707749Y-71294556D01*
X72718390Y-71302287D01*
X72809840Y-71348883D01*
X72811080Y-71349515D01*
X72861876Y-71397490D01*
X72878671Y-71465311D01*
X72856134Y-71531446D01*
X72811080Y-71570485D01*
X72718386Y-71617715D01*
X72552786Y-71738028D01*
X72408028Y-71882786D01*
X72287715Y-72048386D01*
X72194781Y-72230776D01*
X72131522Y-72425465D01*
X72099500Y-72627648D01*
X72099500Y-72832351D01*
X72131522Y-73034534D01*
X72194781Y-73229223D01*
X72287715Y-73411613D01*
X72408028Y-73577213D01*
X72552786Y-73721971D01*
X72707749Y-73834556D01*
X72718390Y-73842287D01*
X72809840Y-73888883D01*
X72811080Y-73889515D01*
X72861876Y-73937490D01*
X72878671Y-74005311D01*
X72856134Y-74071446D01*
X72811080Y-74110485D01*
X72718386Y-74157715D01*
X72552786Y-74278028D01*
X72408028Y-74422786D01*
X72287715Y-74588386D01*
X72194781Y-74770776D01*
X72131522Y-74965465D01*
X72099500Y-75167648D01*
X72099500Y-75372351D01*
X72131522Y-75574534D01*
X72194781Y-75769223D01*
X72287715Y-75951613D01*
X72408028Y-76117213D01*
X72552786Y-76261971D01*
X72707749Y-76374556D01*
X72718390Y-76382287D01*
X72809840Y-76428883D01*
X72811080Y-76429515D01*
X72861876Y-76477490D01*
X72878671Y-76545311D01*
X72856134Y-76611446D01*
X72811080Y-76650485D01*
X72718386Y-76697715D01*
X72552786Y-76818028D01*
X72408028Y-76962786D01*
X72287715Y-77128386D01*
X72194781Y-77310776D01*
X72131522Y-77505465D01*
X72099500Y-77707648D01*
X72099500Y-77912351D01*
X72131522Y-78114534D01*
X72194781Y-78309223D01*
X72287715Y-78491613D01*
X72408028Y-78657213D01*
X72552786Y-78801971D01*
X72707749Y-78914556D01*
X72718390Y-78922287D01*
X72834607Y-78981503D01*
X72900776Y-79015218D01*
X72900778Y-79015218D01*
X72900781Y-79015220D01*
X73005137Y-79049127D01*
X73095465Y-79078477D01*
X73196557Y-79094488D01*
X73297648Y-79110500D01*
X73297649Y-79110500D01*
X73502351Y-79110500D01*
X73502352Y-79110500D01*
X73704534Y-79078477D01*
X73899219Y-79015220D01*
X74081610Y-78922287D01*
X74174590Y-78854732D01*
X74247213Y-78801971D01*
X74247215Y-78801968D01*
X74247219Y-78801966D01*
X74391966Y-78657219D01*
X74391968Y-78657215D01*
X74391971Y-78657213D01*
X74444732Y-78584590D01*
X74512287Y-78491610D01*
X74605220Y-78309219D01*
X74668477Y-78114534D01*
X74700500Y-77912352D01*
X74700500Y-77707648D01*
X74668477Y-77505466D01*
X74605220Y-77310781D01*
X74605218Y-77310778D01*
X74605218Y-77310776D01*
X74571503Y-77244607D01*
X74512287Y-77128390D01*
X74504556Y-77117749D01*
X74391971Y-76962786D01*
X74247213Y-76818028D01*
X74081614Y-76697715D01*
X74075006Y-76694348D01*
X73988917Y-76650483D01*
X73938123Y-76602511D01*
X73921328Y-76534690D01*
X73943865Y-76468555D01*
X73988917Y-76429516D01*
X74081610Y-76382287D01*
X74160483Y-76324983D01*
X74247213Y-76261971D01*
X74247215Y-76261968D01*
X74247219Y-76261966D01*
X74391966Y-76117219D01*
X74391968Y-76117215D01*
X74391971Y-76117213D01*
X74444732Y-76044590D01*
X74512287Y-75951610D01*
X74605220Y-75769219D01*
X74668477Y-75574534D01*
X74700500Y-75372352D01*
X74700500Y-75167648D01*
X74668477Y-74965466D01*
X74605220Y-74770781D01*
X74605218Y-74770778D01*
X74605218Y-74770776D01*
X74571503Y-74704607D01*
X74512287Y-74588390D01*
X74473509Y-74535016D01*
X74391971Y-74422786D01*
X74247213Y-74278028D01*
X74081614Y-74157715D01*
X74063348Y-74148408D01*
X73988917Y-74110483D01*
X73938123Y-74062511D01*
X73921328Y-73994690D01*
X73943865Y-73928555D01*
X73988917Y-73889516D01*
X74081610Y-73842287D01*
X74102770Y-73826913D01*
X74247213Y-73721971D01*
X74247215Y-73721968D01*
X74247219Y-73721966D01*
X74391966Y-73577219D01*
X74391968Y-73577215D01*
X74391971Y-73577213D01*
X74444732Y-73504590D01*
X74512287Y-73411610D01*
X74605220Y-73229219D01*
X74668477Y-73034534D01*
X74700500Y-72832352D01*
X74700500Y-72627648D01*
X74668477Y-72425466D01*
X74605220Y-72230781D01*
X74605218Y-72230778D01*
X74605218Y-72230776D01*
X74571503Y-72164607D01*
X74512287Y-72048390D01*
X74504556Y-72037749D01*
X74391971Y-71882786D01*
X74247213Y-71738028D01*
X74081614Y-71617715D01*
X74075006Y-71614348D01*
X73988917Y-71570483D01*
X73938123Y-71522511D01*
X73921328Y-71454690D01*
X73943865Y-71388555D01*
X73988917Y-71349516D01*
X74081610Y-71302287D01*
X74102770Y-71286913D01*
X74247213Y-71181971D01*
X74247215Y-71181968D01*
X74247219Y-71181966D01*
X74391966Y-71037219D01*
X74391968Y-71037215D01*
X74391971Y-71037213D01*
X74444732Y-70964590D01*
X74512287Y-70871610D01*
X74605220Y-70689219D01*
X74668477Y-70494534D01*
X74700500Y-70292352D01*
X74700500Y-70087648D01*
X89879500Y-70087648D01*
X89879500Y-70292351D01*
X89911522Y-70494534D01*
X89974781Y-70689223D01*
X90038691Y-70814653D01*
X90063854Y-70864037D01*
X90067715Y-70871613D01*
X90188028Y-71037213D01*
X90332786Y-71181971D01*
X90487749Y-71294556D01*
X90498390Y-71302287D01*
X90589840Y-71348883D01*
X90591080Y-71349515D01*
X90641876Y-71397490D01*
X90658671Y-71465311D01*
X90636134Y-71531446D01*
X90591080Y-71570485D01*
X90498386Y-71617715D01*
X90332786Y-71738028D01*
X90188028Y-71882786D01*
X90067715Y-72048386D01*
X89974781Y-72230776D01*
X89911522Y-72425465D01*
X89879500Y-72627648D01*
X89879500Y-72832351D01*
X89911522Y-73034534D01*
X89974781Y-73229223D01*
X90067715Y-73411613D01*
X90188028Y-73577213D01*
X90332786Y-73721971D01*
X90487749Y-73834556D01*
X90498390Y-73842287D01*
X90589840Y-73888883D01*
X90591080Y-73889515D01*
X90641876Y-73937490D01*
X90658671Y-74005311D01*
X90636134Y-74071446D01*
X90591080Y-74110485D01*
X90498386Y-74157715D01*
X90332786Y-74278028D01*
X90188028Y-74422786D01*
X90067715Y-74588386D01*
X89974781Y-74770776D01*
X89911522Y-74965465D01*
X89879500Y-75167648D01*
X89879500Y-75372351D01*
X89911522Y-75574534D01*
X89974781Y-75769223D01*
X90067715Y-75951613D01*
X90188028Y-76117213D01*
X90332786Y-76261971D01*
X90487749Y-76374556D01*
X90498390Y-76382287D01*
X90589840Y-76428883D01*
X90591080Y-76429515D01*
X90641876Y-76477490D01*
X90658671Y-76545311D01*
X90636134Y-76611446D01*
X90591080Y-76650485D01*
X90498386Y-76697715D01*
X90332786Y-76818028D01*
X90188028Y-76962786D01*
X90067715Y-77128386D01*
X89974781Y-77310776D01*
X89911522Y-77505465D01*
X89879500Y-77707648D01*
X89879500Y-77912351D01*
X89911522Y-78114534D01*
X89974781Y-78309223D01*
X90067715Y-78491613D01*
X90188028Y-78657213D01*
X90332786Y-78801971D01*
X90487749Y-78914556D01*
X90498390Y-78922287D01*
X90614607Y-78981503D01*
X90680776Y-79015218D01*
X90680778Y-79015218D01*
X90680781Y-79015220D01*
X90785137Y-79049127D01*
X90875465Y-79078477D01*
X90976557Y-79094488D01*
X91077648Y-79110500D01*
X91077649Y-79110500D01*
X91282351Y-79110500D01*
X91282352Y-79110500D01*
X91484534Y-79078477D01*
X91679219Y-79015220D01*
X91861610Y-78922287D01*
X91954590Y-78854732D01*
X92027213Y-78801971D01*
X92027215Y-78801968D01*
X92027219Y-78801966D01*
X92171966Y-78657219D01*
X92171968Y-78657215D01*
X92171971Y-78657213D01*
X92224732Y-78584590D01*
X92292287Y-78491610D01*
X92385220Y-78309219D01*
X92448477Y-78114534D01*
X92480500Y-77912352D01*
X92480500Y-77707648D01*
X92448477Y-77505466D01*
X92385220Y-77310781D01*
X92385218Y-77310778D01*
X92385218Y-77310776D01*
X92351503Y-77244607D01*
X92292287Y-77128390D01*
X92284556Y-77117749D01*
X92171971Y-76962786D01*
X92027213Y-76818028D01*
X91861614Y-76697715D01*
X91855006Y-76694348D01*
X91768917Y-76650483D01*
X91718123Y-76602511D01*
X91701328Y-76534690D01*
X91723865Y-76468555D01*
X91768917Y-76429516D01*
X91861610Y-76382287D01*
X91940483Y-76324983D01*
X92027213Y-76261971D01*
X92027215Y-76261968D01*
X92027219Y-76261966D01*
X92171966Y-76117219D01*
X92171968Y-76117215D01*
X92171971Y-76117213D01*
X92224732Y-76044590D01*
X92292287Y-75951610D01*
X92385220Y-75769219D01*
X92448477Y-75574534D01*
X92480500Y-75372352D01*
X92480500Y-75167648D01*
X92448477Y-74965466D01*
X92385220Y-74770781D01*
X92295469Y-74594635D01*
X108759500Y-74594635D01*
X108759500Y-76265370D01*
X108759501Y-76265376D01*
X108765908Y-76324983D01*
X108816202Y-76459828D01*
X108816206Y-76459835D01*
X108902452Y-76575044D01*
X108902455Y-76575047D01*
X109017664Y-76661293D01*
X109017671Y-76661297D01*
X109152517Y-76711591D01*
X109152516Y-76711591D01*
X109159444Y-76712335D01*
X109212127Y-76718000D01*
X110882872Y-76717999D01*
X110942483Y-76711591D01*
X111077331Y-76661296D01*
X111192546Y-76575046D01*
X111278796Y-76459831D01*
X111329091Y-76324983D01*
X111335500Y-76265373D01*
X111335499Y-74594628D01*
X111329091Y-74535017D01*
X111278796Y-74400169D01*
X111278795Y-74400168D01*
X111278793Y-74400164D01*
X111192547Y-74284955D01*
X111192544Y-74284952D01*
X111077335Y-74198706D01*
X111077328Y-74198702D01*
X110942482Y-74148408D01*
X110942483Y-74148408D01*
X110882883Y-74142001D01*
X110882881Y-74142000D01*
X110882873Y-74142000D01*
X110882864Y-74142000D01*
X109212129Y-74142000D01*
X109212123Y-74142001D01*
X109152516Y-74148408D01*
X109017671Y-74198702D01*
X109017664Y-74198706D01*
X108902455Y-74284952D01*
X108902452Y-74284955D01*
X108816206Y-74400164D01*
X108816202Y-74400171D01*
X108765908Y-74535017D01*
X108759501Y-74594616D01*
X108759501Y-74594623D01*
X108759500Y-74594635D01*
X92295469Y-74594635D01*
X92292287Y-74588390D01*
X92292286Y-74588388D01*
X92171971Y-74422786D01*
X92027213Y-74278028D01*
X91861614Y-74157715D01*
X91843348Y-74148408D01*
X91768917Y-74110483D01*
X91718123Y-74062511D01*
X91701328Y-73994690D01*
X91723865Y-73928555D01*
X91768917Y-73889516D01*
X91861610Y-73842287D01*
X91882770Y-73826913D01*
X92027213Y-73721971D01*
X92027215Y-73721968D01*
X92027219Y-73721966D01*
X92171966Y-73577219D01*
X92171968Y-73577215D01*
X92171971Y-73577213D01*
X92224732Y-73504590D01*
X92292287Y-73411610D01*
X92385220Y-73229219D01*
X92448477Y-73034534D01*
X92480500Y-72832352D01*
X92480500Y-72627648D01*
X92448477Y-72425466D01*
X92385220Y-72230781D01*
X92385218Y-72230778D01*
X92385218Y-72230776D01*
X92351503Y-72164607D01*
X92292287Y-72048390D01*
X92284556Y-72037749D01*
X92171971Y-71882786D01*
X92027213Y-71738028D01*
X91861614Y-71617715D01*
X91855006Y-71614348D01*
X91768917Y-71570483D01*
X91718123Y-71522511D01*
X91701328Y-71454690D01*
X91723865Y-71388555D01*
X91768917Y-71349516D01*
X91861610Y-71302287D01*
X91882770Y-71286913D01*
X92027213Y-71181971D01*
X92027215Y-71181968D01*
X92027219Y-71181966D01*
X92171966Y-71037219D01*
X92171968Y-71037215D01*
X92171971Y-71037213D01*
X92224732Y-70964590D01*
X92292287Y-70871610D01*
X92385220Y-70689219D01*
X92448477Y-70494534D01*
X92480500Y-70292352D01*
X92480500Y-70087648D01*
X92448477Y-69885466D01*
X92438209Y-69853863D01*
X96310350Y-69853863D01*
X96310350Y-70042836D01*
X96339909Y-70229468D01*
X96398304Y-70409186D01*
X96484090Y-70577549D01*
X96595160Y-70730423D01*
X96728777Y-70864040D01*
X96881651Y-70975110D01*
X96961197Y-71015640D01*
X97050013Y-71060895D01*
X97050015Y-71060895D01*
X97050018Y-71060897D01*
X97146347Y-71092196D01*
X97229731Y-71119290D01*
X97416364Y-71148850D01*
X97416369Y-71148850D01*
X97605336Y-71148850D01*
X97791968Y-71119290D01*
X97971682Y-71060897D01*
X98140049Y-70975110D01*
X98292923Y-70864040D01*
X98426540Y-70730423D01*
X98537610Y-70577549D01*
X98623397Y-70409182D01*
X98681790Y-70229468D01*
X98704252Y-70087648D01*
X98711350Y-70042836D01*
X98711350Y-69853863D01*
X103930350Y-69853863D01*
X103930350Y-70042836D01*
X103959909Y-70229468D01*
X104018304Y-70409186D01*
X104104090Y-70577549D01*
X104215160Y-70730423D01*
X104348777Y-70864040D01*
X104501651Y-70975110D01*
X104581197Y-71015640D01*
X104670013Y-71060895D01*
X104670015Y-71060895D01*
X104670018Y-71060897D01*
X104766347Y-71092196D01*
X104849731Y-71119290D01*
X105036364Y-71148850D01*
X105036369Y-71148850D01*
X105225336Y-71148850D01*
X105411968Y-71119290D01*
X105591682Y-71060897D01*
X105760049Y-70975110D01*
X105912923Y-70864040D01*
X106046540Y-70730423D01*
X106157610Y-70577549D01*
X106243397Y-70409182D01*
X106301790Y-70229468D01*
X106324252Y-70087648D01*
X106331350Y-70042836D01*
X106331350Y-69853863D01*
X106301790Y-69667231D01*
X106274696Y-69583847D01*
X106243397Y-69487518D01*
X106243395Y-69487515D01*
X106243395Y-69487513D01*
X106198140Y-69398697D01*
X106157610Y-69319151D01*
X106046540Y-69166277D01*
X105912923Y-69032660D01*
X105760049Y-68921590D01*
X105697069Y-68889500D01*
X105591686Y-68835804D01*
X105411968Y-68777409D01*
X105225336Y-68747850D01*
X105225331Y-68747850D01*
X105036369Y-68747850D01*
X105036364Y-68747850D01*
X104849731Y-68777409D01*
X104670013Y-68835804D01*
X104501650Y-68921590D01*
X104414678Y-68984780D01*
X104348777Y-69032660D01*
X104348775Y-69032662D01*
X104348774Y-69032662D01*
X104215162Y-69166274D01*
X104215162Y-69166275D01*
X104215160Y-69166277D01*
X104192087Y-69198034D01*
X104104090Y-69319150D01*
X104018304Y-69487513D01*
X103959909Y-69667231D01*
X103930350Y-69853863D01*
X98711350Y-69853863D01*
X98681790Y-69667231D01*
X98654696Y-69583847D01*
X98623397Y-69487518D01*
X98623395Y-69487515D01*
X98623395Y-69487513D01*
X98578140Y-69398697D01*
X98537610Y-69319151D01*
X98426540Y-69166277D01*
X98292923Y-69032660D01*
X98140049Y-68921590D01*
X98077069Y-68889500D01*
X97971686Y-68835804D01*
X97791968Y-68777409D01*
X97605336Y-68747850D01*
X97605331Y-68747850D01*
X97416369Y-68747850D01*
X97416364Y-68747850D01*
X97229731Y-68777409D01*
X97050013Y-68835804D01*
X96881650Y-68921590D01*
X96794678Y-68984780D01*
X96728777Y-69032660D01*
X96728775Y-69032662D01*
X96728774Y-69032662D01*
X96595162Y-69166274D01*
X96595162Y-69166275D01*
X96595160Y-69166277D01*
X96572087Y-69198034D01*
X96484090Y-69319150D01*
X96398304Y-69487513D01*
X96339909Y-69667231D01*
X96310350Y-69853863D01*
X92438209Y-69853863D01*
X92385220Y-69690781D01*
X92292287Y-69508390D01*
X92277119Y-69487513D01*
X92171971Y-69342786D01*
X92027213Y-69198028D01*
X91861613Y-69077715D01*
X91861612Y-69077714D01*
X91861610Y-69077713D01*
X91773189Y-69032660D01*
X91679223Y-68984781D01*
X91484534Y-68921522D01*
X91309995Y-68893878D01*
X91282352Y-68889500D01*
X91077648Y-68889500D01*
X91053329Y-68893351D01*
X90875465Y-68921522D01*
X90680776Y-68984781D01*
X90498386Y-69077715D01*
X90332786Y-69198028D01*
X90188028Y-69342786D01*
X90067715Y-69508386D01*
X89974781Y-69690776D01*
X89911522Y-69885465D01*
X89879500Y-70087648D01*
X74700500Y-70087648D01*
X74668477Y-69885466D01*
X74605220Y-69690781D01*
X74605218Y-69690778D01*
X74605218Y-69690776D01*
X74571503Y-69624607D01*
X74512287Y-69508390D01*
X74497119Y-69487513D01*
X74391971Y-69342786D01*
X74247213Y-69198028D01*
X74081613Y-69077715D01*
X74081612Y-69077714D01*
X74081610Y-69077713D01*
X73993189Y-69032660D01*
X73899223Y-68984781D01*
X73704534Y-68921522D01*
X73529995Y-68893878D01*
X73502352Y-68889500D01*
X73297648Y-68889500D01*
X73273329Y-68893351D01*
X73095465Y-68921522D01*
X72900776Y-68984781D01*
X72718386Y-69077715D01*
X72552786Y-69198028D01*
X72408028Y-69342786D01*
X72287715Y-69508386D01*
X72194781Y-69690776D01*
X72131522Y-69885465D01*
X72099500Y-70087648D01*
X68801325Y-70087648D01*
X68801325Y-66699688D01*
X96386175Y-66699688D01*
X96386175Y-66888661D01*
X96415734Y-67075293D01*
X96474129Y-67255011D01*
X96559915Y-67423374D01*
X96670985Y-67576248D01*
X96804602Y-67709865D01*
X96957476Y-67820935D01*
X97037022Y-67861465D01*
X97125838Y-67906720D01*
X97125840Y-67906720D01*
X97125843Y-67906722D01*
X97222172Y-67938021D01*
X97305556Y-67965115D01*
X97492189Y-67994675D01*
X97492194Y-67994675D01*
X97681161Y-67994675D01*
X97867793Y-67965115D01*
X98047507Y-67906722D01*
X98215874Y-67820935D01*
X98368748Y-67709865D01*
X98502365Y-67576248D01*
X98613435Y-67423374D01*
X98699222Y-67255007D01*
X98757615Y-67075293D01*
X98776719Y-66954674D01*
X98787175Y-66888661D01*
X98787175Y-66699688D01*
X98757615Y-66513056D01*
X98699220Y-66333338D01*
X98613434Y-66164975D01*
X98502365Y-66012102D01*
X98368748Y-65878485D01*
X98215874Y-65767415D01*
X98047511Y-65681629D01*
X97867793Y-65623234D01*
X97681161Y-65593675D01*
X97681156Y-65593675D01*
X97492194Y-65593675D01*
X97492189Y-65593675D01*
X97305556Y-65623234D01*
X97125838Y-65681629D01*
X96957475Y-65767415D01*
X96924170Y-65791613D01*
X96804602Y-65878485D01*
X96804600Y-65878487D01*
X96804599Y-65878487D01*
X96670987Y-66012099D01*
X96670987Y-66012100D01*
X96670985Y-66012102D01*
X96655340Y-66033636D01*
X96559915Y-66164975D01*
X96474129Y-66333338D01*
X96415734Y-66513056D01*
X96386175Y-66699688D01*
X68801325Y-66699688D01*
X68801325Y-57387648D01*
X72099500Y-57387648D01*
X72099500Y-57592351D01*
X72131522Y-57794534D01*
X72194781Y-57989223D01*
X72287715Y-58171613D01*
X72408028Y-58337213D01*
X72552786Y-58481971D01*
X72707749Y-58594556D01*
X72718390Y-58602287D01*
X72809840Y-58648883D01*
X72811080Y-58649515D01*
X72861876Y-58697490D01*
X72878671Y-58765311D01*
X72856134Y-58831446D01*
X72811080Y-58870485D01*
X72718386Y-58917715D01*
X72552786Y-59038028D01*
X72408028Y-59182786D01*
X72287715Y-59348386D01*
X72194781Y-59530776D01*
X72131522Y-59725465D01*
X72099500Y-59927648D01*
X72099500Y-60132351D01*
X72131522Y-60334534D01*
X72194781Y-60529223D01*
X72287715Y-60711613D01*
X72408028Y-60877213D01*
X72552786Y-61021971D01*
X72707749Y-61134556D01*
X72718390Y-61142287D01*
X72809840Y-61188883D01*
X72811080Y-61189515D01*
X72861876Y-61237490D01*
X72878671Y-61305311D01*
X72856134Y-61371446D01*
X72811080Y-61410485D01*
X72718386Y-61457715D01*
X72552786Y-61578028D01*
X72408028Y-61722786D01*
X72287715Y-61888386D01*
X72194781Y-62070776D01*
X72131522Y-62265465D01*
X72099500Y-62467648D01*
X72099500Y-62672351D01*
X72131522Y-62874534D01*
X72194781Y-63069223D01*
X72287715Y-63251613D01*
X72408028Y-63417213D01*
X72552786Y-63561971D01*
X72707749Y-63674556D01*
X72718390Y-63682287D01*
X72798712Y-63723213D01*
X72811080Y-63729515D01*
X72861876Y-63777490D01*
X72878671Y-63845311D01*
X72856134Y-63911446D01*
X72811080Y-63950485D01*
X72718386Y-63997715D01*
X72552786Y-64118028D01*
X72408028Y-64262786D01*
X72287715Y-64428386D01*
X72194781Y-64610776D01*
X72131522Y-64805465D01*
X72099500Y-65007648D01*
X72099500Y-65212351D01*
X72131522Y-65414534D01*
X72194781Y-65609223D01*
X72287715Y-65791613D01*
X72408028Y-65957213D01*
X72552786Y-66101971D01*
X72702640Y-66210844D01*
X72718390Y-66222287D01*
X72834607Y-66281503D01*
X72900776Y-66315218D01*
X72900778Y-66315218D01*
X72900781Y-66315220D01*
X72956558Y-66333343D01*
X73095465Y-66378477D01*
X73196557Y-66394488D01*
X73297648Y-66410500D01*
X73297649Y-66410500D01*
X73502351Y-66410500D01*
X73502352Y-66410500D01*
X73704534Y-66378477D01*
X73899219Y-66315220D01*
X74081610Y-66222287D01*
X74174590Y-66154732D01*
X74247213Y-66101971D01*
X74247215Y-66101968D01*
X74247219Y-66101966D01*
X74391966Y-65957219D01*
X74391968Y-65957215D01*
X74391971Y-65957213D01*
X74449169Y-65878485D01*
X74512287Y-65791610D01*
X74605220Y-65609219D01*
X74668477Y-65414534D01*
X74700500Y-65212352D01*
X74700500Y-65007648D01*
X74681518Y-64887804D01*
X74668477Y-64805465D01*
X74639127Y-64715137D01*
X74605220Y-64610781D01*
X74605218Y-64610778D01*
X74605218Y-64610776D01*
X74571503Y-64544607D01*
X74512287Y-64428390D01*
X74504556Y-64417749D01*
X74391971Y-64262786D01*
X74247213Y-64118028D01*
X74081614Y-63997715D01*
X74061856Y-63987648D01*
X73988917Y-63950483D01*
X73938123Y-63902511D01*
X73921328Y-63834690D01*
X73943865Y-63768555D01*
X73988917Y-63729516D01*
X74081610Y-63682287D01*
X74102770Y-63666913D01*
X74247213Y-63561971D01*
X74247215Y-63561968D01*
X74247219Y-63561966D01*
X74391966Y-63417219D01*
X74391968Y-63417215D01*
X74391971Y-63417213D01*
X74475735Y-63301920D01*
X74512287Y-63251610D01*
X74605220Y-63069219D01*
X74668477Y-62874534D01*
X74700500Y-62672352D01*
X74700500Y-62467648D01*
X74668477Y-62265466D01*
X74605220Y-62070781D01*
X74605218Y-62070778D01*
X74605218Y-62070776D01*
X74571503Y-62004607D01*
X74512287Y-61888390D01*
X74486859Y-61853391D01*
X74391971Y-61722786D01*
X74247213Y-61578028D01*
X74081614Y-61457715D01*
X74075006Y-61454348D01*
X73988917Y-61410483D01*
X73938123Y-61362511D01*
X73921328Y-61294690D01*
X73943865Y-61228555D01*
X73988917Y-61189516D01*
X74081610Y-61142287D01*
X74102770Y-61126913D01*
X74247213Y-61021971D01*
X74247215Y-61021968D01*
X74247219Y-61021966D01*
X74391966Y-60877219D01*
X74391968Y-60877215D01*
X74391971Y-60877213D01*
X74444732Y-60804590D01*
X74512287Y-60711610D01*
X74605220Y-60529219D01*
X74668477Y-60334534D01*
X74700500Y-60132352D01*
X74700500Y-59927648D01*
X74688657Y-59852877D01*
X74668477Y-59725465D01*
X74605218Y-59530776D01*
X74571503Y-59464607D01*
X74512287Y-59348390D01*
X74504556Y-59337749D01*
X74391971Y-59182786D01*
X74247213Y-59038028D01*
X74081614Y-58917715D01*
X74075006Y-58914348D01*
X73988917Y-58870483D01*
X73938123Y-58822511D01*
X73921328Y-58754690D01*
X73943865Y-58688555D01*
X73988917Y-58649516D01*
X74081610Y-58602287D01*
X74102770Y-58586913D01*
X74247213Y-58481971D01*
X74247215Y-58481968D01*
X74247219Y-58481966D01*
X74391966Y-58337219D01*
X74391968Y-58337215D01*
X74391971Y-58337213D01*
X74444732Y-58264590D01*
X74512287Y-58171610D01*
X74605220Y-57989219D01*
X74668477Y-57794534D01*
X74700500Y-57592352D01*
X74700500Y-57387648D01*
X74668477Y-57185466D01*
X74605220Y-56990781D01*
X74605218Y-56990778D01*
X74605218Y-56990776D01*
X74571503Y-56924607D01*
X74512287Y-56808390D01*
X74504556Y-56797749D01*
X74391971Y-56642786D01*
X74247213Y-56498028D01*
X74081613Y-56377715D01*
X74081612Y-56377714D01*
X74081610Y-56377713D01*
X74024653Y-56348691D01*
X73899223Y-56284781D01*
X73704534Y-56221522D01*
X73529995Y-56193878D01*
X73502352Y-56189500D01*
X73297648Y-56189500D01*
X73273329Y-56193351D01*
X73095465Y-56221522D01*
X72900776Y-56284781D01*
X72718386Y-56377715D01*
X72552786Y-56498028D01*
X72408028Y-56642786D01*
X72287715Y-56808386D01*
X72194781Y-56990776D01*
X72131522Y-57185465D01*
X72099500Y-57387648D01*
X68801325Y-57387648D01*
X68801325Y-54310219D01*
X89874500Y-54310219D01*
X89874500Y-55589784D01*
X89877395Y-55643814D01*
X89877396Y-55643818D01*
X89912976Y-55783221D01*
X89912980Y-55783233D01*
X89943419Y-55856719D01*
X89943431Y-55856747D01*
X89966779Y-55905548D01*
X89966781Y-55905551D01*
X90053006Y-56020733D01*
X90053010Y-56020737D01*
X90053015Y-56020743D01*
X90109252Y-56076980D01*
X90109261Y-56076988D01*
X90109267Y-56076994D01*
X90149524Y-56113156D01*
X90149532Y-56113162D01*
X90273263Y-56186573D01*
X90273262Y-56186573D01*
X90280329Y-56189500D01*
X90346774Y-56217022D01*
X90362645Y-56222621D01*
X90375133Y-56227027D01*
X90431805Y-56267894D01*
X90457386Y-56332912D01*
X90443754Y-56401439D01*
X90406765Y-56444281D01*
X90332782Y-56498032D01*
X90188028Y-56642786D01*
X90067715Y-56808386D01*
X89974781Y-56990776D01*
X89911522Y-57185465D01*
X89879500Y-57387648D01*
X89879500Y-57592351D01*
X89911522Y-57794534D01*
X89974781Y-57989223D01*
X90067715Y-58171613D01*
X90188028Y-58337213D01*
X90332786Y-58481971D01*
X90487749Y-58594556D01*
X90498390Y-58602287D01*
X90589840Y-58648883D01*
X90591080Y-58649515D01*
X90641876Y-58697490D01*
X90658671Y-58765311D01*
X90636134Y-58831446D01*
X90591080Y-58870485D01*
X90498386Y-58917715D01*
X90332786Y-59038028D01*
X90188028Y-59182786D01*
X90067715Y-59348386D01*
X89974781Y-59530776D01*
X89911522Y-59725465D01*
X89879500Y-59927648D01*
X89879500Y-60132351D01*
X89911522Y-60334534D01*
X89974781Y-60529223D01*
X90067715Y-60711613D01*
X90188028Y-60877213D01*
X90332786Y-61021971D01*
X90487749Y-61134556D01*
X90498390Y-61142287D01*
X90589840Y-61188883D01*
X90591080Y-61189515D01*
X90641876Y-61237490D01*
X90658671Y-61305311D01*
X90636134Y-61371446D01*
X90591080Y-61410485D01*
X90498386Y-61457715D01*
X90332786Y-61578028D01*
X90188028Y-61722786D01*
X90067715Y-61888386D01*
X89974781Y-62070776D01*
X89911522Y-62265465D01*
X89879500Y-62467648D01*
X89879500Y-62672351D01*
X89911522Y-62874534D01*
X89974781Y-63069223D01*
X90067715Y-63251613D01*
X90188028Y-63417213D01*
X90332786Y-63561971D01*
X90487749Y-63674556D01*
X90498390Y-63682287D01*
X90578712Y-63723213D01*
X90591080Y-63729515D01*
X90641876Y-63777490D01*
X90658671Y-63845311D01*
X90636134Y-63911446D01*
X90591080Y-63950485D01*
X90498386Y-63997715D01*
X90332786Y-64118028D01*
X90188028Y-64262786D01*
X90067715Y-64428386D01*
X89974781Y-64610776D01*
X89911522Y-64805465D01*
X89879500Y-65007648D01*
X89879500Y-65212351D01*
X89911522Y-65414534D01*
X89974781Y-65609223D01*
X90067715Y-65791613D01*
X90188028Y-65957213D01*
X90332786Y-66101971D01*
X90482640Y-66210844D01*
X90498390Y-66222287D01*
X90614607Y-66281503D01*
X90680776Y-66315218D01*
X90680778Y-66315218D01*
X90680781Y-66315220D01*
X90736558Y-66333343D01*
X90875465Y-66378477D01*
X90976557Y-66394488D01*
X91077648Y-66410500D01*
X91077649Y-66410500D01*
X91282351Y-66410500D01*
X91282352Y-66410500D01*
X91484534Y-66378477D01*
X91679219Y-66315220D01*
X91861610Y-66222287D01*
X91954590Y-66154732D01*
X92027213Y-66101971D01*
X92027215Y-66101968D01*
X92027219Y-66101966D01*
X92171966Y-65957219D01*
X92171968Y-65957215D01*
X92171971Y-65957213D01*
X92229169Y-65878485D01*
X92292287Y-65791610D01*
X92385220Y-65609219D01*
X92448477Y-65414534D01*
X92480500Y-65212352D01*
X92480500Y-65007648D01*
X92461518Y-64887804D01*
X92448477Y-64805465D01*
X92419127Y-64715137D01*
X92385220Y-64610781D01*
X92385218Y-64610778D01*
X92385218Y-64610776D01*
X92351503Y-64544607D01*
X92292287Y-64428390D01*
X92284556Y-64417749D01*
X92171971Y-64262786D01*
X92027213Y-64118028D01*
X91861614Y-63997715D01*
X91841856Y-63987648D01*
X91768917Y-63950483D01*
X91718123Y-63902511D01*
X91701328Y-63834690D01*
X91723865Y-63768555D01*
X91768917Y-63729516D01*
X91861610Y-63682287D01*
X91882770Y-63666913D01*
X92027213Y-63561971D01*
X92027215Y-63561968D01*
X92027219Y-63561966D01*
X92171966Y-63417219D01*
X92171968Y-63417215D01*
X92171971Y-63417213D01*
X92255735Y-63301920D01*
X92292287Y-63251610D01*
X92385220Y-63069219D01*
X92448477Y-62874534D01*
X92452787Y-62847321D01*
X101886175Y-62847321D01*
X101886175Y-63076028D01*
X101921953Y-63301921D01*
X101921953Y-63301924D01*
X101992625Y-63519430D01*
X102014301Y-63561971D01*
X102096458Y-63723213D01*
X102229200Y-63905917D01*
X102252680Y-63971721D01*
X102236855Y-64039775D01*
X102186749Y-64088470D01*
X102172216Y-64094983D01*
X102144345Y-64105378D01*
X102144339Y-64105381D01*
X102029130Y-64191627D01*
X102029127Y-64191630D01*
X101942881Y-64306839D01*
X101942877Y-64306846D01*
X101892583Y-64441692D01*
X101886176Y-64501291D01*
X101886176Y-64501298D01*
X101886175Y-64501310D01*
X101886175Y-66502045D01*
X101886176Y-66502051D01*
X101892583Y-66561658D01*
X101942877Y-66696503D01*
X101942881Y-66696510D01*
X102029127Y-66811719D01*
X102029130Y-66811722D01*
X102144339Y-66897968D01*
X102144346Y-66897972D01*
X102279192Y-66948266D01*
X102279191Y-66948266D01*
X102286119Y-66949010D01*
X102338802Y-66954675D01*
X104434547Y-66954674D01*
X104494158Y-66948266D01*
X104629006Y-66897971D01*
X104744221Y-66811721D01*
X104830471Y-66696506D01*
X104880766Y-66561658D01*
X104887175Y-66502048D01*
X104887174Y-64655545D01*
X108811175Y-64655545D01*
X108811175Y-64887804D01*
X108847506Y-65117189D01*
X108919276Y-65338075D01*
X109024714Y-65545006D01*
X109161226Y-65732899D01*
X109325451Y-65897124D01*
X109513344Y-66033636D01*
X109611111Y-66083451D01*
X109720274Y-66139073D01*
X109720276Y-66139073D01*
X109720279Y-66139075D01*
X109941161Y-66210844D01*
X110059343Y-66229561D01*
X110170546Y-66247175D01*
X110170551Y-66247175D01*
X110402804Y-66247175D01*
X110504177Y-66231118D01*
X110632189Y-66210844D01*
X110853071Y-66139075D01*
X111060006Y-66033636D01*
X111247899Y-65897124D01*
X111412124Y-65732899D01*
X111548636Y-65545006D01*
X111654075Y-65338071D01*
X111725844Y-65117189D01*
X111746118Y-64989177D01*
X111762175Y-64887804D01*
X111762175Y-64655545D01*
X111737743Y-64501291D01*
X111725844Y-64426161D01*
X111654075Y-64205279D01*
X111654073Y-64205276D01*
X111654073Y-64205274D01*
X111594558Y-64088470D01*
X111548636Y-63998344D01*
X111412124Y-63810451D01*
X111247899Y-63646226D01*
X111060006Y-63509714D01*
X110853075Y-63404276D01*
X110632189Y-63332506D01*
X110402804Y-63296175D01*
X110402799Y-63296175D01*
X110170551Y-63296175D01*
X110170546Y-63296175D01*
X109941160Y-63332506D01*
X109720274Y-63404276D01*
X109513343Y-63509714D01*
X109325448Y-63646228D01*
X109161228Y-63810448D01*
X109024714Y-63998343D01*
X108919276Y-64205274D01*
X108847506Y-64426160D01*
X108811175Y-64655545D01*
X104887174Y-64655545D01*
X104887174Y-64501303D01*
X104880766Y-64441692D01*
X104875803Y-64428386D01*
X104830472Y-64306846D01*
X104830468Y-64306839D01*
X104744222Y-64191630D01*
X104744219Y-64191627D01*
X104629010Y-64105381D01*
X104629003Y-64105377D01*
X104601134Y-64094983D01*
X104545200Y-64053112D01*
X104520783Y-63987648D01*
X104535635Y-63919375D01*
X104544135Y-63905935D01*
X104676892Y-63723213D01*
X104780723Y-63519433D01*
X104851397Y-63301920D01*
X104887175Y-63076029D01*
X104887175Y-62847321D01*
X104851397Y-62621430D01*
X104851396Y-62621426D01*
X104851396Y-62621425D01*
X104780724Y-62403919D01*
X104780723Y-62403917D01*
X104676892Y-62200137D01*
X104542461Y-62015109D01*
X104380741Y-61853389D01*
X104195713Y-61718958D01*
X103991930Y-61615125D01*
X103774423Y-61544453D01*
X103605001Y-61517619D01*
X103548529Y-61508675D01*
X103224821Y-61508675D01*
X103149524Y-61520601D01*
X102998928Y-61544453D01*
X102998925Y-61544453D01*
X102781419Y-61615125D01*
X102577636Y-61718958D01*
X102472071Y-61795655D01*
X102392609Y-61853389D01*
X102392607Y-61853391D01*
X102392606Y-61853391D01*
X102230891Y-62015106D01*
X102230891Y-62015107D01*
X102230889Y-62015109D01*
X102190441Y-62070781D01*
X102096458Y-62200136D01*
X101992625Y-62403919D01*
X101921953Y-62621425D01*
X101921953Y-62621428D01*
X101886175Y-62847321D01*
X92452787Y-62847321D01*
X92480500Y-62672352D01*
X92480500Y-62467648D01*
X92448477Y-62265466D01*
X92385220Y-62070781D01*
X92385218Y-62070778D01*
X92385218Y-62070776D01*
X92351503Y-62004607D01*
X92292287Y-61888390D01*
X92266859Y-61853391D01*
X92171971Y-61722786D01*
X92027213Y-61578028D01*
X91861614Y-61457715D01*
X91855006Y-61454348D01*
X91768917Y-61410483D01*
X91718123Y-61362511D01*
X91701328Y-61294690D01*
X91723865Y-61228555D01*
X91768917Y-61189516D01*
X91861610Y-61142287D01*
X91882770Y-61126913D01*
X92027213Y-61021971D01*
X92027215Y-61021968D01*
X92027219Y-61021966D01*
X92171966Y-60877219D01*
X92171968Y-60877215D01*
X92171971Y-60877213D01*
X92224732Y-60804590D01*
X92292287Y-60711610D01*
X92385220Y-60529219D01*
X92448477Y-60334534D01*
X92462055Y-60248810D01*
X108811175Y-60248810D01*
X108811175Y-62294545D01*
X108811176Y-62294551D01*
X108817583Y-62354158D01*
X108867877Y-62489003D01*
X108867881Y-62489010D01*
X108954127Y-62604219D01*
X108954130Y-62604222D01*
X109069339Y-62690468D01*
X109069346Y-62690472D01*
X109204192Y-62740766D01*
X109204191Y-62740766D01*
X109211119Y-62741510D01*
X109263802Y-62747175D01*
X111309547Y-62747174D01*
X111369158Y-62740766D01*
X111504006Y-62690471D01*
X111619221Y-62604221D01*
X111705471Y-62489006D01*
X111755766Y-62354158D01*
X111762175Y-62294548D01*
X111762174Y-60248803D01*
X111755766Y-60189192D01*
X111734565Y-60132350D01*
X111705472Y-60054346D01*
X111705468Y-60054339D01*
X111619222Y-59939130D01*
X111619219Y-59939127D01*
X111504010Y-59852881D01*
X111504003Y-59852877D01*
X111369157Y-59802583D01*
X111369158Y-59802583D01*
X111309558Y-59796176D01*
X111309556Y-59796175D01*
X111309548Y-59796175D01*
X111309539Y-59796175D01*
X109263804Y-59796175D01*
X109263798Y-59796176D01*
X109204191Y-59802583D01*
X109069346Y-59852877D01*
X109069339Y-59852881D01*
X108954130Y-59939127D01*
X108954127Y-59939130D01*
X108867881Y-60054339D01*
X108867877Y-60054346D01*
X108817583Y-60189192D01*
X108811176Y-60248791D01*
X108811176Y-60248798D01*
X108811175Y-60248810D01*
X92462055Y-60248810D01*
X92480500Y-60132352D01*
X92480500Y-59927648D01*
X92468657Y-59852877D01*
X92448477Y-59725465D01*
X92385218Y-59530776D01*
X92351503Y-59464607D01*
X92292287Y-59348390D01*
X92284556Y-59337749D01*
X92171971Y-59182786D01*
X92027213Y-59038028D01*
X91861614Y-58917715D01*
X91855006Y-58914348D01*
X91768917Y-58870483D01*
X91718123Y-58822511D01*
X91701328Y-58754690D01*
X91723865Y-58688555D01*
X91768917Y-58649516D01*
X91861610Y-58602287D01*
X91882770Y-58586913D01*
X92027213Y-58481971D01*
X92027215Y-58481968D01*
X92027219Y-58481966D01*
X92171966Y-58337219D01*
X92171968Y-58337215D01*
X92171971Y-58337213D01*
X92224732Y-58264590D01*
X92292287Y-58171610D01*
X92385220Y-57989219D01*
X92448477Y-57794534D01*
X92480500Y-57592352D01*
X92480500Y-57387648D01*
X92448477Y-57185466D01*
X92385220Y-56990781D01*
X92385218Y-56990778D01*
X92385218Y-56990776D01*
X92351503Y-56924607D01*
X92292287Y-56808390D01*
X92284556Y-56797749D01*
X92171971Y-56642786D01*
X92027213Y-56498028D01*
X91861613Y-56377715D01*
X91861612Y-56377714D01*
X91861610Y-56377713D01*
X91808947Y-56350880D01*
X91776245Y-56334217D01*
X91725449Y-56286242D01*
X91708654Y-56218421D01*
X91731192Y-56152286D01*
X91774083Y-56114376D01*
X91839783Y-56079259D01*
X91970811Y-55991709D01*
X92047412Y-55928843D01*
X92158843Y-55817412D01*
X92221709Y-55740811D01*
X92309259Y-55609783D01*
X92355972Y-55522389D01*
X92416278Y-55376798D01*
X92445044Y-55281968D01*
X92475787Y-55127410D01*
X92485500Y-55028793D01*
X92485500Y-54871207D01*
X92480753Y-54823013D01*
X99337000Y-54823013D01*
X99337000Y-55011986D01*
X99366559Y-55198618D01*
X99424954Y-55378336D01*
X99498353Y-55522389D01*
X99510740Y-55546699D01*
X99621810Y-55699573D01*
X99755427Y-55833190D01*
X99908301Y-55944260D01*
X99987847Y-55984790D01*
X100076663Y-56030045D01*
X100076665Y-56030045D01*
X100076668Y-56030047D01*
X100172997Y-56061346D01*
X100256381Y-56088440D01*
X100443014Y-56118000D01*
X100443019Y-56118000D01*
X100631986Y-56118000D01*
X100818618Y-56088440D01*
X100853888Y-56076980D01*
X100998332Y-56030047D01*
X101166699Y-55944260D01*
X101319573Y-55833190D01*
X101453190Y-55699573D01*
X101564260Y-55546699D01*
X101650047Y-55378332D01*
X101708440Y-55198618D01*
X101719720Y-55127397D01*
X101738000Y-55011986D01*
X101738000Y-54823013D01*
X101708440Y-54636381D01*
X101650045Y-54456663D01*
X101604790Y-54367847D01*
X101564260Y-54288301D01*
X101453190Y-54135427D01*
X101319573Y-54001810D01*
X101166699Y-53890740D01*
X101144182Y-53879267D01*
X100998336Y-53804954D01*
X100818618Y-53746559D01*
X100631986Y-53717000D01*
X100631981Y-53717000D01*
X100443019Y-53717000D01*
X100443014Y-53717000D01*
X100256381Y-53746559D01*
X100076663Y-53804954D01*
X99908300Y-53890740D01*
X99868672Y-53919532D01*
X99755427Y-54001810D01*
X99755425Y-54001812D01*
X99755424Y-54001812D01*
X99621812Y-54135424D01*
X99621812Y-54135425D01*
X99621810Y-54135427D01*
X99598290Y-54167800D01*
X99510740Y-54288300D01*
X99424954Y-54456663D01*
X99366559Y-54636381D01*
X99337000Y-54823013D01*
X92480753Y-54823013D01*
X92475787Y-54772590D01*
X92445044Y-54618032D01*
X92416278Y-54523202D01*
X92355972Y-54377611D01*
X92309259Y-54290217D01*
X92307978Y-54288300D01*
X92221721Y-54159206D01*
X92221712Y-54159194D01*
X92221709Y-54159189D01*
X92158843Y-54082588D01*
X92047412Y-53971157D01*
X91970811Y-53908291D01*
X91970804Y-53908286D01*
X91970793Y-53908278D01*
X91839799Y-53820751D01*
X91839788Y-53820744D01*
X91839783Y-53820741D01*
X91810246Y-53804953D01*
X91774086Y-53785625D01*
X91724242Y-53736662D01*
X91708782Y-53668524D01*
X91732614Y-53602845D01*
X91776246Y-53565782D01*
X91861610Y-53522287D01*
X91950935Y-53457389D01*
X92027213Y-53401971D01*
X92027215Y-53401968D01*
X92027219Y-53401966D01*
X92171966Y-53257219D01*
X92171968Y-53257215D01*
X92171971Y-53257213D01*
X92224732Y-53184590D01*
X92292287Y-53091610D01*
X92385220Y-52909219D01*
X92448477Y-52714534D01*
X92480500Y-52512352D01*
X92480500Y-52307648D01*
X92454818Y-52145500D01*
X92448477Y-52105465D01*
X92385218Y-51910776D01*
X92344586Y-51831033D01*
X92292287Y-51728390D01*
X92259677Y-51683506D01*
X92171971Y-51562786D01*
X92027213Y-51418028D01*
X91861614Y-51297715D01*
X91855006Y-51294348D01*
X91768917Y-51250483D01*
X91718123Y-51202511D01*
X91701328Y-51134690D01*
X91723865Y-51068555D01*
X91768917Y-51029516D01*
X91861610Y-50982287D01*
X91941397Y-50924319D01*
X92027213Y-50861971D01*
X92027215Y-50861968D01*
X92027219Y-50861966D01*
X92171966Y-50717219D01*
X92173088Y-50715675D01*
X109012000Y-50715675D01*
X109012000Y-50924324D01*
X109044637Y-51130389D01*
X109109112Y-51328820D01*
X109154566Y-51418028D01*
X109203830Y-51514714D01*
X109326465Y-51683505D01*
X109473995Y-51831035D01*
X109642786Y-51953670D01*
X109730616Y-51998421D01*
X109828679Y-52048387D01*
X109828681Y-52048387D01*
X109828684Y-52048389D01*
X109935045Y-52082948D01*
X110027110Y-52112862D01*
X110233176Y-52145500D01*
X110233181Y-52145500D01*
X110441824Y-52145500D01*
X110647889Y-52112862D01*
X110670651Y-52105466D01*
X110846316Y-52048389D01*
X111032214Y-51953670D01*
X111201005Y-51831035D01*
X111348535Y-51683505D01*
X111471170Y-51514714D01*
X111565889Y-51328816D01*
X111630362Y-51130389D01*
X111663000Y-50924324D01*
X111663000Y-50715675D01*
X111630362Y-50509610D01*
X111565887Y-50311179D01*
X111471169Y-50125285D01*
X111348535Y-49956495D01*
X111201005Y-49808965D01*
X111032214Y-49686330D01*
X110846320Y-49591612D01*
X110647889Y-49527137D01*
X110441824Y-49494500D01*
X110441819Y-49494500D01*
X110233181Y-49494500D01*
X110233176Y-49494500D01*
X110027110Y-49527137D01*
X109828679Y-49591612D01*
X109642785Y-49686330D01*
X109473993Y-49808966D01*
X109326466Y-49956493D01*
X109203830Y-50125285D01*
X109109112Y-50311179D01*
X109044637Y-50509610D01*
X109012000Y-50715675D01*
X92173088Y-50715675D01*
X92292287Y-50551610D01*
X92385220Y-50369219D01*
X92448477Y-50174534D01*
X92480500Y-49972352D01*
X92480500Y-49767648D01*
X92448477Y-49565466D01*
X92436023Y-49527138D01*
X92385218Y-49370776D01*
X92351503Y-49304607D01*
X92292287Y-49188390D01*
X92284556Y-49177749D01*
X92171971Y-49022786D01*
X92027213Y-48878028D01*
X91861614Y-48757715D01*
X91855006Y-48754348D01*
X91768917Y-48710483D01*
X91718123Y-48662511D01*
X91701328Y-48594690D01*
X91723865Y-48528555D01*
X91768917Y-48489516D01*
X91861610Y-48442287D01*
X91905988Y-48410045D01*
X92027213Y-48321971D01*
X92027215Y-48321968D01*
X92027219Y-48321966D01*
X92171966Y-48177219D01*
X92171968Y-48177215D01*
X92171971Y-48177213D01*
X92242908Y-48079575D01*
X92292287Y-48011610D01*
X92385220Y-47829219D01*
X92448477Y-47634534D01*
X92480500Y-47432352D01*
X92480500Y-47227648D01*
X92476598Y-47203013D01*
X99337000Y-47203013D01*
X99337000Y-47391986D01*
X99366559Y-47578618D01*
X99424954Y-47758336D01*
X99510740Y-47926699D01*
X99621810Y-48079573D01*
X99755427Y-48213190D01*
X99908301Y-48324260D01*
X99987847Y-48364790D01*
X100076663Y-48410045D01*
X100076665Y-48410045D01*
X100076668Y-48410047D01*
X100172997Y-48441346D01*
X100256381Y-48468440D01*
X100443014Y-48498000D01*
X100443019Y-48498000D01*
X100631986Y-48498000D01*
X100818618Y-48468440D01*
X100864078Y-48453669D01*
X100998332Y-48410047D01*
X101166699Y-48324260D01*
X101319573Y-48213190D01*
X101453190Y-48079573D01*
X101564260Y-47926699D01*
X101650047Y-47758332D01*
X101708440Y-47578618D01*
X101738000Y-47391986D01*
X101738000Y-47215675D01*
X109012000Y-47215675D01*
X109012000Y-47424324D01*
X109044637Y-47630389D01*
X109109112Y-47828820D01*
X109158984Y-47926699D01*
X109203830Y-48014714D01*
X109326465Y-48183505D01*
X109473995Y-48331035D01*
X109642786Y-48453670D01*
X109729789Y-48498000D01*
X109828679Y-48548387D01*
X109828681Y-48548387D01*
X109828684Y-48548389D01*
X109935045Y-48582948D01*
X110027110Y-48612862D01*
X110233176Y-48645500D01*
X110233181Y-48645500D01*
X110441824Y-48645500D01*
X110647889Y-48612862D01*
X110846316Y-48548389D01*
X111032214Y-48453670D01*
X111201005Y-48331035D01*
X111348535Y-48183505D01*
X111471170Y-48014714D01*
X111565889Y-47828816D01*
X111630362Y-47630389D01*
X111661728Y-47432352D01*
X111663000Y-47424324D01*
X111663000Y-47215675D01*
X111630362Y-47009610D01*
X111574169Y-46836668D01*
X111565889Y-46811184D01*
X111565887Y-46811181D01*
X111565887Y-46811179D01*
X111493087Y-46668301D01*
X111471170Y-46625286D01*
X111348535Y-46456495D01*
X111201005Y-46308965D01*
X111032214Y-46186330D01*
X111029511Y-46184953D01*
X110846320Y-46091612D01*
X110647889Y-46027137D01*
X110441824Y-45994500D01*
X110441819Y-45994500D01*
X110233181Y-45994500D01*
X110233176Y-45994500D01*
X110027110Y-46027137D01*
X109828679Y-46091612D01*
X109642785Y-46186330D01*
X109473993Y-46308966D01*
X109326466Y-46456493D01*
X109203830Y-46625285D01*
X109109112Y-46811179D01*
X109044637Y-47009610D01*
X109012000Y-47215675D01*
X101738000Y-47215675D01*
X101738000Y-47203013D01*
X101708440Y-47016381D01*
X101650045Y-46836663D01*
X101564259Y-46668300D01*
X101453190Y-46515427D01*
X101319573Y-46381810D01*
X101166699Y-46270740D01*
X100998336Y-46184954D01*
X100818618Y-46126559D01*
X100631986Y-46097000D01*
X100631981Y-46097000D01*
X100443019Y-46097000D01*
X100443014Y-46097000D01*
X100256381Y-46126559D01*
X100076663Y-46184954D01*
X99908300Y-46270740D01*
X99821079Y-46334110D01*
X99755427Y-46381810D01*
X99755425Y-46381812D01*
X99755424Y-46381812D01*
X99621812Y-46515424D01*
X99621812Y-46515425D01*
X99621810Y-46515427D01*
X99574110Y-46581079D01*
X99510740Y-46668300D01*
X99424954Y-46836663D01*
X99366559Y-47016381D01*
X99337000Y-47203013D01*
X92476598Y-47203013D01*
X92448477Y-47025466D01*
X92445525Y-47016382D01*
X92419127Y-46935137D01*
X92385220Y-46830781D01*
X92385218Y-46830778D01*
X92385218Y-46830776D01*
X92351503Y-46764607D01*
X92292287Y-46648390D01*
X92275500Y-46625285D01*
X92171971Y-46482786D01*
X92027213Y-46338028D01*
X91861614Y-46217715D01*
X91800017Y-46186330D01*
X91768917Y-46170483D01*
X91718123Y-46122511D01*
X91701328Y-46054690D01*
X91723865Y-45988555D01*
X91768917Y-45949516D01*
X91861610Y-45902287D01*
X91882770Y-45886913D01*
X92027213Y-45781971D01*
X92027215Y-45781968D01*
X92027219Y-45781966D01*
X92171966Y-45637219D01*
X92171968Y-45637215D01*
X92171971Y-45637213D01*
X92224732Y-45564590D01*
X92292287Y-45471610D01*
X92385220Y-45289219D01*
X92448477Y-45094534D01*
X92480500Y-44892352D01*
X92480500Y-44687648D01*
X92448477Y-44485466D01*
X92385220Y-44290781D01*
X92385218Y-44290778D01*
X92385218Y-44290776D01*
X92351503Y-44224607D01*
X92292287Y-44108390D01*
X92284556Y-44097749D01*
X92171971Y-43942786D01*
X92027213Y-43798028D01*
X91861613Y-43677715D01*
X91861612Y-43677714D01*
X91861610Y-43677713D01*
X91804653Y-43648691D01*
X91679223Y-43584781D01*
X91484534Y-43521522D01*
X91309995Y-43493878D01*
X91282352Y-43489500D01*
X91077648Y-43489500D01*
X91053329Y-43493351D01*
X90875465Y-43521522D01*
X90680776Y-43584781D01*
X90498386Y-43677715D01*
X90332786Y-43798028D01*
X90188028Y-43942786D01*
X90067715Y-44108386D01*
X89974781Y-44290776D01*
X89911522Y-44485465D01*
X89879500Y-44687648D01*
X89879500Y-44892351D01*
X89911522Y-45094534D01*
X89974781Y-45289223D01*
X90067715Y-45471613D01*
X90188028Y-45637213D01*
X90332786Y-45781971D01*
X90487749Y-45894556D01*
X90498390Y-45902287D01*
X90589840Y-45948883D01*
X90591080Y-45949515D01*
X90641876Y-45997490D01*
X90658671Y-46065311D01*
X90636134Y-46131446D01*
X90591080Y-46170485D01*
X90498386Y-46217715D01*
X90332786Y-46338028D01*
X90188028Y-46482786D01*
X90067715Y-46648386D01*
X89974781Y-46830776D01*
X89911522Y-47025465D01*
X89879500Y-47227648D01*
X89879500Y-47432351D01*
X89911522Y-47634534D01*
X89974781Y-47829223D01*
X90067715Y-48011613D01*
X90188028Y-48177213D01*
X90332786Y-48321971D01*
X90454012Y-48410045D01*
X90498390Y-48442287D01*
X90589840Y-48488883D01*
X90591080Y-48489515D01*
X90641876Y-48537490D01*
X90658671Y-48605311D01*
X90636134Y-48671446D01*
X90591080Y-48710485D01*
X90498386Y-48757715D01*
X90332786Y-48878028D01*
X90188028Y-49022786D01*
X90067715Y-49188386D01*
X89974781Y-49370776D01*
X89911522Y-49565465D01*
X89879500Y-49767648D01*
X89879500Y-49972351D01*
X89911522Y-50174534D01*
X89974781Y-50369223D01*
X90038691Y-50494653D01*
X90067712Y-50551609D01*
X90067715Y-50551613D01*
X90188028Y-50717213D01*
X90332786Y-50861971D01*
X90487749Y-50974556D01*
X90498390Y-50982287D01*
X90589840Y-51028883D01*
X90591080Y-51029515D01*
X90641876Y-51077490D01*
X90658671Y-51145311D01*
X90636134Y-51211446D01*
X90591080Y-51250485D01*
X90498386Y-51297715D01*
X90332786Y-51418028D01*
X90188028Y-51562786D01*
X90067715Y-51728386D01*
X89974781Y-51910776D01*
X89911522Y-52105465D01*
X89879500Y-52307648D01*
X89879500Y-52512351D01*
X89911522Y-52714534D01*
X89974781Y-52909223D01*
X90067715Y-53091613D01*
X90188028Y-53257213D01*
X90332782Y-53401967D01*
X90332787Y-53401971D01*
X90409063Y-53457389D01*
X90451729Y-53512719D01*
X90457708Y-53582332D01*
X90425102Y-53644127D01*
X90366845Y-53677855D01*
X90346776Y-53682977D01*
X90346766Y-53682980D01*
X90273280Y-53713419D01*
X90273252Y-53713431D01*
X90224451Y-53736779D01*
X90224446Y-53736782D01*
X90109268Y-53823005D01*
X90109256Y-53823015D01*
X90053019Y-53879252D01*
X90016843Y-53919524D01*
X90016837Y-53919532D01*
X89943426Y-54043263D01*
X89912978Y-54116774D01*
X89912970Y-54116795D01*
X89894976Y-54167800D01*
X89874500Y-54310219D01*
X68801325Y-54310219D01*
X68801325Y-44687648D01*
X72099500Y-44687648D01*
X72099500Y-44892351D01*
X72131522Y-45094534D01*
X72194781Y-45289223D01*
X72287715Y-45471613D01*
X72408028Y-45637213D01*
X72552786Y-45781971D01*
X72707749Y-45894556D01*
X72718390Y-45902287D01*
X72809840Y-45948883D01*
X72811080Y-45949515D01*
X72861876Y-45997490D01*
X72878671Y-46065311D01*
X72856134Y-46131446D01*
X72811080Y-46170485D01*
X72718386Y-46217715D01*
X72552786Y-46338028D01*
X72408028Y-46482786D01*
X72287715Y-46648386D01*
X72194781Y-46830776D01*
X72131522Y-47025465D01*
X72099500Y-47227648D01*
X72099500Y-47432351D01*
X72131522Y-47634534D01*
X72194781Y-47829223D01*
X72287715Y-48011613D01*
X72408028Y-48177213D01*
X72552786Y-48321971D01*
X72674012Y-48410045D01*
X72718390Y-48442287D01*
X72809840Y-48488883D01*
X72811080Y-48489515D01*
X72861876Y-48537490D01*
X72878671Y-48605311D01*
X72856134Y-48671446D01*
X72811080Y-48710485D01*
X72718386Y-48757715D01*
X72552786Y-48878028D01*
X72408028Y-49022786D01*
X72287715Y-49188386D01*
X72194781Y-49370776D01*
X72131522Y-49565465D01*
X72099500Y-49767648D01*
X72099500Y-49972351D01*
X72131522Y-50174534D01*
X72194781Y-50369223D01*
X72258691Y-50494653D01*
X72287712Y-50551609D01*
X72287715Y-50551613D01*
X72408028Y-50717213D01*
X72552786Y-50861971D01*
X72707749Y-50974556D01*
X72718390Y-50982287D01*
X72809840Y-51028883D01*
X72811080Y-51029515D01*
X72861876Y-51077490D01*
X72878671Y-51145311D01*
X72856134Y-51211446D01*
X72811080Y-51250485D01*
X72718386Y-51297715D01*
X72552786Y-51418028D01*
X72408028Y-51562786D01*
X72287715Y-51728386D01*
X72194781Y-51910776D01*
X72131522Y-52105465D01*
X72099500Y-52307648D01*
X72099500Y-52512351D01*
X72131522Y-52714534D01*
X72194781Y-52909223D01*
X72287715Y-53091613D01*
X72408028Y-53257213D01*
X72552786Y-53401971D01*
X72705221Y-53512719D01*
X72718390Y-53522287D01*
X72803754Y-53565782D01*
X72900776Y-53615218D01*
X72900778Y-53615218D01*
X72900781Y-53615220D01*
X72989748Y-53644127D01*
X73095465Y-53678477D01*
X73123896Y-53682980D01*
X73297648Y-53710500D01*
X73297649Y-53710500D01*
X73502351Y-53710500D01*
X73502352Y-53710500D01*
X73704534Y-53678477D01*
X73899219Y-53615220D01*
X74081610Y-53522287D01*
X74174590Y-53454732D01*
X74247213Y-53401971D01*
X74247215Y-53401968D01*
X74247219Y-53401966D01*
X74391966Y-53257219D01*
X74391968Y-53257215D01*
X74391971Y-53257213D01*
X74444732Y-53184590D01*
X74512287Y-53091610D01*
X74605220Y-52909219D01*
X74668477Y-52714534D01*
X74700500Y-52512352D01*
X74700500Y-52307648D01*
X74674818Y-52145500D01*
X74668477Y-52105465D01*
X74605218Y-51910776D01*
X74564586Y-51831033D01*
X74512287Y-51728390D01*
X74479677Y-51683506D01*
X74391971Y-51562786D01*
X74247213Y-51418028D01*
X74081614Y-51297715D01*
X74075006Y-51294348D01*
X73988917Y-51250483D01*
X73938123Y-51202511D01*
X73921328Y-51134690D01*
X73943865Y-51068555D01*
X73988917Y-51029516D01*
X74081610Y-50982287D01*
X74161397Y-50924319D01*
X74247213Y-50861971D01*
X74247215Y-50861968D01*
X74247219Y-50861966D01*
X74391966Y-50717219D01*
X74391968Y-50717215D01*
X74391971Y-50717213D01*
X74444732Y-50644590D01*
X74512287Y-50551610D01*
X74605220Y-50369219D01*
X74668477Y-50174534D01*
X74700500Y-49972352D01*
X74700500Y-49767648D01*
X74668477Y-49565466D01*
X74656023Y-49527138D01*
X74605218Y-49370776D01*
X74571503Y-49304607D01*
X74512287Y-49188390D01*
X74504556Y-49177749D01*
X74391971Y-49022786D01*
X74247213Y-48878028D01*
X74081614Y-48757715D01*
X74075006Y-48754348D01*
X73988917Y-48710483D01*
X73938123Y-48662511D01*
X73921328Y-48594690D01*
X73943865Y-48528555D01*
X73988917Y-48489516D01*
X74081610Y-48442287D01*
X74125988Y-48410045D01*
X74247213Y-48321971D01*
X74247215Y-48321968D01*
X74247219Y-48321966D01*
X74391966Y-48177219D01*
X74391968Y-48177215D01*
X74391971Y-48177213D01*
X74462908Y-48079575D01*
X74512287Y-48011610D01*
X74605220Y-47829219D01*
X74668477Y-47634534D01*
X74700500Y-47432352D01*
X74700500Y-47227648D01*
X74668477Y-47025466D01*
X74665525Y-47016382D01*
X74639127Y-46935137D01*
X74605220Y-46830781D01*
X74605218Y-46830778D01*
X74605218Y-46830776D01*
X74571503Y-46764607D01*
X74512287Y-46648390D01*
X74495500Y-46625285D01*
X74391971Y-46482786D01*
X74247213Y-46338028D01*
X74081614Y-46217715D01*
X74020017Y-46186330D01*
X73988917Y-46170483D01*
X73938123Y-46122511D01*
X73921328Y-46054690D01*
X73943865Y-45988555D01*
X73988917Y-45949516D01*
X74081610Y-45902287D01*
X74102770Y-45886913D01*
X74247213Y-45781971D01*
X74247215Y-45781968D01*
X74247219Y-45781966D01*
X74391966Y-45637219D01*
X74391968Y-45637215D01*
X74391971Y-45637213D01*
X74444732Y-45564590D01*
X74512287Y-45471610D01*
X74605220Y-45289219D01*
X74668477Y-45094534D01*
X74700500Y-44892352D01*
X74700500Y-44687648D01*
X74668477Y-44485466D01*
X74605220Y-44290781D01*
X74605218Y-44290778D01*
X74605218Y-44290776D01*
X74571503Y-44224607D01*
X74512287Y-44108390D01*
X74504556Y-44097749D01*
X74391971Y-43942786D01*
X74247213Y-43798028D01*
X74081613Y-43677715D01*
X74081612Y-43677714D01*
X74081610Y-43677713D01*
X74024653Y-43648691D01*
X73899223Y-43584781D01*
X73704534Y-43521522D01*
X73529995Y-43493878D01*
X73502352Y-43489500D01*
X73297648Y-43489500D01*
X73273329Y-43493351D01*
X73095465Y-43521522D01*
X72900776Y-43584781D01*
X72718386Y-43677715D01*
X72552786Y-43798028D01*
X72408028Y-43942786D01*
X72287715Y-44108386D01*
X72194781Y-44290776D01*
X72131522Y-44485465D01*
X72099500Y-44687648D01*
X68801325Y-44687648D01*
X68801325Y-36513386D01*
X72099500Y-36513386D01*
X72099500Y-37826613D01*
X72105913Y-37897192D01*
X72156522Y-38059606D01*
X72244530Y-38205188D01*
X72364811Y-38325469D01*
X72364813Y-38325470D01*
X72364815Y-38325472D01*
X72510394Y-38413478D01*
X72597566Y-38440641D01*
X72655712Y-38479378D01*
X72683686Y-38543403D01*
X72672605Y-38612388D01*
X72633560Y-38659344D01*
X72552782Y-38718032D01*
X72408028Y-38862786D01*
X72287715Y-39028386D01*
X72194781Y-39210776D01*
X72131522Y-39405465D01*
X72099500Y-39607648D01*
X72099500Y-39812351D01*
X72131522Y-40014534D01*
X72194781Y-40209223D01*
X72287715Y-40391613D01*
X72408028Y-40557213D01*
X72552786Y-40701971D01*
X72663604Y-40782483D01*
X72718390Y-40822287D01*
X72834607Y-40881503D01*
X72900776Y-40915218D01*
X72900778Y-40915218D01*
X72900781Y-40915220D01*
X73005137Y-40949127D01*
X73095465Y-40978477D01*
X73196557Y-40994488D01*
X73297648Y-41010500D01*
X73297649Y-41010500D01*
X73502351Y-41010500D01*
X73502352Y-41010500D01*
X73704534Y-40978477D01*
X73899219Y-40915220D01*
X74081610Y-40822287D01*
X74174590Y-40754732D01*
X74247213Y-40701971D01*
X74247215Y-40701968D01*
X74247219Y-40701966D01*
X74391966Y-40557219D01*
X74391968Y-40557215D01*
X74391971Y-40557213D01*
X74444732Y-40484590D01*
X74512287Y-40391610D01*
X74605220Y-40209219D01*
X74668477Y-40014534D01*
X74700500Y-39812352D01*
X74700500Y-39607648D01*
X74668477Y-39405466D01*
X74605220Y-39210781D01*
X74605218Y-39210778D01*
X74605218Y-39210776D01*
X74571503Y-39144607D01*
X74512287Y-39028390D01*
X74504556Y-39017749D01*
X74391971Y-38862786D01*
X74247217Y-38718032D01*
X74247212Y-38718028D01*
X74166440Y-38659344D01*
X74123774Y-38604015D01*
X74117795Y-38534401D01*
X74150400Y-38472606D01*
X74202433Y-38440641D01*
X74289606Y-38413478D01*
X74435185Y-38325472D01*
X74555472Y-38205185D01*
X74643478Y-38059606D01*
X74694086Y-37897196D01*
X74700500Y-37826616D01*
X74700500Y-37067648D01*
X89879500Y-37067648D01*
X89879500Y-37272351D01*
X89911522Y-37474534D01*
X89974781Y-37669223D01*
X90038691Y-37794653D01*
X90054976Y-37826613D01*
X90067715Y-37851613D01*
X90188028Y-38017213D01*
X90332786Y-38161971D01*
X90487749Y-38274556D01*
X90498390Y-38282287D01*
X90583139Y-38325469D01*
X90591080Y-38329515D01*
X90641876Y-38377490D01*
X90658671Y-38445311D01*
X90636134Y-38511446D01*
X90591080Y-38550485D01*
X90498386Y-38597715D01*
X90332786Y-38718028D01*
X90188028Y-38862786D01*
X90067715Y-39028386D01*
X89974781Y-39210776D01*
X89911522Y-39405465D01*
X89879500Y-39607648D01*
X89879500Y-39812351D01*
X89911522Y-40014534D01*
X89974781Y-40209223D01*
X90067715Y-40391613D01*
X90188028Y-40557213D01*
X90332786Y-40701971D01*
X90443604Y-40782483D01*
X90498390Y-40822287D01*
X90614607Y-40881503D01*
X90680776Y-40915218D01*
X90680778Y-40915218D01*
X90680781Y-40915220D01*
X90785137Y-40949127D01*
X90875465Y-40978477D01*
X90976557Y-40994488D01*
X91077648Y-41010500D01*
X91077649Y-41010500D01*
X91282351Y-41010500D01*
X91282352Y-41010500D01*
X91484534Y-40978477D01*
X91679219Y-40915220D01*
X91861610Y-40822287D01*
X91954590Y-40754732D01*
X92027213Y-40701971D01*
X92027215Y-40701968D01*
X92027219Y-40701966D01*
X92171966Y-40557219D01*
X92171968Y-40557215D01*
X92171971Y-40557213D01*
X92224732Y-40484590D01*
X92292287Y-40391610D01*
X92385220Y-40209219D01*
X92448477Y-40014534D01*
X92480500Y-39812352D01*
X92480500Y-39607648D01*
X92448477Y-39405466D01*
X92385220Y-39210781D01*
X92385218Y-39210778D01*
X92385218Y-39210776D01*
X92351503Y-39144607D01*
X92292287Y-39028390D01*
X92284556Y-39017749D01*
X92171971Y-38862786D01*
X92027213Y-38718028D01*
X91970928Y-38677135D01*
X96282000Y-38677135D01*
X96282000Y-40722870D01*
X96282001Y-40722876D01*
X96288408Y-40782483D01*
X96338702Y-40917328D01*
X96338706Y-40917335D01*
X96424952Y-41032544D01*
X96424955Y-41032547D01*
X96540164Y-41118793D01*
X96540171Y-41118797D01*
X96675017Y-41169091D01*
X96675016Y-41169091D01*
X96681944Y-41169835D01*
X96734627Y-41175500D01*
X98780372Y-41175499D01*
X98839983Y-41169091D01*
X98974831Y-41118796D01*
X99090046Y-41032546D01*
X99176296Y-40917331D01*
X99226591Y-40782483D01*
X99233000Y-40722873D01*
X99232999Y-38677128D01*
X99226591Y-38617517D01*
X99219205Y-38597715D01*
X99176297Y-38482671D01*
X99176293Y-38482664D01*
X99090047Y-38367455D01*
X99090044Y-38367452D01*
X98974835Y-38281206D01*
X98974828Y-38281202D01*
X98839982Y-38230908D01*
X98839983Y-38230908D01*
X98780383Y-38224501D01*
X98780381Y-38224500D01*
X98780373Y-38224500D01*
X98780364Y-38224500D01*
X96734629Y-38224500D01*
X96734623Y-38224501D01*
X96675016Y-38230908D01*
X96540171Y-38281202D01*
X96540164Y-38281206D01*
X96424955Y-38367452D01*
X96424952Y-38367455D01*
X96338706Y-38482664D01*
X96338702Y-38482671D01*
X96288408Y-38617517D01*
X96283912Y-38659344D01*
X96282001Y-38677123D01*
X96282000Y-38677135D01*
X91970928Y-38677135D01*
X91861614Y-38597715D01*
X91855006Y-38594348D01*
X91768917Y-38550483D01*
X91718123Y-38502511D01*
X91701328Y-38434690D01*
X91723865Y-38368555D01*
X91768917Y-38329516D01*
X91861610Y-38282287D01*
X91882770Y-38266913D01*
X92027213Y-38161971D01*
X92027215Y-38161968D01*
X92027219Y-38161966D01*
X92171966Y-38017219D01*
X92171968Y-38017215D01*
X92171971Y-38017213D01*
X92259170Y-37897192D01*
X92292287Y-37851610D01*
X92385220Y-37669219D01*
X92448477Y-37474534D01*
X92480500Y-37272352D01*
X92480500Y-37067648D01*
X92448477Y-36865466D01*
X92385220Y-36670781D01*
X92385218Y-36670778D01*
X92385218Y-36670776D01*
X92351503Y-36604607D01*
X92292287Y-36488390D01*
X92284556Y-36477749D01*
X92171971Y-36322786D01*
X92027213Y-36178028D01*
X91861613Y-36057715D01*
X91861612Y-36057714D01*
X91861610Y-36057713D01*
X91776855Y-36014528D01*
X91679223Y-35964781D01*
X91484534Y-35901522D01*
X91309995Y-35873878D01*
X91282352Y-35869500D01*
X91077648Y-35869500D01*
X91053329Y-35873351D01*
X90875465Y-35901522D01*
X90680776Y-35964781D01*
X90498386Y-36057715D01*
X90332786Y-36178028D01*
X90188028Y-36322786D01*
X90067715Y-36488386D01*
X89974781Y-36670776D01*
X89911522Y-36865465D01*
X89879500Y-37067648D01*
X74700500Y-37067648D01*
X74700500Y-36513384D01*
X74694086Y-36442804D01*
X74643478Y-36280394D01*
X74555472Y-36134815D01*
X74555470Y-36134813D01*
X74555469Y-36134811D01*
X74435188Y-36014530D01*
X74289606Y-35926522D01*
X74127196Y-35875914D01*
X74127194Y-35875913D01*
X74127192Y-35875913D01*
X74077778Y-35871423D01*
X74056616Y-35869500D01*
X72743384Y-35869500D01*
X72724145Y-35871248D01*
X72672807Y-35875913D01*
X72510393Y-35926522D01*
X72364811Y-36014530D01*
X72244530Y-36134811D01*
X72156522Y-36280393D01*
X72105913Y-36442807D01*
X72099500Y-36513386D01*
X68801325Y-36513386D01*
X68801325Y-29709575D01*
X68801551Y-29702088D01*
X68819096Y-29412030D01*
X68820901Y-29397165D01*
X68872605Y-29115027D01*
X68876189Y-29100489D01*
X68961524Y-28826637D01*
X68966822Y-28812667D01*
X69084552Y-28551083D01*
X69091505Y-28537837D01*
X69131784Y-28471206D01*
X69239900Y-28292359D01*
X69248392Y-28280055D01*
X69425306Y-28054242D01*
X69435221Y-28043051D01*
X69638051Y-27840221D01*
X69649242Y-27830306D01*
X69875055Y-27653392D01*
X69887359Y-27644900D01*
X70132837Y-27496505D01*
X70146083Y-27489552D01*
X70407667Y-27371822D01*
X70421637Y-27366524D01*
X70695493Y-27281187D01*
X70710023Y-27277605D01*
X70992169Y-27225900D01*
X71007026Y-27224096D01*
X71297089Y-27206551D01*
X71304576Y-27206325D01*
X71366717Y-27206325D01*
X115234933Y-27206325D01*
X115297074Y-27206325D01*
X115304561Y-27206551D01*
G37*
%TD.AperFunction*%
%TD*%
M02*
