%TF.GenerationSoftware,KiCad,Pcbnew,10.0.3*%
%TF.CreationDate,2026-07-26T12:37:30-07:00*%
%TF.ProjectId,ANTS Temperature Board PCB,414e5453-2054-4656-9d70-657261747572,rev?*%
%TF.SameCoordinates,Original*%
%TF.FileFunction,Soldermask,Bot*%
%TF.FilePolarity,Negative*%
%FSLAX46Y46*%
G04 Gerber Fmt 4.6, Leading zero omitted, Abs format (unit mm)*
G04 Created by KiCad (PCBNEW 10.0.3) date 2026-07-26 12:37:30*
%MOMM*%
%LPD*%
G01*
G04 APERTURE LIST*
G04 Aperture macros list*
%AMRoundRect*
0 Rectangle with rounded corners*
0 $1 Rounding radius*
0 $2 $3 $4 $5 $6 $7 $8 $9 X,Y pos of 4 corners*
0 Add a 4 corners polygon primitive as box body*
4,1,4,$2,$3,$4,$5,$6,$7,$8,$9,$2,$3,0*
0 Add four circle primitives for the rounded corners*
1,1,$1+$1,$2,$3*
1,1,$1+$1,$4,$5*
1,1,$1+$1,$6,$7*
1,1,$1+$1,$8,$9*
0 Add four rect primitives between the rounded corners*
20,1,$1+$1,$2,$3,$4,$5,0*
20,1,$1+$1,$4,$5,$6,$7,0*
20,1,$1+$1,$6,$7,$8,$9,0*
20,1,$1+$1,$8,$9,$2,$3,0*%
%AMFreePoly0*
4,1,37,0.603843,0.796157,0.639018,0.796157,0.711114,0.766294,0.766294,0.711114,0.796157,0.639018,0.796157,0.603843,0.800000,0.600000,0.800000,-0.600000,0.796157,-0.603843,0.796157,-0.639018,0.766294,-0.711114,0.711114,-0.766294,0.639018,-0.796157,0.603843,-0.796157,0.600000,-0.800000,0.000000,-0.800000,0.000000,-0.796148,-0.078414,-0.796148,-0.232228,-0.765552,-0.377117,-0.705537,
-0.507515,-0.618408,-0.618408,-0.507515,-0.705537,-0.377117,-0.765552,-0.232228,-0.796148,-0.078414,-0.796148,0.078414,-0.765552,0.232228,-0.705537,0.377117,-0.618408,0.507515,-0.507515,0.618408,-0.377117,0.705537,-0.232228,0.765552,-0.078414,0.796148,0.000000,0.796148,0.000000,0.800000,0.600000,0.800000,0.603843,0.796157,0.603843,0.796157,$1*%
%AMFreePoly1*
4,1,37,0.000000,0.796148,0.078414,0.796148,0.232228,0.765552,0.377117,0.705537,0.507515,0.618408,0.618408,0.507515,0.705537,0.377117,0.765552,0.232228,0.796148,0.078414,0.796148,-0.078414,0.765552,-0.232228,0.705537,-0.377117,0.618408,-0.507515,0.507515,-0.618408,0.377117,-0.705537,0.232228,-0.765552,0.078414,-0.796148,0.000000,-0.796148,0.000000,-0.800000,-0.600000,-0.800000,
-0.603843,-0.796157,-0.639018,-0.796157,-0.711114,-0.766294,-0.766294,-0.711114,-0.796157,-0.639018,-0.796157,-0.603843,-0.800000,-0.600000,-0.800000,0.600000,-0.796157,0.603843,-0.796157,0.639018,-0.766294,0.711114,-0.711114,0.766294,-0.639018,0.796157,-0.603843,0.796157,-0.600000,0.800000,0.000000,0.800000,0.000000,0.796148,0.000000,0.796148,$1*%
G04 Aperture macros list end*
%ADD10R,2.000000X1.905000*%
%ADD11O,2.000000X1.905000*%
%ADD12RoundRect,0.200000X-0.600000X-0.600000X0.600000X-0.600000X0.600000X0.600000X-0.600000X0.600000X0*%
%ADD13C,1.600000*%
%ADD14FreePoly0,0.000000*%
%ADD15FreePoly1,0.000000*%
%ADD16C,1.400000*%
%ADD17C,0.800000*%
%ADD18C,5.400000*%
%ADD19RoundRect,0.102000X0.787500X-0.787500X0.787500X0.787500X-0.787500X0.787500X-0.787500X-0.787500X0*%
%ADD20C,1.779000*%
%ADD21RoundRect,0.102000X-0.975000X0.975000X-0.975000X-0.975000X0.975000X-0.975000X0.975000X0.975000X0*%
%ADD22C,2.154000*%
%ADD23RoundRect,0.102000X0.825000X-0.825000X0.825000X0.825000X-0.825000X0.825000X-0.825000X-0.825000X0*%
%ADD24C,1.854000*%
%ADD25RoundRect,0.102000X-0.975000X-0.975000X0.975000X-0.975000X0.975000X0.975000X-0.975000X0.975000X0*%
G04 APERTURE END LIST*
D10*
%TO.C,Q1*%
X103386675Y-65501675D03*
D11*
X103386675Y-62961675D03*
X103386675Y-60421675D03*
%TD*%
D12*
%TO.C,U1*%
X73400000Y-37170000D03*
D13*
X73400000Y-39710000D03*
D14*
X73400000Y-42250000D03*
D13*
X73400000Y-44790000D03*
X73400000Y-47330000D03*
X73400000Y-49870000D03*
X73400000Y-52410000D03*
D14*
X73400000Y-54950000D03*
D13*
X73400000Y-57490000D03*
X73400000Y-60030000D03*
X73400000Y-62570000D03*
X73400000Y-65110000D03*
D14*
X73400000Y-67650000D03*
D13*
X73400000Y-70190000D03*
X73400000Y-72730000D03*
X73400000Y-75270000D03*
X73400000Y-77810000D03*
D14*
X73400000Y-80350000D03*
D13*
X73400000Y-82890000D03*
X73400000Y-85430000D03*
X91180000Y-85430000D03*
X91180000Y-82890000D03*
D15*
X91180000Y-80350000D03*
D13*
X91180000Y-77810000D03*
X91180000Y-75270000D03*
X91180000Y-72730000D03*
X91180000Y-70190000D03*
D15*
X91180000Y-67650000D03*
D13*
X91180000Y-65110000D03*
X91180000Y-62570000D03*
X91180000Y-60030000D03*
X91180000Y-57490000D03*
D15*
X91180000Y-54950000D03*
D13*
X91180000Y-52410000D03*
X91180000Y-49870000D03*
X91180000Y-47330000D03*
X91180000Y-44790000D03*
D15*
X91180000Y-42250000D03*
D13*
X91180000Y-39710000D03*
X91180000Y-37170000D03*
%TD*%
D16*
%TO.C,R5*%
X100537500Y-47297500D03*
X100537500Y-54917500D03*
%TD*%
%TO.C,R7*%
X97510850Y-69948350D03*
X105130850Y-69948350D03*
%TD*%
D17*
%TO.C,H2*%
X111275000Y-31700000D03*
X111868109Y-30268109D03*
X111868109Y-33131891D03*
X113300000Y-29675000D03*
D18*
X113300000Y-31700000D03*
D17*
X113300000Y-33725000D03*
X114731891Y-30268109D03*
X114731891Y-33131891D03*
X115325000Y-31700000D03*
%TD*%
D16*
%TO.C,R1*%
X97586675Y-66794175D03*
X97586675Y-59174175D03*
%TD*%
D19*
%TO.C,J6*%
X100007500Y-82890000D03*
D20*
X100007500Y-85390000D03*
%TD*%
D21*
%TO.C,J3*%
X110286675Y-61271675D03*
D22*
X110286675Y-64771675D03*
%TD*%
D17*
%TO.C,H1*%
X71275000Y-31700000D03*
X71868109Y-30268109D03*
X71868109Y-33131891D03*
X73300000Y-29675000D03*
D18*
X73300000Y-31700000D03*
D17*
X73300000Y-33725000D03*
X74731891Y-30268109D03*
X74731891Y-33131891D03*
X75325000Y-31700000D03*
%TD*%
D19*
%TO.C,J7*%
X110047500Y-75430000D03*
D20*
X110047500Y-77930000D03*
%TD*%
D23*
%TO.C,J1*%
X110337500Y-54320000D03*
D24*
X110337500Y-50820000D03*
X110337500Y-47320000D03*
%TD*%
D25*
%TO.C,J5*%
X97757500Y-39700000D03*
D22*
X101257500Y-39700000D03*
%TD*%
D17*
%TO.C,H3*%
X71275000Y-91700000D03*
X71868109Y-90268109D03*
X71868109Y-93131891D03*
X73300000Y-89675000D03*
D18*
X73300000Y-91700000D03*
D17*
X73300000Y-93725000D03*
X74731891Y-90268109D03*
X74731891Y-93131891D03*
X75325000Y-91700000D03*
%TD*%
%TO.C,H4*%
X111275000Y-91700000D03*
X111868109Y-90268109D03*
X111868109Y-93131891D03*
X113300000Y-89675000D03*
D18*
X113300000Y-91700000D03*
D17*
X113300000Y-93725000D03*
X114731891Y-90268109D03*
X114731891Y-93131891D03*
X115325000Y-91700000D03*
%TD*%
M02*
