ISO-10303-21;
HEADER;
FILE_DESCRIPTION(('STEP AP214'),'1');
FILE_NAME('ss-5gl13.stp','2017-04-13T09:50:35',('TraceParts'),('TraceParts S.A.'),'Spatial InterOp 3D',' ',' ');
FILE_SCHEMA(('automotive_design'));
ENDSEC;
DATA;
#1=MECHANICAL_DESIGN_GEOMETRIC_PRESENTATION_REPRESENTATION(' ',(#10,#11,#12,#13,#14,#15,#16,#17,#18,#19,#20,#21,#22,#23,#24,#25,#26,#27,#28,#29,#30,#31,#32,#33,#34,#35,#36,#37,#38,#39,#40,#41,#42,#43,#44,#45,#46,#47,#48,#49,#50,#51,#52,#53,#54,#55,#56,#57,#58,#59,#60,#61,#62,#63,#64,#65,#66),#6);
#2=PRODUCT_DEFINITION_CONTEXT('',#67,'design');
#3=APPLICATION_PROTOCOL_DEFINITION('INTERNATIONAL STANDARD','automotive_design',1994,#67);
#4=PRODUCT_CATEGORY_RELATIONSHIP('NONE','NONE',#68,#69);
#5=SHAPE_DEFINITION_REPRESENTATION(#70,#71);
#6= (GEOMETRIC_REPRESENTATION_CONTEXT(3)GLOBAL_UNCERTAINTY_ASSIGNED_CONTEXT((#74))GLOBAL_UNIT_ASSIGNED_CONTEXT((#76,#77,#78))REPRESENTATION_CONTEXT('NONE','WORKSPACE'));
#10=STYLED_ITEM('',(#80),#81);
#11=STYLED_ITEM('',(#82),#83);
#12=STYLED_ITEM('',(#84),#85);
#13=STYLED_ITEM('',(#86),#87);
#14=STYLED_ITEM('',(#88),#89);
#15=STYLED_ITEM('',(#90),#91);
#16=STYLED_ITEM('',(#92),#93);
#17=STYLED_ITEM('',(#94),#95);
#18=STYLED_ITEM('',(#96),#97);
#19=STYLED_ITEM('',(#98),#99);
#20=STYLED_ITEM('',(#100),#101);
#21=STYLED_ITEM('',(#102),#103);
#22=STYLED_ITEM('',(#104),#105);
#23=STYLED_ITEM('',(#106),#107);
#24=STYLED_ITEM('',(#108),#109);
#25=STYLED_ITEM('',(#110),#111);
#26=STYLED_ITEM('',(#112),#113);
#27=STYLED_ITEM('',(#114),#115);
#28=STYLED_ITEM('',(#116),#117);
#29=STYLED_ITEM('',(#118),#119);
#30=STYLED_ITEM('',(#120),#121);
#31=STYLED_ITEM('',(#122),#123);
#32=STYLED_ITEM('',(#124),#125);
#33=STYLED_ITEM('',(#126),#127);
#34=STYLED_ITEM('',(#128),#129);
#35=STYLED_ITEM('',(#130),#131);
#36=STYLED_ITEM('',(#132),#133);
#37=STYLED_ITEM('',(#134),#135);
#38=STYLED_ITEM('',(#136),#137);
#39=STYLED_ITEM('',(#138),#139);
#40=STYLED_ITEM('',(#140),#141);
#41=STYLED_ITEM('',(#142),#143);
#42=STYLED_ITEM('',(#144),#145);
#43=STYLED_ITEM('',(#146),#147);
#44=STYLED_ITEM('',(#148),#149);
#45=STYLED_ITEM('',(#150),#151);
#46=STYLED_ITEM('',(#152),#153);
#47=STYLED_ITEM('',(#154),#155);
#48=STYLED_ITEM('',(#156),#157);
#49=STYLED_ITEM('',(#158),#159);
#50=STYLED_ITEM('',(#160),#161);
#51=STYLED_ITEM('',(#162),#163);
#52=STYLED_ITEM('',(#164),#165);
#53=STYLED_ITEM('',(#166),#167);
#54=STYLED_ITEM('',(#168),#169);
#55=STYLED_ITEM('',(#170),#171);
#56=STYLED_ITEM('',(#172),#173);
#57=STYLED_ITEM('',(#174),#175);
#58=STYLED_ITEM('',(#176),#177);
#59=STYLED_ITEM('',(#178),#179);
#60=STYLED_ITEM('',(#180),#181);
#61=STYLED_ITEM('',(#182),#183);
#62=STYLED_ITEM('',(#184),#185);
#63=STYLED_ITEM('',(#186),#187);
#64=STYLED_ITEM('',(#188),#189);
#65=STYLED_ITEM('',(#190),#191);
#66=STYLED_ITEM('',(#192),#193);
#67=APPLICATION_CONTEXT(' ');
#68=PRODUCT_CATEGORY('part','NONE');
#69=PRODUCT_RELATED_PRODUCT_CATEGORY('detail',' ',(#194));
#70=PRODUCT_DEFINITION_SHAPE('NONE','NONE',#195);
#71=ADVANCED_BREP_SHAPE_REPRESENTATION('ss-5gl13',(#196,#197),#6);
#74=UNCERTAINTY_MEASURE_WITH_UNIT(LENGTH_MEASURE(1.0E-006),#76,'','');
#76= (CONVERSION_BASED_UNIT('MILLIMETRE',#200)LENGTH_UNIT()NAMED_UNIT(#203));
#77= (NAMED_UNIT(#205)PLANE_ANGLE_UNIT()SI_UNIT($,.RADIAN.));
#78= (NAMED_UNIT(#205)SOLID_ANGLE_UNIT()SI_UNIT($,.STERADIAN.));
#80=PRESENTATION_STYLE_ASSIGNMENT((#211));
#81=ADVANCED_FACE('',(#212),#213,.F.);
#82=PRESENTATION_STYLE_ASSIGNMENT((#214));
#83=ADVANCED_FACE('',(#215),#216,.F.);
#84=PRESENTATION_STYLE_ASSIGNMENT((#217));
#85=ADVANCED_FACE('',(#218),#219,.F.);
#86=PRESENTATION_STYLE_ASSIGNMENT((#220));
#87=ADVANCED_FACE('',(#221),#222,.T.);
#88=PRESENTATION_STYLE_ASSIGNMENT((#223));
#89=ADVANCED_FACE('',(#224),#225,.F.);
#90=PRESENTATION_STYLE_ASSIGNMENT((#226));
#91=ADVANCED_FACE('',(#227),#228,.F.);
#92=PRESENTATION_STYLE_ASSIGNMENT((#229));
#93=ADVANCED_FACE('',(#230),#231,.F.);
#94=PRESENTATION_STYLE_ASSIGNMENT((#232));
#95=ADVANCED_FACE('',(#233),#234,.T.);
#96=PRESENTATION_STYLE_ASSIGNMENT((#235));
#97=ADVANCED_FACE('',(#236),#237,.F.);
#98=PRESENTATION_STYLE_ASSIGNMENT((#238));
#99=ADVANCED_FACE('',(#239),#240,.F.);
#100=PRESENTATION_STYLE_ASSIGNMENT((#241));
#101=ADVANCED_FACE('',(#242),#243,.F.);
#102=PRESENTATION_STYLE_ASSIGNMENT((#244));
#103=ADVANCED_FACE('',(#245),#246,.F.);
#104=PRESENTATION_STYLE_ASSIGNMENT((#247));
#105=ADVANCED_FACE('',(#248),#249,.T.);
#106=PRESENTATION_STYLE_ASSIGNMENT((#250));
#107=ADVANCED_FACE('',(#251),#252,.F.);
#108=PRESENTATION_STYLE_ASSIGNMENT((#253));
#109=ADVANCED_FACE('',(#254),#255,.F.);
#110=PRESENTATION_STYLE_ASSIGNMENT((#256));
#111=ADVANCED_FACE('',(#257),#258,.F.);
#112=PRESENTATION_STYLE_ASSIGNMENT((#259));
#113=ADVANCED_FACE('',(#260),#261,.F.);
#114=PRESENTATION_STYLE_ASSIGNMENT((#262));
#115=ADVANCED_FACE('',(#263),#264,.T.);
#116=PRESENTATION_STYLE_ASSIGNMENT((#265));
#117=ADVANCED_FACE('',(#266),#267,.F.);
#118=PRESENTATION_STYLE_ASSIGNMENT((#268));
#119=ADVANCED_FACE('',(#269),#270,.F.);
#120=PRESENTATION_STYLE_ASSIGNMENT((#271));
#121=ADVANCED_FACE('',(#272),#273,.F.);
#122=PRESENTATION_STYLE_ASSIGNMENT((#274));
#123=ADVANCED_FACE('',(#275),#276,.T.);
#124=PRESENTATION_STYLE_ASSIGNMENT((#277));
#125=ADVANCED_FACE('',(#278),#279,.F.);
#126=PRESENTATION_STYLE_ASSIGNMENT((#280));
#127=ADVANCED_FACE('',(#281),#282,.T.);
#128=PRESENTATION_STYLE_ASSIGNMENT((#283));
#129=ADVANCED_FACE('',(#284),#285,.T.);
#130=PRESENTATION_STYLE_ASSIGNMENT((#286));
#131=ADVANCED_FACE('',(#287),#288,.T.);
#132=PRESENTATION_STYLE_ASSIGNMENT((#289));
#133=ADVANCED_FACE('',(#290),#291,.T.);
#134=PRESENTATION_STYLE_ASSIGNMENT((#292));
#135=ADVANCED_FACE('',(#293),#294,.T.);
#136=PRESENTATION_STYLE_ASSIGNMENT((#295));
#137=ADVANCED_FACE('',(#296),#297,.T.);
#138=PRESENTATION_STYLE_ASSIGNMENT((#298));
#139=ADVANCED_FACE('',(#299),#300,.T.);
#140=PRESENTATION_STYLE_ASSIGNMENT((#301));
#141=ADVANCED_FACE('',(#302),#303,.T.);
#142=PRESENTATION_STYLE_ASSIGNMENT((#304));
#143=ADVANCED_FACE('',(#305),#306,.F.);
#144=PRESENTATION_STYLE_ASSIGNMENT((#307));
#145=ADVANCED_FACE('',(#308),#309,.T.);
#146=PRESENTATION_STYLE_ASSIGNMENT((#310));
#147=ADVANCED_FACE('',(#311),#312,.T.);
#148=PRESENTATION_STYLE_ASSIGNMENT((#313));
#149=ADVANCED_FACE('',(#314),#315,.T.);
#150=PRESENTATION_STYLE_ASSIGNMENT((#316));
#151=ADVANCED_FACE('',(#317),#318,.T.);
#152=PRESENTATION_STYLE_ASSIGNMENT((#319));
#153=ADVANCED_FACE('',(#320),#321,.T.);
#154=PRESENTATION_STYLE_ASSIGNMENT((#322));
#155=ADVANCED_FACE('',(#323),#324,.F.);
#156=PRESENTATION_STYLE_ASSIGNMENT((#325));
#157=ADVANCED_FACE('',(#326),#327,.T.);
#158=PRESENTATION_STYLE_ASSIGNMENT((#328));
#159=ADVANCED_FACE('',(#329),#330,.F.);
#160=PRESENTATION_STYLE_ASSIGNMENT((#331));
#161=ADVANCED_FACE('',(#332),#333,.F.);
#162=PRESENTATION_STYLE_ASSIGNMENT((#334));
#163=ADVANCED_FACE('',(#335,#336,#337),#338,.T.);
#164=PRESENTATION_STYLE_ASSIGNMENT((#339));
#165=ADVANCED_FACE('',(#340),#341,.T.);
#166=PRESENTATION_STYLE_ASSIGNMENT((#342));
#167=ADVANCED_FACE('',(#343),#344,.T.);
#168=PRESENTATION_STYLE_ASSIGNMENT((#345));
#169=ADVANCED_FACE('',(#346),#347,.T.);
#170=PRESENTATION_STYLE_ASSIGNMENT((#348));
#171=ADVANCED_FACE('',(#349,#350),#351,.T.);
#172=PRESENTATION_STYLE_ASSIGNMENT((#352));
#173=ADVANCED_FACE('',(#353),#354,.T.);
#174=PRESENTATION_STYLE_ASSIGNMENT((#355));
#175=ADVANCED_FACE('',(#356),#357,.T.);
#176=PRESENTATION_STYLE_ASSIGNMENT((#358));
#177=ADVANCED_FACE('',(#359),#360,.T.);
#178=PRESENTATION_STYLE_ASSIGNMENT((#361));
#179=ADVANCED_FACE('',(#362,#363),#364,.T.);
#180=PRESENTATION_STYLE_ASSIGNMENT((#365));
#181=ADVANCED_FACE('',(#366),#367,.T.);
#182=PRESENTATION_STYLE_ASSIGNMENT((#368));
#183=ADVANCED_FACE('',(#369),#370,.T.);
#184=PRESENTATION_STYLE_ASSIGNMENT((#371));
#185=ADVANCED_FACE('',(#372),#373,.T.);
#186=PRESENTATION_STYLE_ASSIGNMENT((#374));
#187=ADVANCED_FACE('',(#375,#376),#377,.T.);
#188=PRESENTATION_STYLE_ASSIGNMENT((#378));
#189=ADVANCED_FACE('',(#379),#380,.T.);
#190=PRESENTATION_STYLE_ASSIGNMENT((#381));
#191=ADVANCED_FACE('',(#382,#383,#384),#385,.T.);
#192=PRESENTATION_STYLE_ASSIGNMENT((#386));
#193=ADVANCED_FACE('',(#387,#388,#389),#390,.F.);
#194=PRODUCT('ss-5gl13','ss-5gl13','PART-ss-5gl13-DESC',(#391));
#195=PRODUCT_DEFINITION('NONE','NONE',#392,#2);
#196=MANIFOLD_SOLID_BREP('ss-5gl13',#393);
#197=AXIS2_PLACEMENT_3D('',#394,#395,#396);
#200=LENGTH_MEASURE_WITH_UNIT(LENGTH_MEASURE(1.0),#397);
#203=DIMENSIONAL_EXPONENTS(1.0,0.0,0.0,0.0,0.0,0.0,0.0);
#205=DIMENSIONAL_EXPONENTS(0.0,0.0,0.0,0.0,0.0,0.0,0.0);
#211=SURFACE_STYLE_USAGE(.BOTH.,#398);
#212=FACE_OUTER_BOUND('',#399,.T.);
#213=CYLINDRICAL_SURFACE('',#400,1.175);
#214=SURFACE_STYLE_USAGE(.BOTH.,#401);
#215=FACE_OUTER_BOUND('',#402,.T.);
#216=CYLINDRICAL_SURFACE('',#403,1.25);
#217=SURFACE_STYLE_USAGE(.BOTH.,#404);
#218=FACE_OUTER_BOUND('',#405,.T.);
#219=CYLINDRICAL_SURFACE('',#406,1.25);
#220=SURFACE_STYLE_USAGE(.BOTH.,#407);
#221=FACE_OUTER_BOUND('',#408,.T.);
#222=CYLINDRICAL_SURFACE('',#409,1.30000000000001);
#223=SURFACE_STYLE_USAGE(.BOTH.,#410);
#224=FACE_OUTER_BOUND('',#411,.T.);
#225=CYLINDRICAL_SURFACE('',#412,0.999999999999997);
#226=SURFACE_STYLE_USAGE(.BOTH.,#413);
#227=FACE_OUTER_BOUND('',#414,.T.);
#228=PLANE('',#415);
#229=SURFACE_STYLE_USAGE(.BOTH.,#416);
#230=FACE_OUTER_BOUND('',#417,.T.);
#231=PLANE('',#418);
#232=SURFACE_STYLE_USAGE(.BOTH.,#419);
#233=FACE_OUTER_BOUND('',#420,.T.);
#234=PLANE('',#421);
#235=SURFACE_STYLE_USAGE(.BOTH.,#422);
#236=FACE_OUTER_BOUND('',#423,.T.);
#237=PLANE('',#424);
#238=SURFACE_STYLE_USAGE(.BOTH.,#425);
#239=FACE_OUTER_BOUND('',#426,.T.);
#240=PLANE('',#427);
#241=SURFACE_STYLE_USAGE(.BOTH.,#428);
#242=FACE_OUTER_BOUND('',#429,.T.);
#243=PLANE('',#430);
#244=SURFACE_STYLE_USAGE(.BOTH.,#431);
#245=FACE_OUTER_BOUND('',#432,.T.);
#246=PLANE('',#433);
#247=SURFACE_STYLE_USAGE(.BOTH.,#434);
#248=FACE_OUTER_BOUND('',#435,.T.);
#249=PLANE('',#436);
#250=SURFACE_STYLE_USAGE(.BOTH.,#437);
#251=FACE_OUTER_BOUND('',#438,.T.);
#252=PLANE('',#439);
#253=SURFACE_STYLE_USAGE(.BOTH.,#440);
#254=FACE_OUTER_BOUND('',#441,.T.);
#255=PLANE('',#442);
#256=SURFACE_STYLE_USAGE(.BOTH.,#443);
#257=FACE_OUTER_BOUND('',#444,.T.);
#258=PLANE('',#445);
#259=SURFACE_STYLE_USAGE(.BOTH.,#446);
#260=FACE_OUTER_BOUND('',#447,.T.);
#261=PLANE('',#448);
#262=SURFACE_STYLE_USAGE(.BOTH.,#449);
#263=FACE_OUTER_BOUND('',#450,.T.);
#264=PLANE('',#451);
#265=SURFACE_STYLE_USAGE(.BOTH.,#452);
#266=FACE_OUTER_BOUND('',#453,.T.);
#267=PLANE('',#454);
#268=SURFACE_STYLE_USAGE(.BOTH.,#455);
#269=FACE_OUTER_BOUND('',#456,.T.);
#270=PLANE('',#457);
#271=SURFACE_STYLE_USAGE(.BOTH.,#458);
#272=FACE_OUTER_BOUND('',#459,.T.);
#273=PLANE('',#460);
#274=SURFACE_STYLE_USAGE(.BOTH.,#461);
#275=FACE_OUTER_BOUND('',#462,.T.);
#276=PLANE('',#463);
#277=SURFACE_STYLE_USAGE(.BOTH.,#464);
#278=FACE_OUTER_BOUND('',#465,.T.);
#279=CYLINDRICAL_SURFACE('',#466,0.999999999999997);
#280=SURFACE_STYLE_USAGE(.BOTH.,#467);
#281=FACE_OUTER_BOUND('',#468,.T.);
#282=PLANE('',#469);
#283=SURFACE_STYLE_USAGE(.BOTH.,#470);
#284=FACE_OUTER_BOUND('',#471,.T.);
#285=PLANE('',#472);
#286=SURFACE_STYLE_USAGE(.BOTH.,#473);
#287=FACE_OUTER_BOUND('',#474,.T.);
#288=PLANE('',#475);
#289=SURFACE_STYLE_USAGE(.BOTH.,#476);
#290=FACE_OUTER_BOUND('',#477,.T.);
#291=PLANE('',#478);
#292=SURFACE_STYLE_USAGE(.BOTH.,#479);
#293=FACE_OUTER_BOUND('',#480,.T.);
#294=PLANE('',#481);
#295=SURFACE_STYLE_USAGE(.BOTH.,#482);
#296=FACE_OUTER_BOUND('',#483,.T.);
#297=CYLINDRICAL_SURFACE('',#484,1.30000000000001);
#298=SURFACE_STYLE_USAGE(.BOTH.,#485);
#299=FACE_OUTER_BOUND('',#486,.T.);
#300=PLANE('',#487);
#301=SURFACE_STYLE_USAGE(.BOTH.,#488);
#302=FACE_OUTER_BOUND('',#489,.T.);
#303=PLANE('',#490);
#304=SURFACE_STYLE_USAGE(.BOTH.,#491);
#305=FACE_OUTER_BOUND('',#492,.T.);
#306=PLANE('',#493);
#307=SURFACE_STYLE_USAGE(.BOTH.,#494);
#308=FACE_OUTER_BOUND('',#495,.T.);
#309=PLANE('',#496);
#310=SURFACE_STYLE_USAGE(.BOTH.,#497);
#311=FACE_OUTER_BOUND('',#498,.T.);
#312=CYLINDRICAL_SURFACE('',#499,1.2);
#313=SURFACE_STYLE_USAGE(.BOTH.,#500);
#314=FACE_OUTER_BOUND('',#501,.T.);
#315=PLANE('',#502);
#316=SURFACE_STYLE_USAGE(.BOTH.,#503);
#317=FACE_OUTER_BOUND('',#504,.T.);
#318=PLANE('',#505);
#319=SURFACE_STYLE_USAGE(.BOTH.,#506);
#320=FACE_OUTER_BOUND('',#507,.T.);
#321=PLANE('',#508);
#322=SURFACE_STYLE_USAGE(.BOTH.,#509);
#323=FACE_OUTER_BOUND('',#510,.T.);
#324=CYLINDRICAL_SURFACE('',#511,1.25);
#325=SURFACE_STYLE_USAGE(.BOTH.,#512);
#326=FACE_OUTER_BOUND('',#513,.T.);
#327=PLANE('',#514);
#328=SURFACE_STYLE_USAGE(.BOTH.,#515);
#329=FACE_OUTER_BOUND('',#516,.T.);
#330=CYLINDRICAL_SURFACE('',#517,1.25);
#331=SURFACE_STYLE_USAGE(.BOTH.,#518);
#332=FACE_OUTER_BOUND('',#519,.T.);
#333=CYLINDRICAL_SURFACE('',#520,1.175);
#334=SURFACE_STYLE_USAGE(.BOTH.,#521);
#335=FACE_BOUND('',#522,.T.);
#336=FACE_BOUND('',#523,.T.);
#337=FACE_OUTER_BOUND('',#524,.T.);
#338=PLANE('',#525);
#339=SURFACE_STYLE_USAGE(.BOTH.,#526);
#340=FACE_OUTER_BOUND('',#527,.T.);
#341=PLANE('',#528);
#342=SURFACE_STYLE_USAGE(.BOTH.,#529);
#343=FACE_OUTER_BOUND('',#530,.T.);
#344=PLANE('',#531);
#345=SURFACE_STYLE_USAGE(.BOTH.,#532);
#346=FACE_OUTER_BOUND('',#533,.T.);
#347=PLANE('',#534);
#348=SURFACE_STYLE_USAGE(.BOTH.,#535);
#349=FACE_BOUND('',#536,.T.);
#350=FACE_OUTER_BOUND('',#537,.T.);
#351=PLANE('',#538);
#352=SURFACE_STYLE_USAGE(.BOTH.,#539);
#353=FACE_OUTER_BOUND('',#540,.T.);
#354=PLANE('',#541);
#355=SURFACE_STYLE_USAGE(.BOTH.,#542);
#356=FACE_OUTER_BOUND('',#543,.T.);
#357=PLANE('',#544);
#358=SURFACE_STYLE_USAGE(.BOTH.,#545);
#359=FACE_OUTER_BOUND('',#546,.T.);
#360=PLANE('',#547);
#361=SURFACE_STYLE_USAGE(.BOTH.,#548);
#362=FACE_BOUND('',#549,.T.);
#363=FACE_OUTER_BOUND('',#550,.T.);
#364=PLANE('',#551);
#365=SURFACE_STYLE_USAGE(.BOTH.,#552);
#366=FACE_OUTER_BOUND('',#553,.T.);
#367=PLANE('',#554);
#368=SURFACE_STYLE_USAGE(.BOTH.,#555);
#369=FACE_OUTER_BOUND('',#556,.T.);
#370=PLANE('',#557);
#371=SURFACE_STYLE_USAGE(.BOTH.,#558);
#372=FACE_OUTER_BOUND('',#559,.T.);
#373=PLANE('',#560);
#374=SURFACE_STYLE_USAGE(.BOTH.,#561);
#375=FACE_BOUND('',#562,.T.);
#376=FACE_OUTER_BOUND('',#563,.T.);
#377=PLANE('',#564);
#378=SURFACE_STYLE_USAGE(.BOTH.,#565);
#379=FACE_OUTER_BOUND('',#566,.T.);
#380=PLANE('',#567);
#381=SURFACE_STYLE_USAGE(.BOTH.,#568);
#382=FACE_BOUND('',#569,.T.);
#383=FACE_BOUND('',#570,.T.);
#384=FACE_OUTER_BOUND('',#571,.T.);
#385=PLANE('',#572);
#386=SURFACE_STYLE_USAGE(.BOTH.,#573);
#387=FACE_BOUND('',#574,.T.);
#388=FACE_BOUND('',#575,.T.);
#389=FACE_OUTER_BOUND('',#576,.T.);
#390=PLANE('',#577);
#391=PRODUCT_CONTEXT('',#67,'mechanical');
#392=PRODUCT_DEFINITION_FORMATION_WITH_SPECIFIED_SOURCE(' ','NONE',#194,.NOT_KNOWN.);
#393=CLOSED_SHELL('',(#81,#83,#85,#87,#89,#91,#93,#95,#97,#99,#101,#103,#105,#107,#109,#111,#113,#115,#117,#119,#121,#123,#125,#127,#129,#131,#133,#135,#137,#139,#141,#143,#145,#147,#149,#151,#153,#155,#157,#159,#161,#163,#165,#167,#169,#171,#173,#175,#177,#179,#181,#183,#185,#187,#189,#191,#193));
#394=CARTESIAN_POINT('',(0.0,0.0,0.0));
#395=DIRECTION('',(0.0,0.0,1.0));
#396=DIRECTION('',(1.0,0.0,0.0));
#397= (NAMED_UNIT(#203)LENGTH_UNIT()SI_UNIT(.MILLI.,.METRE.));
#398=SURFACE_SIDE_STYLE('',(#579));
#399=EDGE_LOOP('',(#580,#581,#582,#583));
#400=AXIS2_PLACEMENT_3D('',#584,#585,#586);
#401=SURFACE_SIDE_STYLE('',(#587));
#402=EDGE_LOOP('',(#588,#589,#590,#591));
#403=AXIS2_PLACEMENT_3D('',#592,#593,#594);
#404=SURFACE_SIDE_STYLE('',(#595));
#405=EDGE_LOOP('',(#596,#597,#598,#599));
#406=AXIS2_PLACEMENT_3D('',#600,#601,#602);
#407=SURFACE_SIDE_STYLE('',(#603));
#408=EDGE_LOOP('',(#604,#605,#606,#607));
#409=AXIS2_PLACEMENT_3D('',#608,#609,#610);
#410=SURFACE_SIDE_STYLE('',(#611));
#411=EDGE_LOOP('',(#612,#613,#614,#615));
#412=AXIS2_PLACEMENT_3D('',#616,#617,#618);
#413=SURFACE_SIDE_STYLE('',(#619));
#414=EDGE_LOOP('',(#620,#621,#622,#623));
#415=AXIS2_PLACEMENT_3D('',#624,#625,#626);
#416=SURFACE_SIDE_STYLE('',(#627));
#417=EDGE_LOOP('',(#628,#629,#630,#631));
#418=AXIS2_PLACEMENT_3D('',#632,#633,#634);
#419=SURFACE_SIDE_STYLE('',(#635));
#420=EDGE_LOOP('',(#636,#637,#638,#639));
#421=AXIS2_PLACEMENT_3D('',#640,#641,#642);
#422=SURFACE_SIDE_STYLE('',(#643));
#423=EDGE_LOOP('',(#644,#645,#646,#647));
#424=AXIS2_PLACEMENT_3D('',#648,#649,#650);
#425=SURFACE_SIDE_STYLE('',(#651));
#426=EDGE_LOOP('',(#652,#653,#654,#655));
#427=AXIS2_PLACEMENT_3D('',#656,#657,#658);
#428=SURFACE_SIDE_STYLE('',(#659));
#429=EDGE_LOOP('',(#660,#661,#662,#663));
#430=AXIS2_PLACEMENT_3D('',#664,#665,#666);
#431=SURFACE_SIDE_STYLE('',(#667));
#432=EDGE_LOOP('',(#668,#669,#670,#671));
#433=AXIS2_PLACEMENT_3D('',#672,#673,#674);
#434=SURFACE_SIDE_STYLE('',(#675));
#435=EDGE_LOOP('',(#676,#677,#678,#679));
#436=AXIS2_PLACEMENT_3D('',#680,#681,#682);
#437=SURFACE_SIDE_STYLE('',(#683));
#438=EDGE_LOOP('',(#684,#685,#686,#687));
#439=AXIS2_PLACEMENT_3D('',#688,#689,#690);
#440=SURFACE_SIDE_STYLE('',(#691));
#441=EDGE_LOOP('',(#692,#693,#694,#695));
#442=AXIS2_PLACEMENT_3D('',#696,#697,#698);
#443=SURFACE_SIDE_STYLE('',(#699));
#444=EDGE_LOOP('',(#700,#701,#702,#703));
#445=AXIS2_PLACEMENT_3D('',#704,#705,#706);
#446=SURFACE_SIDE_STYLE('',(#707));
#447=EDGE_LOOP('',(#708,#709,#710,#711));
#448=AXIS2_PLACEMENT_3D('',#712,#713,#714);
#449=SURFACE_SIDE_STYLE('',(#715));
#450=EDGE_LOOP('',(#716,#717,#718,#719));
#451=AXIS2_PLACEMENT_3D('',#720,#721,#722);
#452=SURFACE_SIDE_STYLE('',(#723));
#453=EDGE_LOOP('',(#724,#725,#726,#727));
#454=AXIS2_PLACEMENT_3D('',#728,#729,#730);
#455=SURFACE_SIDE_STYLE('',(#731));
#456=EDGE_LOOP('',(#732,#733,#734,#735));
#457=AXIS2_PLACEMENT_3D('',#736,#737,#738);
#458=SURFACE_SIDE_STYLE('',(#739));
#459=EDGE_LOOP('',(#740,#741,#742,#743,#744,#745,#746,#747,#748,#749,#750,#751));
#460=AXIS2_PLACEMENT_3D('',#752,#753,#754);
#461=SURFACE_SIDE_STYLE('',(#755));
#462=EDGE_LOOP('',(#756,#757,#758,#759));
#463=AXIS2_PLACEMENT_3D('',#760,#761,#762);
#464=SURFACE_SIDE_STYLE('',(#763));
#465=EDGE_LOOP('',(#764,#765,#766,#767));
#466=AXIS2_PLACEMENT_3D('',#768,#769,#770);
#467=SURFACE_SIDE_STYLE('',(#771));
#468=EDGE_LOOP('',(#772,#773,#774,#775));
#469=AXIS2_PLACEMENT_3D('',#776,#777,#778);
#470=SURFACE_SIDE_STYLE('',(#779));
#471=EDGE_LOOP('',(#780,#781,#782,#783));
#472=AXIS2_PLACEMENT_3D('',#784,#785,#786);
#473=SURFACE_SIDE_STYLE('',(#787));
#474=EDGE_LOOP('',(#788,#789,#790,#791));
#475=AXIS2_PLACEMENT_3D('',#792,#793,#794);
#476=SURFACE_SIDE_STYLE('',(#795));
#477=EDGE_LOOP('',(#796,#797,#798,#799));
#478=AXIS2_PLACEMENT_3D('',#800,#801,#802);
#479=SURFACE_SIDE_STYLE('',(#803));
#480=EDGE_LOOP('',(#804,#805,#806,#807));
#481=AXIS2_PLACEMENT_3D('',#808,#809,#810);
#482=SURFACE_SIDE_STYLE('',(#811));
#483=EDGE_LOOP('',(#812,#813,#814,#815));
#484=AXIS2_PLACEMENT_3D('',#816,#817,#818);
#485=SURFACE_SIDE_STYLE('',(#819));
#486=EDGE_LOOP('',(#820,#821,#822,#823));
#487=AXIS2_PLACEMENT_3D('',#824,#825,#826);
#488=SURFACE_SIDE_STYLE('',(#827));
#489=EDGE_LOOP('',(#828,#829,#830,#831,#832,#833,#834,#835,#836,#837,#838,#839));
#490=AXIS2_PLACEMENT_3D('',#840,#841,#842);
#491=SURFACE_SIDE_STYLE('',(#843));
#492=EDGE_LOOP('',(#844,#845,#846,#847));
#493=AXIS2_PLACEMENT_3D('',#848,#849,#850);
#494=SURFACE_SIDE_STYLE('',(#851));
#495=EDGE_LOOP('',(#852,#853,#854,#855));
#496=AXIS2_PLACEMENT_3D('',#856,#857,#858);
#497=SURFACE_SIDE_STYLE('',(#859));
#498=EDGE_LOOP('',(#860,#861,#862,#863));
#499=AXIS2_PLACEMENT_3D('',#864,#865,#866);
#500=SURFACE_SIDE_STYLE('',(#867));
#501=EDGE_LOOP('',(#868,#869,#870,#871));
#502=AXIS2_PLACEMENT_3D('',#872,#873,#874);
#503=SURFACE_SIDE_STYLE('',(#875));
#504=EDGE_LOOP('',(#876,#877,#878,#879));
#505=AXIS2_PLACEMENT_3D('',#880,#881,#882);
#506=SURFACE_SIDE_STYLE('',(#883));
#507=EDGE_LOOP('',(#884,#885,#886,#887));
#508=AXIS2_PLACEMENT_3D('',#888,#889,#890);
#509=SURFACE_SIDE_STYLE('',(#891));
#510=EDGE_LOOP('',(#892,#893,#894,#895));
#511=AXIS2_PLACEMENT_3D('',#896,#897,#898);
#512=SURFACE_SIDE_STYLE('',(#899));
#513=EDGE_LOOP('',(#900,#901,#902,#903));
#514=AXIS2_PLACEMENT_3D('',#904,#905,#906);
#515=SURFACE_SIDE_STYLE('',(#907));
#516=EDGE_LOOP('',(#908,#909,#910,#911));
#517=AXIS2_PLACEMENT_3D('',#912,#913,#914);
#518=SURFACE_SIDE_STYLE('',(#915));
#519=EDGE_LOOP('',(#916,#917,#918,#919));
#520=AXIS2_PLACEMENT_3D('',#920,#921,#922);
#521=SURFACE_SIDE_STYLE('',(#923));
#522=EDGE_LOOP('',(#924,#925,#926,#927));
#523=EDGE_LOOP('',(#928,#929,#930,#931));
#524=EDGE_LOOP('',(#932,#933,#934,#935));
#525=AXIS2_PLACEMENT_3D('',#936,#937,#938);
#526=SURFACE_SIDE_STYLE('',(#939));
#527=EDGE_LOOP('',(#940,#941,#942,#943));
#528=AXIS2_PLACEMENT_3D('',#944,#945,#946);
#529=SURFACE_SIDE_STYLE('',(#947));
#530=EDGE_LOOP('',(#948,#949,#950,#951));
#531=AXIS2_PLACEMENT_3D('',#952,#953,#954);
#532=SURFACE_SIDE_STYLE('',(#955));
#533=EDGE_LOOP('',(#956,#957,#958,#959));
#534=AXIS2_PLACEMENT_3D('',#960,#961,#962);
#535=SURFACE_SIDE_STYLE('',(#963));
#536=EDGE_LOOP('',(#964,#965,#966,#967));
#537=EDGE_LOOP('',(#968,#969,#970,#971));
#538=AXIS2_PLACEMENT_3D('',#972,#973,#974);
#539=SURFACE_SIDE_STYLE('',(#975));
#540=EDGE_LOOP('',(#976,#977,#978,#979));
#541=AXIS2_PLACEMENT_3D('',#980,#981,#982);
#542=SURFACE_SIDE_STYLE('',(#983));
#543=EDGE_LOOP('',(#984,#985,#986,#987));
#544=AXIS2_PLACEMENT_3D('',#988,#989,#990);
#545=SURFACE_SIDE_STYLE('',(#991));
#546=EDGE_LOOP('',(#992,#993,#994,#995));
#547=AXIS2_PLACEMENT_3D('',#996,#997,#998);
#548=SURFACE_SIDE_STYLE('',(#999));
#549=EDGE_LOOP('',(#1000,#1001,#1002,#1003));
#550=EDGE_LOOP('',(#1004,#1005,#1006,#1007));
#551=AXIS2_PLACEMENT_3D('',#1008,#1009,#1010);
#552=SURFACE_SIDE_STYLE('',(#1011));
#553=EDGE_LOOP('',(#1012,#1013,#1014,#1015));
#554=AXIS2_PLACEMENT_3D('',#1016,#1017,#1018);
#555=SURFACE_SIDE_STYLE('',(#1019));
#556=EDGE_LOOP('',(#1020,#1021,#1022,#1023));
#557=AXIS2_PLACEMENT_3D('',#1024,#1025,#1026);
#558=SURFACE_SIDE_STYLE('',(#1027));
#559=EDGE_LOOP('',(#1028,#1029,#1030,#1031));
#560=AXIS2_PLACEMENT_3D('',#1032,#1033,#1034);
#561=SURFACE_SIDE_STYLE('',(#1035));
#562=EDGE_LOOP('',(#1036,#1037,#1038,#1039));
#563=EDGE_LOOP('',(#1040,#1041,#1042,#1043));
#564=AXIS2_PLACEMENT_3D('',#1044,#1045,#1046);
#565=SURFACE_SIDE_STYLE('',(#1047));
#566=EDGE_LOOP('',(#1048,#1049,#1050,#1051));
#567=AXIS2_PLACEMENT_3D('',#1052,#1053,#1054);
#568=SURFACE_SIDE_STYLE('',(#1055));
#569=EDGE_LOOP('',(#1056,#1057,#1058,#1059,#1060,#1061));
#570=EDGE_LOOP('',(#1062,#1063));
#571=EDGE_LOOP('',(#1064,#1065,#1066,#1067,#1068,#1069,#1070,#1071,#1072,#1073,#1074,#1075,#1076,#1077));
#572=AXIS2_PLACEMENT_3D('',#1078,#1079,#1080);
#573=SURFACE_SIDE_STYLE('',(#1081));
#574=EDGE_LOOP('',(#1082,#1083,#1084,#1085,#1086,#1087));
#575=EDGE_LOOP('',(#1088,#1089));
#576=EDGE_LOOP('',(#1090,#1091,#1092,#1093,#1094,#1095,#1096,#1097,#1098,#1099,#1100,#1101,#1102,#1103));
#577=AXIS2_PLACEMENT_3D('',#1104,#1105,#1106);
#579=SURFACE_STYLE_FILL_AREA(#1107);
#580=ORIENTED_EDGE('',*,*,#1108,.F.);
#581=ORIENTED_EDGE('',*,*,#1109,.F.);
#582=ORIENTED_EDGE('',*,*,#1110,.F.);
#583=ORIENTED_EDGE('',*,*,#1111,.F.);
#584=CARTESIAN_POINT('',(4.7,2.9,0.0));
#585=DIRECTION('',(0.0,0.0,1.0));
#586=DIRECTION('',(1.0,0.0,0.0));
#587=SURFACE_STYLE_FILL_AREA(#1112);
#588=ORIENTED_EDGE('',*,*,#1113,.F.);
#589=ORIENTED_EDGE('',*,*,#1114,.F.);
#590=ORIENTED_EDGE('',*,*,#1115,.T.);
#591=ORIENTED_EDGE('',*,*,#1116,.F.);
#592=CARTESIAN_POINT('',(-4.8,2.9,0.0));
#593=DIRECTION('',(0.0,0.0,1.0));
#594=DIRECTION('',(1.0,0.0,0.0));
#595=SURFACE_STYLE_FILL_AREA(#1117);
#596=ORIENTED_EDGE('',*,*,#1118,.F.);
#597=ORIENTED_EDGE('',*,*,#1119,.F.);
#598=ORIENTED_EDGE('',*,*,#1120,.T.);
#599=ORIENTED_EDGE('',*,*,#1121,.F.);
#600=CARTESIAN_POINT('',(-4.8,2.9,0.0));
#601=DIRECTION('',(0.0,0.0,1.0));
#602=DIRECTION('',(1.0,0.0,0.0));
#603=SURFACE_STYLE_FILL_AREA(#1122);
#604=ORIENTED_EDGE('',*,*,#1123,.F.);
#605=ORIENTED_EDGE('',*,*,#1124,.T.);
#606=ORIENTED_EDGE('',*,*,#1125,.F.);
#607=ORIENTED_EDGE('',*,*,#1126,.T.);
#608=CARTESIAN_POINT('',(9.87707999744342,17.1,-1.8));
#609=DIRECTION('',(0.0,0.0,1.0));
#610=DIRECTION('',(1.0,0.0,0.0));
#611=SURFACE_STYLE_FILL_AREA(#1127);
#612=ORIENTED_EDGE('',*,*,#1128,.F.);
#613=ORIENTED_EDGE('',*,*,#1129,.T.);
#614=ORIENTED_EDGE('',*,*,#1130,.F.);
#615=ORIENTED_EDGE('',*,*,#1131,.F.);
#616=CARTESIAN_POINT('',(9.87707999744342,17.1,-1.8));
#617=DIRECTION('',(0.0,0.0,1.0));
#618=DIRECTION('',(1.0,0.0,0.0));
#619=SURFACE_STYLE_FILL_AREA(#1132);
#620=ORIENTED_EDGE('',*,*,#1133,.F.);
#621=ORIENTED_EDGE('',*,*,#1134,.F.);
#622=ORIENTED_EDGE('',*,*,#1135,.F.);
#623=ORIENTED_EDGE('',*,*,#1136,.F.);
#624=CARTESIAN_POINT('',(7.55,-1.0,0.0));
#625=DIRECTION('',(1.0,0.0,0.0));
#626=DIRECTION('',(0.0,0.0,-1.0));
#627=SURFACE_STYLE_FILL_AREA(#1137);
#628=ORIENTED_EDGE('',*,*,#1138,.F.);
#629=ORIENTED_EDGE('',*,*,#1139,.T.);
#630=ORIENTED_EDGE('',*,*,#1140,.T.);
#631=ORIENTED_EDGE('',*,*,#1134,.T.);
#632=CARTESIAN_POINT('',(7.8,-1.0,-1.6));
#633=DIRECTION('',(0.0,0.0,1.0));
#634=DIRECTION('',(1.0,0.0,0.0));
#635=SURFACE_STYLE_FILL_AREA(#1141);
#636=ORIENTED_EDGE('',*,*,#1142,.F.);
#637=ORIENTED_EDGE('',*,*,#1136,.T.);
#638=ORIENTED_EDGE('',*,*,#1143,.T.);
#639=ORIENTED_EDGE('',*,*,#1144,.T.);
#640=CARTESIAN_POINT('',(7.8,-1.0,1.6));
#641=DIRECTION('',(0.0,0.0,1.0));
#642=DIRECTION('',(1.0,0.0,0.0));
#643=SURFACE_STYLE_FILL_AREA(#1145);
#644=ORIENTED_EDGE('',*,*,#1135,.T.);
#645=ORIENTED_EDGE('',*,*,#1140,.F.);
#646=ORIENTED_EDGE('',*,*,#1146,.F.);
#647=ORIENTED_EDGE('',*,*,#1143,.F.);
#648=CARTESIAN_POINT('',(7.8,-3.5,0.0));
#649=DIRECTION('',(0.0,1.0,0.0));
#650=DIRECTION('',(0.0,0.0,1.0));
#651=SURFACE_STYLE_FILL_AREA(#1147);
#652=ORIENTED_EDGE('',*,*,#1148,.F.);
#653=ORIENTED_EDGE('',*,*,#1144,.F.);
#654=ORIENTED_EDGE('',*,*,#1146,.T.);
#655=ORIENTED_EDGE('',*,*,#1139,.F.);
#656=CARTESIAN_POINT('',(8.05,-1.0,0.0));
#657=DIRECTION('',(-1.0,0.0,0.0));
#658=DIRECTION('',(0.0,0.0,1.0));
#659=SURFACE_STYLE_FILL_AREA(#1149);
#660=ORIENTED_EDGE('',*,*,#1150,.F.);
#661=ORIENTED_EDGE('',*,*,#1151,.F.);
#662=ORIENTED_EDGE('',*,*,#1152,.F.);
#663=ORIENTED_EDGE('',*,*,#1153,.F.);
#664=CARTESIAN_POINT('',(0.25,-1.0,0.0));
#665=DIRECTION('',(1.0,0.0,0.0));
#666=DIRECTION('',(0.0,0.0,-1.0));
#667=SURFACE_STYLE_FILL_AREA(#1154);
#668=ORIENTED_EDGE('',*,*,#1155,.F.);
#669=ORIENTED_EDGE('',*,*,#1156,.T.);
#670=ORIENTED_EDGE('',*,*,#1157,.T.);
#671=ORIENTED_EDGE('',*,*,#1151,.T.);
#672=CARTESIAN_POINT('',(0.5,-1.0,-1.6));
#673=DIRECTION('',(0.0,0.0,1.0));
#674=DIRECTION('',(1.0,0.0,0.0));
#675=SURFACE_STYLE_FILL_AREA(#1158);
#676=ORIENTED_EDGE('',*,*,#1159,.F.);
#677=ORIENTED_EDGE('',*,*,#1153,.T.);
#678=ORIENTED_EDGE('',*,*,#1160,.T.);
#679=ORIENTED_EDGE('',*,*,#1161,.T.);
#680=CARTESIAN_POINT('',(0.5,-1.0,1.6));
#681=DIRECTION('',(0.0,0.0,1.0));
#682=DIRECTION('',(1.0,0.0,0.0));
#683=SURFACE_STYLE_FILL_AREA(#1162);
#684=ORIENTED_EDGE('',*,*,#1152,.T.);
#685=ORIENTED_EDGE('',*,*,#1157,.F.);
#686=ORIENTED_EDGE('',*,*,#1163,.F.);
#687=ORIENTED_EDGE('',*,*,#1160,.F.);
#688=CARTESIAN_POINT('',(0.5,-3.5,0.0));
#689=DIRECTION('',(0.0,1.0,0.0));
#690=DIRECTION('',(0.0,0.0,1.0));
#691=SURFACE_STYLE_FILL_AREA(#1164);
#692=ORIENTED_EDGE('',*,*,#1165,.F.);
#693=ORIENTED_EDGE('',*,*,#1161,.F.);
#694=ORIENTED_EDGE('',*,*,#1163,.T.);
#695=ORIENTED_EDGE('',*,*,#1156,.F.);
#696=CARTESIAN_POINT('',(0.75,-1.0,0.0));
#697=DIRECTION('',(-1.0,0.0,0.0));
#698=DIRECTION('',(0.0,0.0,1.0));
#699=SURFACE_STYLE_FILL_AREA(#1166);
#700=ORIENTED_EDGE('',*,*,#1167,.F.);
#701=ORIENTED_EDGE('',*,*,#1168,.F.);
#702=ORIENTED_EDGE('',*,*,#1169,.F.);
#703=ORIENTED_EDGE('',*,*,#1170,.F.);
#704=CARTESIAN_POINT('',(-8.55,-1.0,0.0));
#705=DIRECTION('',(1.0,0.0,0.0));
#706=DIRECTION('',(0.0,0.0,-1.0));
#707=SURFACE_STYLE_FILL_AREA(#1171);
#708=ORIENTED_EDGE('',*,*,#1172,.F.);
#709=ORIENTED_EDGE('',*,*,#1173,.T.);
#710=ORIENTED_EDGE('',*,*,#1174,.T.);
#711=ORIENTED_EDGE('',*,*,#1168,.T.);
#712=CARTESIAN_POINT('',(-8.3,-1.0,-1.6));
#713=DIRECTION('',(0.0,0.0,1.0));
#714=DIRECTION('',(1.0,0.0,0.0));
#715=SURFACE_STYLE_FILL_AREA(#1175);
#716=ORIENTED_EDGE('',*,*,#1176,.F.);
#717=ORIENTED_EDGE('',*,*,#1170,.T.);
#718=ORIENTED_EDGE('',*,*,#1177,.T.);
#719=ORIENTED_EDGE('',*,*,#1178,.T.);
#720=CARTESIAN_POINT('',(-8.3,-1.0,1.6));
#721=DIRECTION('',(0.0,0.0,1.0));
#722=DIRECTION('',(1.0,0.0,0.0));
#723=SURFACE_STYLE_FILL_AREA(#1179);
#724=ORIENTED_EDGE('',*,*,#1169,.T.);
#725=ORIENTED_EDGE('',*,*,#1174,.F.);
#726=ORIENTED_EDGE('',*,*,#1180,.F.);
#727=ORIENTED_EDGE('',*,*,#1177,.F.);
#728=CARTESIAN_POINT('',(-8.3,-3.5,0.0));
#729=DIRECTION('',(0.0,1.0,0.0));
#730=DIRECTION('',(0.0,0.0,1.0));
#731=SURFACE_STYLE_FILL_AREA(#1181);
#732=ORIENTED_EDGE('',*,*,#1182,.F.);
#733=ORIENTED_EDGE('',*,*,#1178,.F.);
#734=ORIENTED_EDGE('',*,*,#1180,.T.);
#735=ORIENTED_EDGE('',*,*,#1173,.F.);
#736=CARTESIAN_POINT('',(-8.05,-1.0,0.0));
#737=DIRECTION('',(-1.0,0.0,0.0));
#738=DIRECTION('',(0.0,0.0,1.0));
#739=SURFACE_STYLE_FILL_AREA(#1183);
#740=ORIENTED_EDGE('',*,*,#1184,.F.);
#741=ORIENTED_EDGE('',*,*,#1185,.F.);
#742=ORIENTED_EDGE('',*,*,#1186,.F.);
#743=ORIENTED_EDGE('',*,*,#1187,.F.);
#744=ORIENTED_EDGE('',*,*,#1188,.F.);
#745=ORIENTED_EDGE('',*,*,#1126,.F.);
#746=ORIENTED_EDGE('',*,*,#1189,.F.);
#747=ORIENTED_EDGE('',*,*,#1190,.T.);
#748=ORIENTED_EDGE('',*,*,#1131,.T.);
#749=ORIENTED_EDGE('',*,*,#1191,.F.);
#750=ORIENTED_EDGE('',*,*,#1192,.F.);
#751=ORIENTED_EDGE('',*,*,#1193,.F.);
#752=CARTESIAN_POINT('',(2.13327812599423,14.1985276120744,-1.8));
#753=DIRECTION('',(0.0,0.0,1.0));
#754=DIRECTION('',(1.0,0.0,0.0));
#755=SURFACE_STYLE_FILL_AREA(#1194);
#756=ORIENTED_EDGE('',*,*,#1195,.F.);
#757=ORIENTED_EDGE('',*,*,#1196,.T.);
#758=ORIENTED_EDGE('',*,*,#1197,.F.);
#759=ORIENTED_EDGE('',*,*,#1185,.T.);
#760=CARTESIAN_POINT('',(-7.09999999999997,10.6389589366761,-1.8));
#761=DIRECTION('',(-1.0,0.0,0.0));
#762=DIRECTION('',(0.0,-1.0,0.0));
#763=SURFACE_STYLE_FILL_AREA(#1198);
#764=ORIENTED_EDGE('',*,*,#1128,.T.);
#765=ORIENTED_EDGE('',*,*,#1190,.F.);
#766=ORIENTED_EDGE('',*,*,#1199,.T.);
#767=ORIENTED_EDGE('',*,*,#1200,.T.);
#768=CARTESIAN_POINT('',(9.87707999744342,17.1,-1.8));
#769=DIRECTION('',(0.0,0.0,1.0));
#770=DIRECTION('',(1.0,0.0,0.0));
#771=SURFACE_STYLE_FILL_AREA(#1201);
#772=ORIENTED_EDGE('',*,*,#1202,.T.);
#773=ORIENTED_EDGE('',*,*,#1203,.F.);
#774=ORIENTED_EDGE('',*,*,#1191,.T.);
#775=ORIENTED_EDGE('',*,*,#1130,.T.);
#776=CARTESIAN_POINT('',(9.05363697941361,16.3437317962138,-1.8));
#777=DIRECTION('',(0.961261695938321,0.275637355816993,0.0));
#778=DIRECTION('',(-0.275637355816993,0.961261695938321,0.0));
#779=SURFACE_STYLE_FILL_AREA(#1204);
#780=ORIENTED_EDGE('',*,*,#1205,.T.);
#781=ORIENTED_EDGE('',*,*,#1206,.F.);
#782=ORIENTED_EDGE('',*,*,#1192,.T.);
#783=ORIENTED_EDGE('',*,*,#1203,.T.);
#784=CARTESIAN_POINT('',(1.19572782866106,13.5703628875928,-1.8));
#785=DIRECTION('',(0.275637355816999,-0.961261695938319,0.0));
#786=DIRECTION('',(0.961261695938319,0.275637355816999,0.0));
#787=SURFACE_STYLE_FILL_AREA(#1207);
#788=ORIENTED_EDGE('',*,*,#1208,.F.);
#789=ORIENTED_EDGE('',*,*,#1193,.T.);
#790=ORIENTED_EDGE('',*,*,#1206,.T.);
#791=ORIENTED_EDGE('',*,*,#1209,.T.);
#792=CARTESIAN_POINT('',(-6.79999999999998,10.5259258291607,-1.8));
#793=DIRECTION('',(1.0,0.0,0.0));
#794=DIRECTION('',(0.0,1.0,0.0));
#795=SURFACE_STYLE_FILL_AREA(#1210);
#796=ORIENTED_EDGE('',*,*,#1211,.T.);
#797=ORIENTED_EDGE('',*,*,#1212,.F.);
#798=ORIENTED_EDGE('',*,*,#1186,.T.);
#799=ORIENTED_EDGE('',*,*,#1197,.T.);
#800=CARTESIAN_POINT('',(0.860192970897756,13.7862396461264,-1.8));
#801=DIRECTION('',(-0.275637355817001,0.961261695938318,0.0));
#802=DIRECTION('',(-0.961261695938318,-0.275637355817001,0.0));
#803=SURFACE_STYLE_FILL_AREA(#1213);
#804=ORIENTED_EDGE('',*,*,#1214,.T.);
#805=ORIENTED_EDGE('',*,*,#1215,.F.);
#806=ORIENTED_EDGE('',*,*,#1187,.T.);
#807=ORIENTED_EDGE('',*,*,#1212,.T.);
#808=CARTESIAN_POINT('',(8.72391286725955,16.4052298438595,-1.8));
#809=DIRECTION('',(-0.961261695938308,-0.275637355817037,0.0));
#810=DIRECTION('',(0.275637355817037,-0.961261695938308,0.0));
#811=SURFACE_STYLE_FILL_AREA(#1216);
#812=ORIENTED_EDGE('',*,*,#1123,.T.);
#813=ORIENTED_EDGE('',*,*,#1188,.T.);
#814=ORIENTED_EDGE('',*,*,#1215,.T.);
#815=ORIENTED_EDGE('',*,*,#1217,.T.);
#816=CARTESIAN_POINT('',(9.87707999744342,17.1,-1.8));
#817=DIRECTION('',(0.0,0.0,1.0));
#818=DIRECTION('',(1.0,0.0,0.0));
#819=SURFACE_STYLE_FILL_AREA(#1218);
#820=ORIENTED_EDGE('',*,*,#1219,.T.);
#821=ORIENTED_EDGE('',*,*,#1199,.F.);
#822=ORIENTED_EDGE('',*,*,#1189,.T.);
#823=ORIENTED_EDGE('',*,*,#1125,.T.);
#824=CARTESIAN_POINT('',(10.9825309477725,17.4169829591895,-1.8));
#825=DIRECTION('',(0.275637355817355,-0.961261695938217,0.0));
#826=DIRECTION('',(0.961261695938217,0.275637355817355,0.0));
#827=SURFACE_STYLE_FILL_AREA(#1220);
#828=ORIENTED_EDGE('',*,*,#1221,.F.);
#829=ORIENTED_EDGE('',*,*,#1209,.F.);
#830=ORIENTED_EDGE('',*,*,#1205,.F.);
#831=ORIENTED_EDGE('',*,*,#1202,.F.);
#832=ORIENTED_EDGE('',*,*,#1129,.F.);
#833=ORIENTED_EDGE('',*,*,#1200,.F.);
#834=ORIENTED_EDGE('',*,*,#1219,.F.);
#835=ORIENTED_EDGE('',*,*,#1124,.F.);
#836=ORIENTED_EDGE('',*,*,#1217,.F.);
#837=ORIENTED_EDGE('',*,*,#1214,.F.);
#838=ORIENTED_EDGE('',*,*,#1211,.F.);
#839=ORIENTED_EDGE('',*,*,#1196,.F.);
#840=CARTESIAN_POINT('',(2.13327812599423,14.1985276120744,1.8));
#841=DIRECTION('',(0.0,0.0,1.0));
#842=DIRECTION('',(1.0,0.0,0.0));
#843=SURFACE_STYLE_FILL_AREA(#1222);
#844=ORIENTED_EDGE('',*,*,#1223,.F.);
#845=ORIENTED_EDGE('',*,*,#1224,.T.);
#846=ORIENTED_EDGE('',*,*,#1225,.F.);
#847=ORIENTED_EDGE('',*,*,#1226,.T.);
#848=CARTESIAN_POINT('',(-2.80000000000001,10.0280016554963,-1.6));
#849=DIRECTION('',(0.0,0.0,1.0));
#850=DIRECTION('',(1.0,0.0,0.0));
#851=SURFACE_STYLE_FILL_AREA(#1227);
#852=ORIENTED_EDGE('',*,*,#1228,.F.);
#853=ORIENTED_EDGE('',*,*,#1229,.T.);
#854=ORIENTED_EDGE('',*,*,#1230,.F.);
#855=ORIENTED_EDGE('',*,*,#1224,.F.);
#856=CARTESIAN_POINT('',(-3.80000000000001,9.90110452246944,-1.6));
#857=DIRECTION('',(-1.0,-1.63001962914294E-016,0.0));
#858=DIRECTION('',(1.63001962914294E-016,-1.0,0.0));
#859=SURFACE_STYLE_FILL_AREA(#1231);
#860=ORIENTED_EDGE('',*,*,#1232,.T.);
#861=ORIENTED_EDGE('',*,*,#1233,.F.);
#862=ORIENTED_EDGE('',*,*,#1225,.T.);
#863=ORIENTED_EDGE('',*,*,#1230,.T.);
#864=CARTESIAN_POINT('',(-2.80000000000001,10.6,-1.6));
#865=DIRECTION('',(0.0,0.0,1.0));
#866=DIRECTION('',(1.0,0.0,0.0));
#867=SURFACE_STYLE_FILL_AREA(#1234);
#868=ORIENTED_EDGE('',*,*,#1235,.F.);
#869=ORIENTED_EDGE('',*,*,#1226,.F.);
#870=ORIENTED_EDGE('',*,*,#1233,.T.);
#871=ORIENTED_EDGE('',*,*,#1236,.T.);
#872=CARTESIAN_POINT('',(-1.80000000000001,9.90110452246944,-1.6));
#873=DIRECTION('',(1.0,0.0,0.0));
#874=DIRECTION('',(0.0,1.0,0.0));
#875=SURFACE_STYLE_FILL_AREA(#1237);
#876=ORIENTED_EDGE('',*,*,#1238,.F.);
#877=ORIENTED_EDGE('',*,*,#1236,.F.);
#878=ORIENTED_EDGE('',*,*,#1232,.F.);
#879=ORIENTED_EDGE('',*,*,#1229,.F.);
#880=CARTESIAN_POINT('',(-2.80000000000001,10.0280016554963,1.6));
#881=DIRECTION('',(0.0,0.0,1.0));
#882=DIRECTION('',(1.0,0.0,0.0));
#883=SURFACE_STYLE_FILL_AREA(#1239);
#884=ORIENTED_EDGE('',*,*,#1240,.F.);
#885=ORIENTED_EDGE('',*,*,#1241,.F.);
#886=ORIENTED_EDGE('',*,*,#1242,.F.);
#887=ORIENTED_EDGE('',*,*,#1243,.F.);
#888=CARTESIAN_POINT('',(-5.5,1.73,0.0));
#889=DIRECTION('',(0.0,1.0,0.0));
#890=DIRECTION('',(0.0,0.0,1.0));
#891=SURFACE_STYLE_FILL_AREA(#1244);
#892=ORIENTED_EDGE('',*,*,#1118,.T.);
#893=ORIENTED_EDGE('',*,*,#1245,.F.);
#894=ORIENTED_EDGE('',*,*,#1243,.T.);
#895=ORIENTED_EDGE('',*,*,#1246,.F.);
#896=CARTESIAN_POINT('',(-4.8,2.9,0.0));
#897=DIRECTION('',(0.0,0.0,1.0));
#898=DIRECTION('',(1.0,0.0,0.0));
#899=SURFACE_STYLE_FILL_AREA(#1247);
#900=ORIENTED_EDGE('',*,*,#1248,.F.);
#901=ORIENTED_EDGE('',*,*,#1120,.F.);
#902=ORIENTED_EDGE('',*,*,#1249,.F.);
#903=ORIENTED_EDGE('',*,*,#1115,.F.);
#904=CARTESIAN_POINT('',(-5.5,4.08,0.0));
#905=DIRECTION('',(0.0,-1.0,0.0));
#906=DIRECTION('',(0.0,0.0,-1.0));
#907=SURFACE_STYLE_FILL_AREA(#1250);
#908=ORIENTED_EDGE('',*,*,#1113,.T.);
#909=ORIENTED_EDGE('',*,*,#1251,.F.);
#910=ORIENTED_EDGE('',*,*,#1241,.T.);
#911=ORIENTED_EDGE('',*,*,#1252,.F.);
#912=CARTESIAN_POINT('',(-4.8,2.9,0.0));
#913=DIRECTION('',(0.0,0.0,1.0));
#914=DIRECTION('',(1.0,0.0,0.0));
#915=SURFACE_STYLE_FILL_AREA(#1253);
#916=ORIENTED_EDGE('',*,*,#1108,.T.);
#917=ORIENTED_EDGE('',*,*,#1254,.F.);
#918=ORIENTED_EDGE('',*,*,#1110,.T.);
#919=ORIENTED_EDGE('',*,*,#1255,.F.);
#920=CARTESIAN_POINT('',(4.7,2.9,0.0));
#921=DIRECTION('',(0.0,0.0,1.0));
#922=DIRECTION('',(1.0,0.0,0.0));
#923=SURFACE_STYLE_FILL_AREA(#1256);
#924=ORIENTED_EDGE('',*,*,#1195,.T.);
#925=ORIENTED_EDGE('',*,*,#1184,.T.);
#926=ORIENTED_EDGE('',*,*,#1208,.T.);
#927=ORIENTED_EDGE('',*,*,#1221,.T.);
#928=ORIENTED_EDGE('',*,*,#1228,.T.);
#929=ORIENTED_EDGE('',*,*,#1223,.T.);
#930=ORIENTED_EDGE('',*,*,#1235,.T.);
#931=ORIENTED_EDGE('',*,*,#1238,.T.);
#932=ORIENTED_EDGE('',*,*,#1257,.T.);
#933=ORIENTED_EDGE('',*,*,#1258,.F.);
#934=ORIENTED_EDGE('',*,*,#1259,.F.);
#935=ORIENTED_EDGE('',*,*,#1260,.T.);
#936=CARTESIAN_POINT('',(-5.40000000000001,10.6,-3.2));
#937=DIRECTION('',(0.0,1.0,0.0));
#938=DIRECTION('',(-1.0,0.0,0.0));
#939=SURFACE_STYLE_FILL_AREA(#1261);
#940=ORIENTED_EDGE('',*,*,#1262,.T.);
#941=ORIENTED_EDGE('',*,*,#1263,.F.);
#942=ORIENTED_EDGE('',*,*,#1264,.T.);
#943=ORIENTED_EDGE('',*,*,#1258,.T.);
#944=CARTESIAN_POINT('',(-0.550000000000008,10.05,-3.2));
#945=DIRECTION('',(0.843661487732108,0.536875492193158,0.0));
#946=DIRECTION('',(-0.536875492193158,0.843661487732108,0.0));
#947=SURFACE_STYLE_FILL_AREA(#1265);
#948=ORIENTED_EDGE('',*,*,#1266,.T.);
#949=ORIENTED_EDGE('',*,*,#1267,.F.);
#950=ORIENTED_EDGE('',*,*,#1268,.T.);
#951=ORIENTED_EDGE('',*,*,#1263,.T.);
#952=CARTESIAN_POINT('',(4.84999999999999,9.5,-3.2));
#953=DIRECTION('',(1.75876914792104E-016,1.0,0.0));
#954=DIRECTION('',(-1.0,1.75876914792104E-016,0.0));
#955=SURFACE_STYLE_FILL_AREA(#1269);
#956=ORIENTED_EDGE('',*,*,#1270,.T.);
#957=ORIENTED_EDGE('',*,*,#1271,.F.);
#958=ORIENTED_EDGE('',*,*,#1272,.T.);
#959=ORIENTED_EDGE('',*,*,#1267,.T.);
#960=CARTESIAN_POINT('',(9.89999999999999,4.95,-3.2));
#961=DIRECTION('',(1.0,0.0,0.0));
#962=DIRECTION('',(0.0,1.0,0.0));
#963=SURFACE_STYLE_FILL_AREA(#1273);
#964=ORIENTED_EDGE('',*,*,#1138,.T.);
#965=ORIENTED_EDGE('',*,*,#1133,.T.);
#966=ORIENTED_EDGE('',*,*,#1142,.T.);
#967=ORIENTED_EDGE('',*,*,#1148,.T.);
#968=ORIENTED_EDGE('',*,*,#1274,.T.);
#969=ORIENTED_EDGE('',*,*,#1275,.F.);
#970=ORIENTED_EDGE('',*,*,#1276,.F.);
#971=ORIENTED_EDGE('',*,*,#1271,.T.);
#972=CARTESIAN_POINT('',(8.19999999999999,0.400000000000001,-3.2));
#973=DIRECTION('',(-1.30614473485313E-016,-1.0,0.0));
#974=DIRECTION('',(1.0,-1.30614473485313E-016,0.0));
#975=SURFACE_STYLE_FILL_AREA(#1277);
#976=ORIENTED_EDGE('',*,*,#1278,.T.);
#977=ORIENTED_EDGE('',*,*,#1279,.F.);
#978=ORIENTED_EDGE('',*,*,#1280,.T.);
#979=ORIENTED_EDGE('',*,*,#1275,.T.);
#980=CARTESIAN_POINT('',(6.29999999999999,0.2,-3.2));
#981=DIRECTION('',(0.70710678118655,-0.707106781186545,0.0));
#982=DIRECTION('',(0.707106781186545,0.70710678118655,0.0));
#983=SURFACE_STYLE_FILL_AREA(#1281);
#984=ORIENTED_EDGE('',*,*,#1282,.T.);
#985=ORIENTED_EDGE('',*,*,#1283,.F.);
#986=ORIENTED_EDGE('',*,*,#1284,.F.);
#987=ORIENTED_EDGE('',*,*,#1279,.T.);
#988=CARTESIAN_POINT('',(4.69999999999999,1.71444889535133E-016,-3.2));
#989=DIRECTION('',(-1.22460635382238E-016,-1.0,0.0));
#990=DIRECTION('',(1.0,-1.22460635382238E-016,0.0));
#991=SURFACE_STYLE_FILL_AREA(#1285);
#992=ORIENTED_EDGE('',*,*,#1286,.T.);
#993=ORIENTED_EDGE('',*,*,#1287,.F.);
#994=ORIENTED_EDGE('',*,*,#1288,.T.);
#995=ORIENTED_EDGE('',*,*,#1283,.T.);
#996=CARTESIAN_POINT('',(3.09999999999999,0.2,-3.2));
#997=DIRECTION('',(-0.707106781186548,-0.707106781186547,0.0));
#998=DIRECTION('',(0.707106781186547,-0.707106781186548,0.0));
#999=SURFACE_STYLE_FILL_AREA(#1289);
#1000=ORIENTED_EDGE('',*,*,#1155,.T.);
#1001=ORIENTED_EDGE('',*,*,#1150,.T.);
#1002=ORIENTED_EDGE('',*,*,#1159,.T.);
#1003=ORIENTED_EDGE('',*,*,#1165,.T.);
#1004=ORIENTED_EDGE('',*,*,#1290,.T.);
#1005=ORIENTED_EDGE('',*,*,#1291,.F.);
#1006=ORIENTED_EDGE('',*,*,#1292,.T.);
#1007=ORIENTED_EDGE('',*,*,#1287,.T.);
#1008=CARTESIAN_POINT('',(-0.0500000000000056,0.4,-3.2));
#1009=DIRECTION('',(9.40866970021319E-018,-1.0,0.0));
#1010=DIRECTION('',(1.0,9.40866970021319E-018,0.0));
#1011=SURFACE_STYLE_FILL_AREA(#1293);
#1012=ORIENTED_EDGE('',*,*,#1294,.T.);
#1013=ORIENTED_EDGE('',*,*,#1295,.F.);
#1014=ORIENTED_EDGE('',*,*,#1296,.F.);
#1015=ORIENTED_EDGE('',*,*,#1291,.T.);
#1016=CARTESIAN_POINT('',(-3.20000000000001,0.2,-3.2));
#1017=DIRECTION('',(0.707106781186547,-0.707106781186547,0.0));
#1018=DIRECTION('',(0.707106781186548,0.707106781186548,0.0));
#1019=SURFACE_STYLE_FILL_AREA(#1297);
#1020=ORIENTED_EDGE('',*,*,#1298,.T.);
#1021=ORIENTED_EDGE('',*,*,#1299,.F.);
#1022=ORIENTED_EDGE('',*,*,#1300,.T.);
#1023=ORIENTED_EDGE('',*,*,#1295,.T.);
#1024=CARTESIAN_POINT('',(-4.80000000000001,0.0,-3.2));
#1025=DIRECTION('',(0.0,-1.0,0.0));
#1026=DIRECTION('',(1.0,0.0,0.0));
#1027=SURFACE_STYLE_FILL_AREA(#1301);
#1028=ORIENTED_EDGE('',*,*,#1302,.T.);
#1029=ORIENTED_EDGE('',*,*,#1303,.F.);
#1030=ORIENTED_EDGE('',*,*,#1304,.F.);
#1031=ORIENTED_EDGE('',*,*,#1299,.T.);
#1032=CARTESIAN_POINT('',(-6.40000000000001,0.2,-3.2));
#1033=DIRECTION('',(-0.707106781186547,-0.707106781186547,0.0));
#1034=DIRECTION('',(0.707106781186548,-0.707106781186548,0.0));
#1035=SURFACE_STYLE_FILL_AREA(#1305);
#1036=ORIENTED_EDGE('',*,*,#1172,.T.);
#1037=ORIENTED_EDGE('',*,*,#1167,.T.);
#1038=ORIENTED_EDGE('',*,*,#1176,.T.);
#1039=ORIENTED_EDGE('',*,*,#1182,.T.);
#1040=ORIENTED_EDGE('',*,*,#1306,.T.);
#1041=ORIENTED_EDGE('',*,*,#1307,.F.);
#1042=ORIENTED_EDGE('',*,*,#1308,.T.);
#1043=ORIENTED_EDGE('',*,*,#1303,.T.);
#1044=CARTESIAN_POINT('',(-8.25000000000001,0.4,-3.2));
#1045=DIRECTION('',(0.0,-1.0,0.0));
#1046=DIRECTION('',(1.0,0.0,0.0));
#1047=SURFACE_STYLE_FILL_AREA(#1309);
#1048=ORIENTED_EDGE('',*,*,#1310,.T.);
#1049=ORIENTED_EDGE('',*,*,#1260,.F.);
#1050=ORIENTED_EDGE('',*,*,#1311,.F.);
#1051=ORIENTED_EDGE('',*,*,#1307,.T.);
#1052=CARTESIAN_POINT('',(-9.90000000000001,5.5,-3.2));
#1053=DIRECTION('',(-1.0,-0.0,0.0));
#1054=DIRECTION('',(0.0,-1.0,-0.0));
#1055=SURFACE_STYLE_FILL_AREA(#1312);
#1056=ORIENTED_EDGE('',*,*,#1248,.T.);
#1057=ORIENTED_EDGE('',*,*,#1114,.T.);
#1058=ORIENTED_EDGE('',*,*,#1252,.T.);
#1059=ORIENTED_EDGE('',*,*,#1240,.T.);
#1060=ORIENTED_EDGE('',*,*,#1245,.T.);
#1061=ORIENTED_EDGE('',*,*,#1121,.T.);
#1062=ORIENTED_EDGE('',*,*,#1109,.T.);
#1063=ORIENTED_EDGE('',*,*,#1255,.T.);
#1064=ORIENTED_EDGE('',*,*,#1257,.F.);
#1065=ORIENTED_EDGE('',*,*,#1310,.F.);
#1066=ORIENTED_EDGE('',*,*,#1306,.F.);
#1067=ORIENTED_EDGE('',*,*,#1302,.F.);
#1068=ORIENTED_EDGE('',*,*,#1298,.F.);
#1069=ORIENTED_EDGE('',*,*,#1294,.F.);
#1070=ORIENTED_EDGE('',*,*,#1290,.F.);
#1071=ORIENTED_EDGE('',*,*,#1286,.F.);
#1072=ORIENTED_EDGE('',*,*,#1282,.F.);
#1073=ORIENTED_EDGE('',*,*,#1278,.F.);
#1074=ORIENTED_EDGE('',*,*,#1274,.F.);
#1075=ORIENTED_EDGE('',*,*,#1270,.F.);
#1076=ORIENTED_EDGE('',*,*,#1266,.F.);
#1077=ORIENTED_EDGE('',*,*,#1262,.F.);
#1078=CARTESIAN_POINT('',(-0.187068118905835,5.17049720789187,3.2));
#1079=DIRECTION('',(0.0,0.0,1.0));
#1080=DIRECTION('',(1.0,0.0,0.0));
#1081=SURFACE_STYLE_FILL_AREA(#1313);
#1082=ORIENTED_EDGE('',*,*,#1249,.T.);
#1083=ORIENTED_EDGE('',*,*,#1119,.T.);
#1084=ORIENTED_EDGE('',*,*,#1246,.T.);
#1085=ORIENTED_EDGE('',*,*,#1242,.T.);
#1086=ORIENTED_EDGE('',*,*,#1251,.T.);
#1087=ORIENTED_EDGE('',*,*,#1116,.T.);
#1088=ORIENTED_EDGE('',*,*,#1254,.T.);
#1089=ORIENTED_EDGE('',*,*,#1111,.T.);
#1090=ORIENTED_EDGE('',*,*,#1311,.T.);
#1091=ORIENTED_EDGE('',*,*,#1259,.T.);
#1092=ORIENTED_EDGE('',*,*,#1264,.F.);
#1093=ORIENTED_EDGE('',*,*,#1268,.F.);
#1094=ORIENTED_EDGE('',*,*,#1272,.F.);
#1095=ORIENTED_EDGE('',*,*,#1276,.T.);
#1096=ORIENTED_EDGE('',*,*,#1280,.F.);
#1097=ORIENTED_EDGE('',*,*,#1284,.T.);
#1098=ORIENTED_EDGE('',*,*,#1288,.F.);
#1099=ORIENTED_EDGE('',*,*,#1292,.F.);
#1100=ORIENTED_EDGE('',*,*,#1296,.T.);
#1101=ORIENTED_EDGE('',*,*,#1300,.F.);
#1102=ORIENTED_EDGE('',*,*,#1304,.T.);
#1103=ORIENTED_EDGE('',*,*,#1308,.F.);
#1104=CARTESIAN_POINT('',(-0.187068118905835,5.17049720789187,-3.2));
#1105=DIRECTION('',(0.0,0.0,1.0));
#1106=DIRECTION('',(1.0,0.0,0.0));
#1107=FILL_AREA_STYLE('',(#1314));
#1108=EDGE_CURVE('',#1315,#1316,#1317,.T.);
#1109=EDGE_CURVE('',#1318,#1315,#1319,.T.);
#1110=EDGE_CURVE('',#1320,#1318,#1321,.T.);
#1111=EDGE_CURVE('',#1316,#1320,#1322,.T.);
#1112=FILL_AREA_STYLE('',(#1323));
#1113=EDGE_CURVE('',#1324,#1325,#1326,.T.);
#1114=EDGE_CURVE('',#1327,#1324,#1328,.T.);
#1115=EDGE_CURVE('',#1327,#1329,#1330,.T.);
#1116=EDGE_CURVE('',#1325,#1329,#1331,.T.);
#1117=FILL_AREA_STYLE('',(#1332));
#1118=EDGE_CURVE('',#1333,#1334,#1335,.T.);
#1119=EDGE_CURVE('',#1336,#1333,#1337,.T.);
#1120=EDGE_CURVE('',#1336,#1338,#1339,.T.);
#1121=EDGE_CURVE('',#1334,#1338,#1340,.T.);
#1122=FILL_AREA_STYLE('',(#1341));
#1123=EDGE_CURVE('',#1342,#1343,#1344,.T.);
#1124=EDGE_CURVE('',#1342,#1345,#1346,.T.);
#1125=EDGE_CURVE('',#1347,#1345,#1348,.T.);
#1126=EDGE_CURVE('',#1347,#1343,#1349,.T.);
#1127=FILL_AREA_STYLE('',(#1350));
#1128=EDGE_CURVE('',#1351,#1352,#1353,.T.);
#1129=EDGE_CURVE('',#1351,#1354,#1355,.T.);
#1130=EDGE_CURVE('',#1356,#1354,#1357,.T.);
#1131=EDGE_CURVE('',#1352,#1356,#1358,.T.);
#1132=FILL_AREA_STYLE('',(#1359));
#1133=EDGE_CURVE('',#1360,#1361,#1362,.T.);
#1134=EDGE_CURVE('',#1363,#1360,#1364,.T.);
#1135=EDGE_CURVE('',#1365,#1363,#1366,.T.);
#1136=EDGE_CURVE('',#1361,#1365,#1367,.T.);
#1137=FILL_AREA_STYLE('',(#1368));
#1138=EDGE_CURVE('',#1369,#1360,#1370,.T.);
#1139=EDGE_CURVE('',#1369,#1371,#1372,.T.);
#1140=EDGE_CURVE('',#1371,#1363,#1373,.T.);
#1141=FILL_AREA_STYLE('',(#1374));
#1142=EDGE_CURVE('',#1361,#1375,#1376,.T.);
#1143=EDGE_CURVE('',#1365,#1377,#1378,.T.);
#1144=EDGE_CURVE('',#1377,#1375,#1379,.T.);
#1145=FILL_AREA_STYLE('',(#1380));
#1146=EDGE_CURVE('',#1377,#1371,#1381,.T.);
#1147=FILL_AREA_STYLE('',(#1382));
#1148=EDGE_CURVE('',#1375,#1369,#1383,.T.);
#1149=FILL_AREA_STYLE('',(#1384));
#1150=EDGE_CURVE('',#1385,#1386,#1387,.T.);
#1151=EDGE_CURVE('',#1388,#1385,#1389,.T.);
#1152=EDGE_CURVE('',#1390,#1388,#1391,.T.);
#1153=EDGE_CURVE('',#1386,#1390,#1392,.T.);
#1154=FILL_AREA_STYLE('',(#1393));
#1155=EDGE_CURVE('',#1394,#1385,#1395,.T.);
#1156=EDGE_CURVE('',#1394,#1396,#1397,.T.);
#1157=EDGE_CURVE('',#1396,#1388,#1398,.T.);
#1158=FILL_AREA_STYLE('',(#1399));
#1159=EDGE_CURVE('',#1386,#1400,#1401,.T.);
#1160=EDGE_CURVE('',#1390,#1402,#1403,.T.);
#1161=EDGE_CURVE('',#1402,#1400,#1404,.T.);
#1162=FILL_AREA_STYLE('',(#1405));
#1163=EDGE_CURVE('',#1402,#1396,#1406,.T.);
#1164=FILL_AREA_STYLE('',(#1407));
#1165=EDGE_CURVE('',#1400,#1394,#1408,.T.);
#1166=FILL_AREA_STYLE('',(#1409));
#1167=EDGE_CURVE('',#1410,#1411,#1412,.T.);
#1168=EDGE_CURVE('',#1413,#1410,#1414,.T.);
#1169=EDGE_CURVE('',#1415,#1413,#1416,.T.);
#1170=EDGE_CURVE('',#1411,#1415,#1417,.T.);
#1171=FILL_AREA_STYLE('',(#1418));
#1172=EDGE_CURVE('',#1419,#1410,#1420,.T.);
#1173=EDGE_CURVE('',#1419,#1421,#1422,.T.);
#1174=EDGE_CURVE('',#1421,#1413,#1423,.T.);
#1175=FILL_AREA_STYLE('',(#1424));
#1176=EDGE_CURVE('',#1411,#1425,#1426,.T.);
#1177=EDGE_CURVE('',#1415,#1427,#1428,.T.);
#1178=EDGE_CURVE('',#1427,#1425,#1429,.T.);
#1179=FILL_AREA_STYLE('',(#1430));
#1180=EDGE_CURVE('',#1427,#1421,#1431,.T.);
#1181=FILL_AREA_STYLE('',(#1432));
#1182=EDGE_CURVE('',#1425,#1419,#1433,.T.);
#1183=FILL_AREA_STYLE('',(#1434));
#1184=EDGE_CURVE('',#1435,#1436,#1437,.T.);
#1185=EDGE_CURVE('',#1438,#1435,#1439,.T.);
#1186=EDGE_CURVE('',#1440,#1438,#1441,.T.);
#1187=EDGE_CURVE('',#1442,#1440,#1443,.T.);
#1188=EDGE_CURVE('',#1343,#1442,#1444,.T.);
#1189=EDGE_CURVE('',#1445,#1347,#1446,.T.);
#1190=EDGE_CURVE('',#1445,#1352,#1447,.T.);
#1191=EDGE_CURVE('',#1448,#1356,#1449,.T.);
#1192=EDGE_CURVE('',#1450,#1448,#1451,.T.);
#1193=EDGE_CURVE('',#1436,#1450,#1452,.T.);
#1194=FILL_AREA_STYLE('',(#1453));
#1195=EDGE_CURVE('',#1454,#1435,#1455,.T.);
#1196=EDGE_CURVE('',#1454,#1456,#1457,.T.);
#1197=EDGE_CURVE('',#1438,#1456,#1458,.T.);
#1198=FILL_AREA_STYLE('',(#1459));
#1199=EDGE_CURVE('',#1445,#1460,#1461,.T.);
#1200=EDGE_CURVE('',#1460,#1351,#1462,.T.);
#1201=FILL_AREA_STYLE('',(#1463));
#1202=EDGE_CURVE('',#1354,#1464,#1465,.T.);
#1203=EDGE_CURVE('',#1448,#1464,#1466,.T.);
#1204=FILL_AREA_STYLE('',(#1467));
#1205=EDGE_CURVE('',#1464,#1468,#1469,.T.);
#1206=EDGE_CURVE('',#1450,#1468,#1470,.T.);
#1207=FILL_AREA_STYLE('',(#1471));
#1208=EDGE_CURVE('',#1436,#1472,#1473,.T.);
#1209=EDGE_CURVE('',#1468,#1472,#1474,.T.);
#1210=FILL_AREA_STYLE('',(#1475));
#1211=EDGE_CURVE('',#1456,#1476,#1477,.T.);
#1212=EDGE_CURVE('',#1440,#1476,#1478,.T.);
#1213=FILL_AREA_STYLE('',(#1479));
#1214=EDGE_CURVE('',#1476,#1480,#1481,.T.);
#1215=EDGE_CURVE('',#1442,#1480,#1482,.T.);
#1216=FILL_AREA_STYLE('',(#1483));
#1217=EDGE_CURVE('',#1480,#1342,#1484,.T.);
#1218=FILL_AREA_STYLE('',(#1485));
#1219=EDGE_CURVE('',#1345,#1460,#1486,.T.);
#1220=FILL_AREA_STYLE('',(#1487));
#1221=EDGE_CURVE('',#1472,#1454,#1488,.T.);
#1222=FILL_AREA_STYLE('',(#1489));
#1223=EDGE_CURVE('',#1490,#1491,#1492,.T.);
#1224=EDGE_CURVE('',#1490,#1493,#1494,.T.);
#1225=EDGE_CURVE('',#1495,#1493,#1496,.T.);
#1226=EDGE_CURVE('',#1495,#1491,#1497,.T.);
#1227=FILL_AREA_STYLE('',(#1498));
#1228=EDGE_CURVE('',#1499,#1490,#1500,.T.);
#1229=EDGE_CURVE('',#1499,#1501,#1502,.T.);
#1230=EDGE_CURVE('',#1493,#1501,#1503,.T.);
#1231=FILL_AREA_STYLE('',(#1504));
#1232=EDGE_CURVE('',#1501,#1505,#1506,.T.);
#1233=EDGE_CURVE('',#1495,#1505,#1507,.T.);
#1234=FILL_AREA_STYLE('',(#1508));
#1235=EDGE_CURVE('',#1491,#1509,#1510,.T.);
#1236=EDGE_CURVE('',#1505,#1509,#1511,.T.);
#1237=FILL_AREA_STYLE('',(#1512));
#1238=EDGE_CURVE('',#1509,#1499,#1513,.T.);
#1239=FILL_AREA_STYLE('',(#1514));
#1240=EDGE_CURVE('',#1515,#1516,#1517,.T.);
#1241=EDGE_CURVE('',#1518,#1515,#1519,.T.);
#1242=EDGE_CURVE('',#1520,#1518,#1521,.T.);
#1243=EDGE_CURVE('',#1516,#1520,#1522,.T.);
#1244=FILL_AREA_STYLE('',(#1523));
#1245=EDGE_CURVE('',#1516,#1334,#1524,.T.);
#1246=EDGE_CURVE('',#1333,#1520,#1525,.T.);
#1247=FILL_AREA_STYLE('',(#1526));
#1248=EDGE_CURVE('',#1338,#1327,#1527,.T.);
#1249=EDGE_CURVE('',#1329,#1336,#1528,.T.);
#1250=FILL_AREA_STYLE('',(#1529));
#1251=EDGE_CURVE('',#1518,#1325,#1530,.T.);
#1252=EDGE_CURVE('',#1324,#1515,#1531,.T.);
#1253=FILL_AREA_STYLE('',(#1532));
#1254=EDGE_CURVE('',#1320,#1316,#1533,.T.);
#1255=EDGE_CURVE('',#1315,#1318,#1534,.T.);
#1256=FILL_AREA_STYLE('',(#1535));
#1257=EDGE_CURVE('',#1536,#1537,#1538,.T.);
#1258=EDGE_CURVE('',#1539,#1537,#1540,.T.);
#1259=EDGE_CURVE('',#1541,#1539,#1542,.T.);
#1260=EDGE_CURVE('',#1541,#1536,#1543,.T.);
#1261=FILL_AREA_STYLE('',(#1544));
#1262=EDGE_CURVE('',#1537,#1545,#1546,.T.);
#1263=EDGE_CURVE('',#1547,#1545,#1548,.T.);
#1264=EDGE_CURVE('',#1547,#1539,#1549,.T.);
#1265=FILL_AREA_STYLE('',(#1550));
#1266=EDGE_CURVE('',#1545,#1551,#1552,.T.);
#1267=EDGE_CURVE('',#1553,#1551,#1554,.T.);
#1268=EDGE_CURVE('',#1553,#1547,#1555,.T.);
#1269=FILL_AREA_STYLE('',(#1556));
#1270=EDGE_CURVE('',#1551,#1557,#1558,.T.);
#1271=EDGE_CURVE('',#1559,#1557,#1560,.T.);
#1272=EDGE_CURVE('',#1559,#1553,#1561,.T.);
#1273=FILL_AREA_STYLE('',(#1562));
#1274=EDGE_CURVE('',#1557,#1563,#1564,.T.);
#1275=EDGE_CURVE('',#1565,#1563,#1566,.T.);
#1276=EDGE_CURVE('',#1559,#1565,#1567,.T.);
#1277=FILL_AREA_STYLE('',(#1568));
#1278=EDGE_CURVE('',#1563,#1569,#1570,.T.);
#1279=EDGE_CURVE('',#1571,#1569,#1572,.T.);
#1280=EDGE_CURVE('',#1571,#1565,#1573,.T.);
#1281=FILL_AREA_STYLE('',(#1574));
#1282=EDGE_CURVE('',#1569,#1575,#1576,.T.);
#1283=EDGE_CURVE('',#1577,#1575,#1578,.T.);
#1284=EDGE_CURVE('',#1571,#1577,#1579,.T.);
#1285=FILL_AREA_STYLE('',(#1580));
#1286=EDGE_CURVE('',#1575,#1581,#1582,.T.);
#1287=EDGE_CURVE('',#1583,#1581,#1584,.T.);
#1288=EDGE_CURVE('',#1583,#1577,#1585,.T.);
#1289=FILL_AREA_STYLE('',(#1586));
#1290=EDGE_CURVE('',#1581,#1587,#1588,.T.);
#1291=EDGE_CURVE('',#1589,#1587,#1590,.T.);
#1292=EDGE_CURVE('',#1589,#1583,#1591,.T.);
#1293=FILL_AREA_STYLE('',(#1592));
#1294=EDGE_CURVE('',#1587,#1593,#1594,.T.);
#1295=EDGE_CURVE('',#1595,#1593,#1596,.T.);
#1296=EDGE_CURVE('',#1589,#1595,#1597,.T.);
#1297=FILL_AREA_STYLE('',(#1598));
#1298=EDGE_CURVE('',#1593,#1599,#1600,.T.);
#1299=EDGE_CURVE('',#1601,#1599,#1602,.T.);
#1300=EDGE_CURVE('',#1601,#1595,#1603,.T.);
#1301=FILL_AREA_STYLE('',(#1604));
#1302=EDGE_CURVE('',#1599,#1605,#1606,.T.);
#1303=EDGE_CURVE('',#1607,#1605,#1608,.T.);
#1304=EDGE_CURVE('',#1601,#1607,#1609,.T.);
#1305=FILL_AREA_STYLE('',(#1610));
#1306=EDGE_CURVE('',#1605,#1611,#1612,.T.);
#1307=EDGE_CURVE('',#1613,#1611,#1614,.T.);
#1308=EDGE_CURVE('',#1613,#1607,#1615,.T.);
#1309=FILL_AREA_STYLE('',(#1616));
#1310=EDGE_CURVE('',#1611,#1536,#1617,.T.);
#1311=EDGE_CURVE('',#1613,#1541,#1618,.T.);
#1312=FILL_AREA_STYLE('',(#1619));
#1313=FILL_AREA_STYLE('',(#1620));
#1314=FILL_AREA_STYLE_COLOUR('',#1621);
#1315=VERTEX_POINT('',#1622);
#1316=VERTEX_POINT('',#1623);
#1317=LINE('',#1624,#1625);
#1318=VERTEX_POINT('',#1626);
#1319=CIRCLE('',#1627,1.175);
#1320=VERTEX_POINT('',#1628);
#1321=LINE('',#1629,#1630);
#1322=CIRCLE('',#1631,1.175);
#1323=FILL_AREA_STYLE_COLOUR('',#1632);
#1324=VERTEX_POINT('',#1633);
#1325=VERTEX_POINT('',#1634);
#1326=LINE('',#1635,#1636);
#1327=VERTEX_POINT('',#1637);
#1328=CIRCLE('',#1638,1.25);
#1329=VERTEX_POINT('',#1639);
#1330=LINE('',#1640,#1641);
#1331=CIRCLE('',#1642,1.25);
#1332=FILL_AREA_STYLE_COLOUR('',#1643);
#1333=VERTEX_POINT('',#1644);
#1334=VERTEX_POINT('',#1645);
#1335=LINE('',#1646,#1647);
#1336=VERTEX_POINT('',#1648);
#1337=CIRCLE('',#1649,1.25);
#1338=VERTEX_POINT('',#1650);
#1339=LINE('',#1651,#1652);
#1340=CIRCLE('',#1653,1.25);
#1341=FILL_AREA_STYLE_COLOUR('',#1654);
#1342=VERTEX_POINT('',#1655);
#1343=VERTEX_POINT('',#1656);
#1344=LINE('',#1657,#1658);
#1345=VERTEX_POINT('',#1659);
#1346=CIRCLE('',#1660,1.30000000000001);
#1347=VERTEX_POINT('',#1661);
#1348=LINE('',#1662,#1663);
#1349=CIRCLE('',#1664,1.30000000000001);
#1350=FILL_AREA_STYLE_COLOUR('',#1665);
#1351=VERTEX_POINT('',#1666);
#1352=VERTEX_POINT('',#1667);
#1353=LINE('',#1668,#1669);
#1354=VERTEX_POINT('',#1670);
#1355=CIRCLE('',#1671,0.999999999999997);
#1356=VERTEX_POINT('',#1672);
#1357=LINE('',#1673,#1674);
#1358=CIRCLE('',#1675,0.999999999999997);
#1359=FILL_AREA_STYLE_COLOUR('',#1676);
#1360=VERTEX_POINT('',#1677);
#1361=VERTEX_POINT('',#1678);
#1362=LINE('',#1679,#1680);
#1363=VERTEX_POINT('',#1681);
#1364=LINE('',#1682,#1683);
#1365=VERTEX_POINT('',#1684);
#1366=LINE('',#1685,#1686);
#1367=LINE('',#1687,#1688);
#1368=FILL_AREA_STYLE_COLOUR('',#1689);
#1369=VERTEX_POINT('',#1690);
#1370=LINE('',#1691,#1692);
#1371=VERTEX_POINT('',#1693);
#1372=LINE('',#1694,#1695);
#1373=LINE('',#1696,#1697);
#1374=FILL_AREA_STYLE_COLOUR('',#1698);
#1375=VERTEX_POINT('',#1699);
#1376=LINE('',#1700,#1701);
#1377=VERTEX_POINT('',#1702);
#1378=LINE('',#1703,#1704);
#1379=LINE('',#1705,#1706);
#1380=FILL_AREA_STYLE_COLOUR('',#1707);
#1381=LINE('',#1708,#1709);
#1382=FILL_AREA_STYLE_COLOUR('',#1710);
#1383=LINE('',#1711,#1712);
#1384=FILL_AREA_STYLE_COLOUR('',#1713);
#1385=VERTEX_POINT('',#1714);
#1386=VERTEX_POINT('',#1715);
#1387=LINE('',#1716,#1717);
#1388=VERTEX_POINT('',#1718);
#1389=LINE('',#1719,#1720);
#1390=VERTEX_POINT('',#1721);
#1391=LINE('',#1722,#1723);
#1392=LINE('',#1724,#1725);
#1393=FILL_AREA_STYLE_COLOUR('',#1726);
#1394=VERTEX_POINT('',#1727);
#1395=LINE('',#1728,#1729);
#1396=VERTEX_POINT('',#1730);
#1397=LINE('',#1731,#1732);
#1398=LINE('',#1733,#1734);
#1399=FILL_AREA_STYLE_COLOUR('',#1735);
#1400=VERTEX_POINT('',#1736);
#1401=LINE('',#1737,#1738);
#1402=VERTEX_POINT('',#1739);
#1403=LINE('',#1740,#1741);
#1404=LINE('',#1742,#1743);
#1405=FILL_AREA_STYLE_COLOUR('',#1744);
#1406=LINE('',#1745,#1746);
#1407=FILL_AREA_STYLE_COLOUR('',#1747);
#1408=LINE('',#1748,#1749);
#1409=FILL_AREA_STYLE_COLOUR('',#1750);
#1410=VERTEX_POINT('',#1751);
#1411=VERTEX_POINT('',#1752);
#1412=LINE('',#1753,#1754);
#1413=VERTEX_POINT('',#1755);
#1414=LINE('',#1756,#1757);
#1415=VERTEX_POINT('',#1758);
#1416=LINE('',#1759,#1760);
#1417=LINE('',#1761,#1762);
#1418=FILL_AREA_STYLE_COLOUR('',#1763);
#1419=VERTEX_POINT('',#1764);
#1420=LINE('',#1765,#1766);
#1421=VERTEX_POINT('',#1767);
#1422=LINE('',#1768,#1769);
#1423=LINE('',#1770,#1771);
#1424=FILL_AREA_STYLE_COLOUR('',#1772);
#1425=VERTEX_POINT('',#1773);
#1426=LINE('',#1774,#1775);
#1427=VERTEX_POINT('',#1776);
#1428=LINE('',#1777,#1778);
#1429=LINE('',#1779,#1780);
#1430=FILL_AREA_STYLE_COLOUR('',#1781);
#1431=LINE('',#1782,#1783);
#1432=FILL_AREA_STYLE_COLOUR('',#1784);
#1433=LINE('',#1785,#1786);
#1434=FILL_AREA_STYLE_COLOUR('',#1787);
#1435=VERTEX_POINT('',#1788);
#1436=VERTEX_POINT('',#1789);
#1437=LINE('',#1790,#1791);
#1438=VERTEX_POINT('',#1792);
#1439=LINE('',#1793,#1794);
#1440=VERTEX_POINT('',#1795);
#1441=LINE('',#1796,#1797);
#1442=VERTEX_POINT('',#1798);
#1443=LINE('',#1799,#1800);
#1444=CIRCLE('',#1801,1.30000000000001);
#1445=VERTEX_POINT('',#1802);
#1446=LINE('',#1803,#1804);
#1447=CIRCLE('',#1805,0.999999999999997);
#1448=VERTEX_POINT('',#1806);
#1449=LINE('',#1807,#1808);
#1450=VERTEX_POINT('',#1809);
#1451=LINE('',#1810,#1811);
#1452=LINE('',#1812,#1813);
#1453=FILL_AREA_STYLE_COLOUR('',#1814);
#1454=VERTEX_POINT('',#1815);
#1455=LINE('',#1816,#1817);
#1456=VERTEX_POINT('',#1818);
#1457=LINE('',#1819,#1820);
#1458=LINE('',#1821,#1822);
#1459=FILL_AREA_STYLE_COLOUR('',#1823);
#1460=VERTEX_POINT('',#1824);
#1461=LINE('',#1825,#1826);
#1462=CIRCLE('',#1827,0.999999999999997);
#1463=FILL_AREA_STYLE_COLOUR('',#1828);
#1464=VERTEX_POINT('',#1829);
#1465=LINE('',#1830,#1831);
#1466=LINE('',#1832,#1833);
#1467=FILL_AREA_STYLE_COLOUR('',#1834);
#1468=VERTEX_POINT('',#1835);
#1469=LINE('',#1836,#1837);
#1470=LINE('',#1838,#1839);
#1471=FILL_AREA_STYLE_COLOUR('',#1840);
#1472=VERTEX_POINT('',#1841);
#1473=LINE('',#1842,#1843);
#1474=LINE('',#1844,#1845);
#1475=FILL_AREA_STYLE_COLOUR('',#1846);
#1476=VERTEX_POINT('',#1847);
#1477=LINE('',#1848,#1849);
#1478=LINE('',#1850,#1851);
#1479=FILL_AREA_STYLE_COLOUR('',#1852);
#1480=VERTEX_POINT('',#1853);
#1481=LINE('',#1854,#1855);
#1482=LINE('',#1856,#1857);
#1483=FILL_AREA_STYLE_COLOUR('',#1858);
#1484=CIRCLE('',#1859,1.30000000000001);
#1485=FILL_AREA_STYLE_COLOUR('',#1860);
#1486=LINE('',#1861,#1862);
#1487=FILL_AREA_STYLE_COLOUR('',#1863);
#1488=LINE('',#1864,#1865);
#1489=FILL_AREA_STYLE_COLOUR('',#1866);
#1490=VERTEX_POINT('',#1867);
#1491=VERTEX_POINT('',#1868);
#1492=LINE('',#1869,#1870);
#1493=VERTEX_POINT('',#1871);
#1494=LINE('',#1872,#1873);
#1495=VERTEX_POINT('',#1874);
#1496=CIRCLE('',#1875,1.2);
#1497=LINE('',#1876,#1877);
#1498=FILL_AREA_STYLE_COLOUR('',#1878);
#1499=VERTEX_POINT('',#1879);
#1500=LINE('',#1880,#1881);
#1501=VERTEX_POINT('',#1882);
#1502=LINE('',#1883,#1884);
#1503=LINE('',#1885,#1886);
#1504=FILL_AREA_STYLE_COLOUR('',#1887);
#1505=VERTEX_POINT('',#1888);
#1506=CIRCLE('',#1889,1.2);
#1507=LINE('',#1890,#1891);
#1508=FILL_AREA_STYLE_COLOUR('',#1892);
#1509=VERTEX_POINT('',#1893);
#1510=LINE('',#1894,#1895);
#1511=LINE('',#1896,#1897);
#1512=FILL_AREA_STYLE_COLOUR('',#1898);
#1513=LINE('',#1899,#1900);
#1514=FILL_AREA_STYLE_COLOUR('',#1901);
#1515=VERTEX_POINT('',#1902);
#1516=VERTEX_POINT('',#1903);
#1517=LINE('',#1904,#1905);
#1518=VERTEX_POINT('',#1906);
#1519=LINE('',#1907,#1908);
#1520=VERTEX_POINT('',#1909);
#1521=LINE('',#1910,#1911);
#1522=LINE('',#1912,#1913);
#1523=FILL_AREA_STYLE_COLOUR('',#1914);
#1524=CIRCLE('',#1915,1.25);
#1525=CIRCLE('',#1916,1.25);
#1526=FILL_AREA_STYLE_COLOUR('',#1917);
#1527=LINE('',#1918,#1919);
#1528=LINE('',#1920,#1921);
#1529=FILL_AREA_STYLE_COLOUR('',#1922);
#1530=CIRCLE('',#1923,1.25);
#1531=CIRCLE('',#1924,1.25);
#1532=FILL_AREA_STYLE_COLOUR('',#1925);
#1533=CIRCLE('',#1926,1.175);
#1534=CIRCLE('',#1927,1.175);
#1535=FILL_AREA_STYLE_COLOUR('',#1928);
#1536=VERTEX_POINT('',#1929);
#1537=VERTEX_POINT('',#1930);
#1538=LINE('',#1931,#1932);
#1539=VERTEX_POINT('',#1933);
#1540=LINE('',#1934,#1935);
#1541=VERTEX_POINT('',#1936);
#1542=LINE('',#1937,#1938);
#1543=LINE('',#1939,#1940);
#1544=FILL_AREA_STYLE_COLOUR('',#1941);
#1545=VERTEX_POINT('',#1942);
#1546=LINE('',#1943,#1944);
#1547=VERTEX_POINT('',#1945);
#1548=LINE('',#1946,#1947);
#1549=LINE('',#1948,#1949);
#1550=FILL_AREA_STYLE_COLOUR('',#1950);
#1551=VERTEX_POINT('',#1951);
#1552=LINE('',#1952,#1953);
#1553=VERTEX_POINT('',#1954);
#1554=LINE('',#1955,#1956);
#1555=LINE('',#1957,#1958);
#1556=FILL_AREA_STYLE_COLOUR('',#1959);
#1557=VERTEX_POINT('',#1960);
#1558=LINE('',#1961,#1962);
#1559=VERTEX_POINT('',#1963);
#1560=LINE('',#1964,#1965);
#1561=LINE('',#1966,#1967);
#1562=FILL_AREA_STYLE_COLOUR('',#1968);
#1563=VERTEX_POINT('',#1969);
#1564=LINE('',#1970,#1971);
#1565=VERTEX_POINT('',#1972);
#1566=LINE('',#1973,#1974);
#1567=LINE('',#1975,#1976);
#1568=FILL_AREA_STYLE_COLOUR('',#1977);
#1569=VERTEX_POINT('',#1978);
#1570=LINE('',#1979,#1980);
#1571=VERTEX_POINT('',#1981);
#1572=LINE('',#1982,#1983);
#1573=LINE('',#1984,#1985);
#1574=FILL_AREA_STYLE_COLOUR('',#1986);
#1575=VERTEX_POINT('',#1987);
#1576=LINE('',#1988,#1989);
#1577=VERTEX_POINT('',#1990);
#1578=LINE('',#1991,#1992);
#1579=LINE('',#1993,#1994);
#1580=FILL_AREA_STYLE_COLOUR('',#1995);
#1581=VERTEX_POINT('',#1996);
#1582=LINE('',#1997,#1998);
#1583=VERTEX_POINT('',#1999);
#1584=LINE('',#2000,#2001);
#1585=LINE('',#2002,#2003);
#1586=FILL_AREA_STYLE_COLOUR('',#2004);
#1587=VERTEX_POINT('',#2005);
#1588=LINE('',#2006,#2007);
#1589=VERTEX_POINT('',#2008);
#1590=LINE('',#2009,#2010);
#1591=LINE('',#2011,#2012);
#1592=FILL_AREA_STYLE_COLOUR('',#2013);
#1593=VERTEX_POINT('',#2014);
#1594=LINE('',#2015,#2016);
#1595=VERTEX_POINT('',#2017);
#1596=LINE('',#2018,#2019);
#1597=LINE('',#2020,#2021);
#1598=FILL_AREA_STYLE_COLOUR('',#2022);
#1599=VERTEX_POINT('',#2023);
#1600=LINE('',#2024,#2025);
#1601=VERTEX_POINT('',#2026);
#1602=LINE('',#2027,#2028);
#1603=LINE('',#2029,#2030);
#1604=FILL_AREA_STYLE_COLOUR('',#2031);
#1605=VERTEX_POINT('',#2032);
#1606=LINE('',#2033,#2034);
#1607=VERTEX_POINT('',#2035);
#1608=LINE('',#2036,#2037);
#1609=LINE('',#2038,#2039);
#1610=FILL_AREA_STYLE_COLOUR('',#2040);
#1611=VERTEX_POINT('',#2041);
#1612=LINE('',#2042,#2043);
#1613=VERTEX_POINT('',#2044);
#1614=LINE('',#2045,#2046);
#1615=LINE('',#2047,#2048);
#1616=FILL_AREA_STYLE_COLOUR('',#2049);
#1617=LINE('',#2050,#2051);
#1618=LINE('',#2052,#2053);
#1619=FILL_AREA_STYLE_COLOUR('',#2054);
#1620=FILL_AREA_STYLE_COLOUR('',#2055);
#1621=COLOUR_RGB('',0.121568627655506,0.121568627655506,0.121568627655506);
#1622=CARTESIAN_POINT('',(5.875,2.9,3.2));
#1623=CARTESIAN_POINT('',(5.875,2.9,-3.2));
#1624=CARTESIAN_POINT('',(5.875,2.9,0.0));
#1625=VECTOR('',#2056,1.0);
#1626=CARTESIAN_POINT('',(3.525,2.9,3.2));
#1627=AXIS2_PLACEMENT_3D('',#2057,#2058,#2059);
#1628=CARTESIAN_POINT('',(3.525,2.9,-3.2));
#1629=CARTESIAN_POINT('',(3.525,2.9,0.0));
#1630=VECTOR('',#2060,1.0);
#1631=AXIS2_PLACEMENT_3D('',#2061,#2062,#2063);
#1632=COLOUR_RGB('',0.121568627655506,0.121568627655506,0.121568627655506);
#1633=CARTESIAN_POINT('',(-3.55,2.9,3.2));
#1634=CARTESIAN_POINT('',(-3.55,2.9,-3.2));
#1635=CARTESIAN_POINT('',(-3.55,2.9,0.0));
#1636=VECTOR('',#2064,1.0);
#1637=CARTESIAN_POINT('',(-4.38756818745397,4.08,3.2));
#1638=AXIS2_PLACEMENT_3D('',#2065,#2066,#2067);
#1639=CARTESIAN_POINT('',(-4.38756818745397,4.08,-3.2));
#1640=CARTESIAN_POINT('',(-4.38756818745397,4.08,0.0));
#1641=VECTOR('',#2068,1.0);
#1642=AXIS2_PLACEMENT_3D('',#2069,#2070,#2071);
#1643=COLOUR_RGB('',0.121568627655506,0.121568627655506,0.121568627655506);
#1644=CARTESIAN_POINT('',(-6.05,2.9,-3.2));
#1645=CARTESIAN_POINT('',(-6.05,2.9,3.2));
#1646=CARTESIAN_POINT('',(-6.05,2.9,0.0));
#1647=VECTOR('',#2072,1.0);
#1648=CARTESIAN_POINT('',(-5.21243181254602,4.08,-3.2));
#1649=AXIS2_PLACEMENT_3D('',#2073,#2074,#2075);
#1650=CARTESIAN_POINT('',(-5.21243181254602,4.08,3.2));
#1651=CARTESIAN_POINT('',(-5.21243181254602,4.08,0.0));
#1652=VECTOR('',#2076,1.0);
#1653=AXIS2_PLACEMENT_3D('',#2077,#2078,#2079);
#1654=COLOUR_RGB('',0.811764717102051,0.811764717102051,0.811764717102051);
#1655=CARTESIAN_POINT('',(8.5770799974434,17.1,1.8));
#1656=CARTESIAN_POINT('',(8.5770799974434,17.1,-1.8));
#1657=CARTESIAN_POINT('',(8.5770799974434,17.1,-1.8));
#1658=VECTOR('',#2080,1.0);
#1659=CARTESIAN_POINT('',(11.1267202021632,17.4583285625621,1.8));
#1660=AXIS2_PLACEMENT_3D('',#2081,#2082,#2083);
#1661=CARTESIAN_POINT('',(11.1267202021632,17.4583285625621,-1.8));
#1662=CARTESIAN_POINT('',(11.1267202021632,17.4583285625621,-1.8));
#1663=VECTOR('',#2084,1.0);
#1664=AXIS2_PLACEMENT_3D('',#2085,#2086,#2087);
#1665=COLOUR_RGB('',0.811764717102051,0.811764717102051,0.811764717102051);
#1666=CARTESIAN_POINT('',(8.87707999744342,17.1,1.8));
#1667=CARTESIAN_POINT('',(8.87707999744342,17.1,-1.8));
#1668=CARTESIAN_POINT('',(8.87707999744342,17.1,-1.8));
#1669=VECTOR('',#2088,1.0);
#1670=CARTESIAN_POINT('',(8.91581830150511,16.824362644183,1.8));
#1671=AXIS2_PLACEMENT_3D('',#2089,#2090,#2091);
#1672=CARTESIAN_POINT('',(8.91581830150511,16.824362644183,-1.8));
#1673=CARTESIAN_POINT('',(8.91581830150511,16.824362644183,-1.8));
#1674=VECTOR('',#2092,1.0);
#1675=AXIS2_PLACEMENT_3D('',#2093,#2094,#2095);
#1676=COLOUR_RGB('',0.811764717102051,0.811764717102051,0.811764717102051);
#1677=CARTESIAN_POINT('',(7.55,0.400000000000001,-1.6));
#1678=CARTESIAN_POINT('',(7.55,0.400000000000001,1.6));
#1679=CARTESIAN_POINT('',(7.55,0.400000000000001,-1.6));
#1680=VECTOR('',#2096,1.0);
#1681=CARTESIAN_POINT('',(7.55,-3.5,-1.6));
#1682=CARTESIAN_POINT('',(7.55,-1.0,-1.6));
#1683=VECTOR('',#2097,1.0);
#1684=CARTESIAN_POINT('',(7.55,-3.5,1.6));
#1685=CARTESIAN_POINT('',(7.55,-3.5,0.0));
#1686=VECTOR('',#2098,1.0);
#1687=CARTESIAN_POINT('',(7.55,-1.0,1.6));
#1688=VECTOR('',#2099,1.0);
#1689=COLOUR_RGB('',0.811764717102051,0.811764717102051,0.811764717102051);
#1690=CARTESIAN_POINT('',(8.05,0.400000000000001,-1.6));
#1691=CARTESIAN_POINT('',(8.0,0.400000000000001,-1.6));
#1692=VECTOR('',#2100,1.0);
#1693=CARTESIAN_POINT('',(8.05,-3.5,-1.6));
#1694=CARTESIAN_POINT('',(8.05,-1.0,-1.6));
#1695=VECTOR('',#2101,1.0);
#1696=CARTESIAN_POINT('',(7.8,-3.5,-1.6));
#1697=VECTOR('',#2102,1.0);
#1698=COLOUR_RGB('',0.811764717102051,0.811764717102051,0.811764717102051);
#1699=CARTESIAN_POINT('',(8.05,0.400000000000001,1.6));
#1700=CARTESIAN_POINT('',(8.0,0.400000000000001,1.6));
#1701=VECTOR('',#2103,1.0);
#1702=CARTESIAN_POINT('',(8.05,-3.5,1.6));
#1703=CARTESIAN_POINT('',(7.8,-3.5,1.6));
#1704=VECTOR('',#2104,1.0);
#1705=CARTESIAN_POINT('',(8.05,-1.0,1.6));
#1706=VECTOR('',#2105,1.0);
#1707=COLOUR_RGB('',0.811764717102051,0.811764717102051,0.811764717102051);
#1708=CARTESIAN_POINT('',(8.05,-3.5,0.0));
#1709=VECTOR('',#2106,1.0);
#1710=COLOUR_RGB('',0.811764717102051,0.811764717102051,0.811764717102051);
#1711=CARTESIAN_POINT('',(8.05,0.400000000000001,-1.6));
#1712=VECTOR('',#2107,1.0);
#1713=COLOUR_RGB('',0.811764717102051,0.811764717102051,0.811764717102051);
#1714=CARTESIAN_POINT('',(0.25,0.4,-1.6));
#1715=CARTESIAN_POINT('',(0.25,0.4,1.6));
#1716=CARTESIAN_POINT('',(0.25,0.4,-1.6));
#1717=VECTOR('',#2108,1.0);
#1718=CARTESIAN_POINT('',(0.25,-3.5,-1.6));
#1719=CARTESIAN_POINT('',(0.25,-1.0,-1.6));
#1720=VECTOR('',#2109,1.0);
#1721=CARTESIAN_POINT('',(0.25,-3.5,1.6));
#1722=CARTESIAN_POINT('',(0.25,-3.5,0.0));
#1723=VECTOR('',#2110,1.0);
#1724=CARTESIAN_POINT('',(0.25,-1.0,1.6));
#1725=VECTOR('',#2111,1.0);
#1726=COLOUR_RGB('',0.811764717102051,0.811764717102051,0.811764717102051);
#1727=CARTESIAN_POINT('',(0.75,0.4,-1.6));
#1728=CARTESIAN_POINT('',(0.224999999999997,0.4,-1.6));
#1729=VECTOR('',#2112,1.0);
#1730=CARTESIAN_POINT('',(0.75,-3.5,-1.6));
#1731=CARTESIAN_POINT('',(0.75,-1.0,-1.6));
#1732=VECTOR('',#2113,1.0);
#1733=CARTESIAN_POINT('',(0.5,-3.5,-1.6));
#1734=VECTOR('',#2114,1.0);
#1735=COLOUR_RGB('',0.811764717102051,0.811764717102051,0.811764717102051);
#1736=CARTESIAN_POINT('',(0.75,0.4,1.6));
#1737=CARTESIAN_POINT('',(0.224999999999997,0.4,1.6));
#1738=VECTOR('',#2115,1.0);
#1739=CARTESIAN_POINT('',(0.75,-3.5,1.6));
#1740=CARTESIAN_POINT('',(0.5,-3.5,1.6));
#1741=VECTOR('',#2116,1.0);
#1742=CARTESIAN_POINT('',(0.75,-1.0,1.6));
#1743=VECTOR('',#2117,1.0);
#1744=COLOUR_RGB('',0.811764717102051,0.811764717102051,0.811764717102051);
#1745=CARTESIAN_POINT('',(0.75,-3.5,0.0));
#1746=VECTOR('',#2118,1.0);
#1747=COLOUR_RGB('',0.811764717102051,0.811764717102051,0.811764717102051);
#1748=CARTESIAN_POINT('',(0.75,0.4,-1.6));
#1749=VECTOR('',#2119,1.0);
#1750=COLOUR_RGB('',0.811764717102051,0.811764717102051,0.811764717102051);
#1751=CARTESIAN_POINT('',(-8.55,0.4,-1.6));
#1752=CARTESIAN_POINT('',(-8.55,0.4,1.6));
#1753=CARTESIAN_POINT('',(-8.55,0.4,-1.6));
#1754=VECTOR('',#2120,1.0);
#1755=CARTESIAN_POINT('',(-8.55,-3.5,-1.6));
#1756=CARTESIAN_POINT('',(-8.55,-1.0,-1.6));
#1757=VECTOR('',#2121,1.0);
#1758=CARTESIAN_POINT('',(-8.55,-3.5,1.6));
#1759=CARTESIAN_POINT('',(-8.55,-3.5,0.0));
#1760=VECTOR('',#2122,1.0);
#1761=CARTESIAN_POINT('',(-8.55,-1.0,1.6));
#1762=VECTOR('',#2123,1.0);
#1763=COLOUR_RGB('',0.811764717102051,0.811764717102051,0.811764717102051);
#1764=CARTESIAN_POINT('',(-8.05,0.4,-1.6));
#1765=CARTESIAN_POINT('',(-8.275,0.4,-1.6));
#1766=VECTOR('',#2124,1.0);
#1767=CARTESIAN_POINT('',(-8.05,-3.5,-1.6));
#1768=CARTESIAN_POINT('',(-8.05,-1.0,-1.6));
#1769=VECTOR('',#2125,1.0);
#1770=CARTESIAN_POINT('',(-8.3,-3.5,-1.6));
#1771=VECTOR('',#2126,1.0);
#1772=COLOUR_RGB('',0.811764717102051,0.811764717102051,0.811764717102051);
#1773=CARTESIAN_POINT('',(-8.05,0.4,1.6));
#1774=CARTESIAN_POINT('',(-8.275,0.4,1.6));
#1775=VECTOR('',#2127,1.0);
#1776=CARTESIAN_POINT('',(-8.05,-3.5,1.6));
#1777=CARTESIAN_POINT('',(-8.3,-3.5,1.6));
#1778=VECTOR('',#2128,1.0);
#1779=CARTESIAN_POINT('',(-8.05,-1.0,1.6));
#1780=VECTOR('',#2129,1.0);
#1781=COLOUR_RGB('',0.811764717102051,0.811764717102051,0.811764717102051);
#1782=CARTESIAN_POINT('',(-8.05,-3.5,0.0));
#1783=VECTOR('',#2130,1.0);
#1784=COLOUR_RGB('',0.811764717102051,0.811764717102051,0.811764717102051);
#1785=CARTESIAN_POINT('',(-8.05,0.4,-1.6));
#1786=VECTOR('',#2131,1.0);
#1787=COLOUR_RGB('',0.811764717102051,0.811764717102051,0.811764717102051);
#1788=CARTESIAN_POINT('',(-7.09999999999997,10.6,-1.8));
#1789=CARTESIAN_POINT('',(-6.79999999999998,10.6,-1.8));
#1790=CARTESIAN_POINT('',(-1.63336093700289,10.6,-1.8));
#1791=VECTOR('',#2132,1.0);
#1792=CARTESIAN_POINT('',(-7.09999999999999,11.5036910419718,-1.8));
#1793=CARTESIAN_POINT('',(-7.09999999999997,11.5036910419718,-1.8));
#1794=VECTOR('',#2133,1.0);
#1795=CARTESIAN_POINT('',(8.82038594179551,16.0687882502811,-1.8));
#1796=CARTESIAN_POINT('',(8.82038594179551,16.0687882502811,-1.8));
#1797=VECTOR('',#2134,1.0);
#1798=CARTESIAN_POINT('',(8.62743979272359,16.7416714374379,-1.8));
#1799=CARTESIAN_POINT('',(8.62743979272358,16.7416714374379,-1.8));
#1800=VECTOR('',#2135,1.0);
#1801=AXIS2_PLACEMENT_3D('',#2136,#2137,#2138);
#1802=CARTESIAN_POINT('',(10.8383416933818,17.3756373558169,-1.8));
#1803=CARTESIAN_POINT('',(10.8383416933818,17.3756373558169,-1.8));
#1804=VECTOR('',#2139,1.0);
#1805=AXIS2_PLACEMENT_3D('',#2140,#2141,#2142);
#1806=CARTESIAN_POINT('',(9.19145565732211,15.8631009482447,-1.8));
#1807=CARTESIAN_POINT('',(9.19145565732211,15.8631009482447,-1.8));
#1808=VECTOR('',#2143,1.0);
#1809=CARTESIAN_POINT('',(-6.79999999999998,11.277624826941,-1.8));
#1810=CARTESIAN_POINT('',(-6.79999999999998,11.277624826941,-1.8));
#1811=VECTOR('',#2144,1.0);
#1812=CARTESIAN_POINT('',(-6.79999999999998,9.77422683138049,-1.8));
#1813=VECTOR('',#2145,1.0);
#1814=COLOUR_RGB('',0.811764717102051,0.811764717102051,0.811764717102051);
#1815=CARTESIAN_POINT('',(-7.09999999999997,10.6,1.8));
#1816=CARTESIAN_POINT('',(-7.09999999999997,10.6,-2.5));
#1817=VECTOR('',#2146,1.0);
#1818=CARTESIAN_POINT('',(-7.09999999999999,11.5036910419718,1.8));
#1819=CARTESIAN_POINT('',(-7.09999999999997,11.5036910419718,1.8));
#1820=VECTOR('',#2147,1.0);
#1821=CARTESIAN_POINT('',(-7.09999999999999,11.5036910419718,-1.8));
#1822=VECTOR('',#2148,1.0);
#1823=COLOUR_RGB('',0.811764717102051,0.811764717102051,0.811764717102051);
#1824=CARTESIAN_POINT('',(10.8383416933818,17.3756373558169,1.8));
#1825=CARTESIAN_POINT('',(10.8383416933818,17.3756373558169,-1.8));
#1826=VECTOR('',#2149,1.0);
#1827=AXIS2_PLACEMENT_3D('',#2150,#2151,#2152);
#1828=COLOUR_RGB('',0.811764717102051,0.811764717102051,0.811764717102051);
#1829=CARTESIAN_POINT('',(9.19145565732211,15.8631009482447,1.8));
#1830=CARTESIAN_POINT('',(9.19145565732211,15.8631009482447,1.8));
#1831=VECTOR('',#2153,1.0);
#1832=CARTESIAN_POINT('',(9.19145565732211,15.8631009482447,-1.8));
#1833=VECTOR('',#2154,1.0);
#1834=COLOUR_RGB('',0.811764717102051,0.811764717102051,0.811764717102051);
#1835=CARTESIAN_POINT('',(-6.79999999999998,11.277624826941,1.8));
#1836=CARTESIAN_POINT('',(-6.79999999999998,11.277624826941,1.8));
#1837=VECTOR('',#2155,1.0);
#1838=CARTESIAN_POINT('',(-6.79999999999998,11.277624826941,-1.8));
#1839=VECTOR('',#2156,1.0);
#1840=COLOUR_RGB('',0.811764717102051,0.811764717102051,0.811764717102051);
#1841=CARTESIAN_POINT('',(-6.79999999999998,10.6,1.8));
#1842=CARTESIAN_POINT('',(-6.79999999999998,10.6,-2.5));
#1843=VECTOR('',#2157,1.0);
#1844=CARTESIAN_POINT('',(-6.79999999999998,9.77422683138049,1.8));
#1845=VECTOR('',#2158,1.0);
#1846=COLOUR_RGB('',0.811764717102051,0.811764717102051,0.811764717102051);
#1847=CARTESIAN_POINT('',(8.82038594179551,16.0687882502811,1.8));
#1848=CARTESIAN_POINT('',(8.82038594179551,16.0687882502811,1.8));
#1849=VECTOR('',#2159,1.0);
#1850=CARTESIAN_POINT('',(8.82038594179551,16.0687882502811,-1.8));
#1851=VECTOR('',#2160,1.0);
#1852=COLOUR_RGB('',0.811764717102051,0.811764717102051,0.811764717102051);
#1853=CARTESIAN_POINT('',(8.62743979272359,16.7416714374379,1.8));
#1854=CARTESIAN_POINT('',(8.62743979272358,16.7416714374379,1.8));
#1855=VECTOR('',#2161,1.0);
#1856=CARTESIAN_POINT('',(8.62743979272359,16.7416714374379,-1.8));
#1857=VECTOR('',#2162,1.0);
#1858=COLOUR_RGB('',0.811764717102051,0.811764717102051,0.811764717102051);
#1859=AXIS2_PLACEMENT_3D('',#2163,#2164,#2165);
#1860=COLOUR_RGB('',0.811764717102051,0.811764717102051,0.811764717102051);
#1861=CARTESIAN_POINT('',(10.8383416933818,17.3756373558169,1.8));
#1862=VECTOR('',#2166,0.999999999999999);
#1863=COLOUR_RGB('',0.811764717102051,0.811764717102051,0.811764717102051);
#1864=CARTESIAN_POINT('',(-1.63336093700289,10.6,1.8));
#1865=VECTOR('',#2167,1.0);
#1866=COLOUR_RGB('',1.0,1.0,1.0);
#1867=CARTESIAN_POINT('',(-3.80000000000001,10.6,-1.6));
#1868=CARTESIAN_POINT('',(-1.80000000000001,10.6,-1.6));
#1869=CARTESIAN_POINT('',(-4.10000000000001,10.6,-1.6));
#1870=VECTOR('',#2168,1.0);
#1871=CARTESIAN_POINT('',(-3.80000000000001,11.2633249580711,-1.6));
#1872=CARTESIAN_POINT('',(-3.80000000000001,8.5388840868678,-1.6));
#1873=VECTOR('',#2169,1.0);
#1874=CARTESIAN_POINT('',(-1.80000000000001,11.2633249580711,-1.6));
#1875=AXIS2_PLACEMENT_3D('',#2170,#2171,#2172);
#1876=CARTESIAN_POINT('',(-1.80000000000001,11.2633249580711,-1.6));
#1877=VECTOR('',#2173,1.0);
#1878=COLOUR_RGB('',1.0,1.0,1.0);
#1879=CARTESIAN_POINT('',(-3.80000000000001,10.6,1.6));
#1880=CARTESIAN_POINT('',(-3.8,10.6,-2.4));
#1881=VECTOR('',#2174,1.0);
#1882=CARTESIAN_POINT('',(-3.80000000000001,11.2633249580711,1.6));
#1883=CARTESIAN_POINT('',(-3.80000000000001,8.5388840868678,1.6));
#1884=VECTOR('',#2175,1.0);
#1885=CARTESIAN_POINT('',(-3.80000000000001,11.2633249580711,-1.6));
#1886=VECTOR('',#2176,1.0);
#1887=COLOUR_RGB('',1.0,1.0,1.0);
#1888=CARTESIAN_POINT('',(-1.80000000000001,11.2633249580711,1.6));
#1889=AXIS2_PLACEMENT_3D('',#2177,#2178,#2179);
#1890=CARTESIAN_POINT('',(-1.80000000000001,11.2633249580711,-1.6));
#1891=VECTOR('',#2180,1.0);
#1892=COLOUR_RGB('',1.0,1.0,1.0);
#1893=CARTESIAN_POINT('',(-1.80000000000001,10.6,1.6));
#1894=CARTESIAN_POINT('',(-1.80000000000001,10.6,-2.4));
#1895=VECTOR('',#2181,1.0);
#1896=CARTESIAN_POINT('',(-1.80000000000001,11.2633249580711,1.6));
#1897=VECTOR('',#2182,1.0);
#1898=COLOUR_RGB('',1.0,1.0,1.0);
#1899=CARTESIAN_POINT('',(-4.10000000000001,10.6,1.6));
#1900=VECTOR('',#2183,1.0);
#1901=COLOUR_RGB('',0.121568627655506,0.121568627655506,0.121568627655506);
#1902=CARTESIAN_POINT('',(-4.36,1.73,3.2));
#1903=CARTESIAN_POINT('',(-5.24,1.73,3.2));
#1904=CARTESIAN_POINT('',(-2.84353405945292,1.73,3.2));
#1905=VECTOR('',#2184,1.0);
#1906=CARTESIAN_POINT('',(-4.36,1.73,-3.2));
#1907=CARTESIAN_POINT('',(-4.36,1.73,0.0));
#1908=VECTOR('',#2185,1.0);
#1909=CARTESIAN_POINT('',(-5.24,1.73,-3.2));
#1910=CARTESIAN_POINT('',(-2.84353405945292,1.73,-3.2));
#1911=VECTOR('',#2186,1.0);
#1912=CARTESIAN_POINT('',(-5.24,1.73,0.0));
#1913=VECTOR('',#2187,1.0);
#1914=COLOUR_RGB('',0.121568627655506,0.121568627655506,0.121568627655506);
#1915=AXIS2_PLACEMENT_3D('',#2188,#2189,#2190);
#1916=AXIS2_PLACEMENT_3D('',#2191,#2192,#2193);
#1917=COLOUR_RGB('',0.121568627655506,0.121568627655506,0.121568627655506);
#1918=CARTESIAN_POINT('',(-2.84353405945292,4.08,3.2));
#1919=VECTOR('',#2194,1.0);
#1920=CARTESIAN_POINT('',(-2.84353405945292,4.08,-3.2));
#1921=VECTOR('',#2195,1.0);
#1922=COLOUR_RGB('',0.121568627655506,0.121568627655506,0.121568627655506);
#1923=AXIS2_PLACEMENT_3D('',#2196,#2197,#2198);
#1924=AXIS2_PLACEMENT_3D('',#2199,#2200,#2201);
#1925=COLOUR_RGB('',0.121568627655506,0.121568627655506,0.121568627655506);
#1926=AXIS2_PLACEMENT_3D('',#2202,#2203,#2204);
#1927=AXIS2_PLACEMENT_3D('',#2205,#2206,#2207);
#1928=COLOUR_RGB('',0.121568627655506,0.121568627655506,0.121568627655506);
#1929=CARTESIAN_POINT('',(-9.90000000000001,10.6,3.2));
#1930=CARTESIAN_POINT('',(-0.900000000000006,10.6,3.2));
#1931=CARTESIAN_POINT('',(-9.90000000000001,10.6,3.2));
#1932=VECTOR('',#2208,1.0);
#1933=CARTESIAN_POINT('',(-0.900000000000006,10.6,-3.2));
#1934=CARTESIAN_POINT('',(-0.900000000000006,10.6,-3.2));
#1935=VECTOR('',#2209,1.0);
#1936=CARTESIAN_POINT('',(-9.90000000000001,10.6,-3.2));
#1937=CARTESIAN_POINT('',(-9.90000000000001,10.6,-3.2));
#1938=VECTOR('',#2210,1.0);
#1939=CARTESIAN_POINT('',(-9.90000000000001,10.6,-3.2));
#1940=VECTOR('',#2211,1.0);
#1941=COLOUR_RGB('',0.121568627655506,0.121568627655506,0.121568627655506);
#1942=CARTESIAN_POINT('',(-0.20000000000001,9.5,3.2));
#1943=CARTESIAN_POINT('',(-0.20000000000001,9.5,3.2));
#1944=VECTOR('',#2212,1.0);
#1945=CARTESIAN_POINT('',(-0.20000000000001,9.5,-3.2));
#1946=CARTESIAN_POINT('',(-0.20000000000001,9.5,-3.2));
#1947=VECTOR('',#2213,1.0);
#1948=CARTESIAN_POINT('',(-0.20000000000001,9.5,-3.2));
#1949=VECTOR('',#2214,1.0);
#1950=COLOUR_RGB('',0.121568627655506,0.121568627655506,0.121568627655506);
#1951=CARTESIAN_POINT('',(9.89999999999999,9.5,3.2));
#1952=CARTESIAN_POINT('',(9.89999999999999,9.5,3.2));
#1953=VECTOR('',#2215,1.0);
#1954=CARTESIAN_POINT('',(9.89999999999999,9.5,-3.2));
#1955=CARTESIAN_POINT('',(9.89999999999999,9.5,-3.2));
#1956=VECTOR('',#2216,1.0);
#1957=CARTESIAN_POINT('',(9.89999999999999,9.5,-3.2));
#1958=VECTOR('',#2217,1.0);
#1959=COLOUR_RGB('',0.121568627655506,0.121568627655506,0.121568627655506);
#1960=CARTESIAN_POINT('',(9.89999999999999,0.4,3.2));
#1961=CARTESIAN_POINT('',(9.89999999999999,0.4,3.2));
#1962=VECTOR('',#2218,1.0);
#1963=CARTESIAN_POINT('',(9.89999999999999,0.4,-3.2));
#1964=CARTESIAN_POINT('',(9.89999999999999,0.4,-3.2));
#1965=VECTOR('',#2219,1.0);
#1966=CARTESIAN_POINT('',(9.89999999999999,0.4,-3.2));
#1967=VECTOR('',#2220,1.0);
#1968=COLOUR_RGB('',0.121568627655506,0.121568627655506,0.121568627655506);
#1969=CARTESIAN_POINT('',(6.49999999999999,0.400000000000001,3.2));
#1970=CARTESIAN_POINT('',(9.89999999999999,0.4,3.2));
#1971=VECTOR('',#2221,1.0);
#1972=CARTESIAN_POINT('',(6.49999999999999,0.400000000000001,-3.2));
#1973=CARTESIAN_POINT('',(6.49999999999999,0.400000000000001,-3.2));
#1974=VECTOR('',#2222,1.0);
#1975=CARTESIAN_POINT('',(9.89999999999999,0.4,-3.2));
#1976=VECTOR('',#2223,1.0);
#1977=COLOUR_RGB('',0.121568627655506,0.121568627655506,0.121568627655506);
#1978=CARTESIAN_POINT('',(6.09999999999999,0.0,3.2));
#1979=CARTESIAN_POINT('',(6.09999999999999,0.0,3.2));
#1980=VECTOR('',#2224,1.0);
#1981=CARTESIAN_POINT('',(6.09999999999999,0.0,-3.2));
#1982=CARTESIAN_POINT('',(6.09999999999999,0.0,-3.2));
#1983=VECTOR('',#2225,1.0);
#1984=CARTESIAN_POINT('',(6.09999999999999,0.0,-3.2));
#1985=VECTOR('',#2226,1.0);
#1986=COLOUR_RGB('',0.121568627655506,0.121568627655506,0.121568627655506);
#1987=CARTESIAN_POINT('',(3.29999999999999,3.33066907387547E-016,3.2));
#1988=CARTESIAN_POINT('',(6.09999999999999,0.0,3.2));
#1989=VECTOR('',#2227,1.0);
#1990=CARTESIAN_POINT('',(3.29999999999999,3.33066907387547E-016,-3.2));
#1991=CARTESIAN_POINT('',(3.29999999999999,3.33066907387547E-016,-3.2));
#1992=VECTOR('',#2228,1.0);
#1993=CARTESIAN_POINT('',(6.09999999999999,0.0,-3.2));
#1994=VECTOR('',#2229,1.0);
#1995=COLOUR_RGB('',0.121568627655506,0.121568627655506,0.121568627655506);
#1996=CARTESIAN_POINT('',(2.89999999999999,0.4,3.2));
#1997=CARTESIAN_POINT('',(2.89999999999999,0.4,3.2));
#1998=VECTOR('',#2230,1.0);
#1999=CARTESIAN_POINT('',(2.89999999999999,0.4,-3.2));
#2000=CARTESIAN_POINT('',(2.89999999999999,0.4,-3.2));
#2001=VECTOR('',#2231,1.0);
#2002=CARTESIAN_POINT('',(2.89999999999999,0.4,-3.2));
#2003=VECTOR('',#2232,1.0);
#2004=COLOUR_RGB('',0.121568627655506,0.121568627655506,0.121568627655506);
#2005=CARTESIAN_POINT('',(-3.00000000000001,0.4,3.2));
#2006=CARTESIAN_POINT('',(-3.00000000000001,0.4,3.2));
#2007=VECTOR('',#2233,1.0);
#2008=CARTESIAN_POINT('',(-3.00000000000001,0.4,-3.2));
#2009=CARTESIAN_POINT('',(-3.00000000000001,0.4,-3.2));
#2010=VECTOR('',#2234,1.0);
#2011=CARTESIAN_POINT('',(-3.00000000000001,0.4,-3.2));
#2012=VECTOR('',#2235,1.0);
#2013=COLOUR_RGB('',0.121568627655506,0.121568627655506,0.121568627655506);
#2014=CARTESIAN_POINT('',(-3.40000000000001,0.0,3.2));
#2015=CARTESIAN_POINT('',(-3.00000000000001,0.4,3.2));
#2016=VECTOR('',#2236,1.0);
#2017=CARTESIAN_POINT('',(-3.40000000000001,0.0,-3.2));
#2018=CARTESIAN_POINT('',(-3.40000000000001,0.0,-3.2));
#2019=VECTOR('',#2237,1.0);
#2020=CARTESIAN_POINT('',(-3.00000000000001,0.4,-3.2));
#2021=VECTOR('',#2238,1.0);
#2022=COLOUR_RGB('',0.121568627655506,0.121568627655506,0.121568627655506);
#2023=CARTESIAN_POINT('',(-6.20000000000001,0.0,3.2));
#2024=CARTESIAN_POINT('',(-6.20000000000001,0.0,3.2));
#2025=VECTOR('',#2239,1.0);
#2026=CARTESIAN_POINT('',(-6.20000000000001,0.0,-3.2));
#2027=CARTESIAN_POINT('',(-6.20000000000001,0.0,-3.2));
#2028=VECTOR('',#2240,1.0);
#2029=CARTESIAN_POINT('',(-6.20000000000001,0.0,-3.2));
#2030=VECTOR('',#2241,1.0);
#2031=COLOUR_RGB('',0.121568627655506,0.121568627655506,0.121568627655506);
#2032=CARTESIAN_POINT('',(-6.60000000000001,0.4,3.2));
#2033=CARTESIAN_POINT('',(-6.20000000000001,0.0,3.2));
#2034=VECTOR('',#2242,1.0);
#2035=CARTESIAN_POINT('',(-6.60000000000001,0.4,-3.2));
#2036=CARTESIAN_POINT('',(-6.60000000000001,0.4,-3.2));
#2037=VECTOR('',#2243,1.0);
#2038=CARTESIAN_POINT('',(-6.20000000000001,0.0,-3.2));
#2039=VECTOR('',#2244,1.0);
#2040=COLOUR_RGB('',0.121568627655506,0.121568627655506,0.121568627655506);
#2041=CARTESIAN_POINT('',(-9.90000000000001,0.4,3.2));
#2042=CARTESIAN_POINT('',(-9.90000000000001,0.4,3.2));
#2043=VECTOR('',#2245,1.0);
#2044=CARTESIAN_POINT('',(-9.90000000000001,0.4,-3.2));
#2045=CARTESIAN_POINT('',(-9.90000000000001,0.4,-3.2));
#2046=VECTOR('',#2246,1.0);
#2047=CARTESIAN_POINT('',(-9.90000000000001,0.4,-3.2));
#2048=VECTOR('',#2247,1.0);
#2049=COLOUR_RGB('',0.121568627655506,0.121568627655506,0.121568627655506);
#2050=CARTESIAN_POINT('',(-9.90000000000001,0.4,3.2));
#2051=VECTOR('',#2248,1.0);
#2052=CARTESIAN_POINT('',(-9.90000000000001,0.4,-3.2));
#2053=VECTOR('',#2249,1.0);
#2054=COLOUR_RGB('',0.121568627655506,0.121568627655506,0.121568627655506);
#2055=COLOUR_RGB('',0.121568627655506,0.121568627655506,0.121568627655506);
#2056=DIRECTION('',(-0.0,-0.0,-1.0));
#2057=CARTESIAN_POINT('',(4.7,2.9,3.2));
#2058=DIRECTION('',(0.0,0.0,-1.0));
#2059=DIRECTION('',(1.0,0.0,0.0));
#2060=DIRECTION('',(-0.0,0.0,1.0));
#2061=CARTESIAN_POINT('',(4.7,2.9,-3.2));
#2062=DIRECTION('',(0.0,0.0,1.0));
#2063=DIRECTION('',(1.0,0.0,0.0));
#2064=DIRECTION('',(-0.0,-0.0,-1.0));
#2065=CARTESIAN_POINT('',(-4.8,2.9,3.2));
#2066=DIRECTION('',(0.0,0.0,-1.0));
#2067=DIRECTION('',(1.0,0.0,0.0));
#2068=DIRECTION('',(-0.0,-0.0,-1.0));
#2069=CARTESIAN_POINT('',(-4.8,2.9,-3.2));
#2070=DIRECTION('',(0.0,0.0,1.0));
#2071=DIRECTION('',(1.0,0.0,0.0));
#2072=DIRECTION('',(-0.0,0.0,1.0));
#2073=CARTESIAN_POINT('',(-4.8,2.9,-3.2));
#2074=DIRECTION('',(0.0,0.0,1.0));
#2075=DIRECTION('',(1.0,0.0,0.0));
#2076=DIRECTION('',(0.0,0.0,1.0));
#2077=CARTESIAN_POINT('',(-4.8,2.9,3.2));
#2078=DIRECTION('',(0.0,0.0,-1.0));
#2079=DIRECTION('',(1.0,0.0,0.0));
#2080=DIRECTION('',(-0.0,-0.0,-1.0));
#2081=CARTESIAN_POINT('',(9.87707999744342,17.1,1.8));
#2082=DIRECTION('',(0.0,0.0,-1.0));
#2083=DIRECTION('',(1.0,0.0,0.0));
#2084=DIRECTION('',(0.0,0.0,1.0));
#2085=CARTESIAN_POINT('',(9.87707999744342,17.1,-1.8));
#2086=DIRECTION('',(0.0,0.0,1.0));
#2087=DIRECTION('',(1.0,0.0,0.0));
#2088=DIRECTION('',(-0.0,0.0,-1.0));
#2089=CARTESIAN_POINT('',(9.87707999744342,17.1,1.8));
#2090=DIRECTION('',(0.0,0.0,1.0));
#2091=DIRECTION('',(1.0,0.0,0.0));
#2092=DIRECTION('',(0.0,0.0,1.0));
#2093=CARTESIAN_POINT('',(9.87707999744342,17.1,-1.8));
#2094=DIRECTION('',(0.0,0.0,1.0));
#2095=DIRECTION('',(1.0,0.0,0.0));
#2096=DIRECTION('',(-0.0,0.0,1.0));
#2097=DIRECTION('',(0.0,1.0,0.0));
#2098=DIRECTION('',(0.0,0.0,-1.0));
#2099=DIRECTION('',(0.0,-1.0,0.0));
#2100=DIRECTION('',(-1.0,1.30614473485313E-016,0.0));
#2101=DIRECTION('',(0.0,-1.0,0.0));
#2102=DIRECTION('',(-1.0,0.0,0.0));
#2103=DIRECTION('',(1.0,-1.30614473485313E-016,0.0));
#2104=DIRECTION('',(1.0,0.0,0.0));
#2105=DIRECTION('',(0.0,1.0,0.0));
#2106=DIRECTION('',(0.0,0.0,-1.0));
#2107=DIRECTION('',(-0.0,0.0,-1.0));
#2108=DIRECTION('',(-0.0,0.0,1.0));
#2109=DIRECTION('',(0.0,1.0,0.0));
#2110=DIRECTION('',(0.0,0.0,-1.0));
#2111=DIRECTION('',(0.0,-1.0,0.0));
#2112=DIRECTION('',(-1.0,-9.40866970021319E-018,0.0));
#2113=DIRECTION('',(0.0,-1.0,0.0));
#2114=DIRECTION('',(-1.0,0.0,0.0));
#2115=DIRECTION('',(1.0,9.40866970021319E-018,-0.0));
#2116=DIRECTION('',(1.0,0.0,0.0));
#2117=DIRECTION('',(0.0,1.0,0.0));
#2118=DIRECTION('',(0.0,0.0,-1.0));
#2119=DIRECTION('',(-0.0,-0.0,-1.0));
#2120=DIRECTION('',(-0.0,0.0,1.0));
#2121=DIRECTION('',(0.0,1.0,0.0));
#2122=DIRECTION('',(0.0,0.0,-1.0));
#2123=DIRECTION('',(0.0,-1.0,0.0));
#2124=DIRECTION('',(-1.0,0.0,0.0));
#2125=DIRECTION('',(0.0,-1.0,0.0));
#2126=DIRECTION('',(-1.0,0.0,0.0));
#2127=DIRECTION('',(1.0,0.0,-0.0));
#2128=DIRECTION('',(1.0,0.0,0.0));
#2129=DIRECTION('',(0.0,1.0,0.0));
#2130=DIRECTION('',(0.0,0.0,-1.0));
#2131=DIRECTION('',(-0.0,-0.0,-1.0));
#2132=DIRECTION('',(1.0,0.0,0.0));
#2133=DIRECTION('',(0.0,-1.0,0.0));
#2134=DIRECTION('',(-0.961261695938318,-0.275637355817001,0.0));
#2135=DIRECTION('',(0.275637355817037,-0.961261695938308,0.0));
#2136=CARTESIAN_POINT('',(9.87707999744342,17.1,-1.8));
#2137=DIRECTION('',(0.0,0.0,1.0));
#2138=DIRECTION('',(1.0,0.0,0.0));
#2139=DIRECTION('',(0.961261695938217,0.275637355817355,0.0));
#2140=CARTESIAN_POINT('',(9.87707999744342,17.1,-1.8));
#2141=DIRECTION('',(0.0,0.0,1.0));
#2142=DIRECTION('',(1.0,0.0,0.0));
#2143=DIRECTION('',(-0.275637355816993,0.961261695938321,0.0));
#2144=DIRECTION('',(0.961261695938319,0.275637355816999,0.0));
#2145=DIRECTION('',(0.0,1.0,0.0));
#2146=DIRECTION('',(0.0,0.0,-1.0));
#2147=DIRECTION('',(0.0,1.0,0.0));
#2148=DIRECTION('',(0.0,0.0,1.0));
#2149=DIRECTION('',(0.0,0.0,1.0));
#2150=CARTESIAN_POINT('',(9.87707999744342,17.1,1.8));
#2151=DIRECTION('',(0.0,0.0,1.0));
#2152=DIRECTION('',(1.0,0.0,0.0));
#2153=DIRECTION('',(0.275637355816993,-0.961261695938321,0.0));
#2154=DIRECTION('',(0.0,0.0,1.0));
#2155=DIRECTION('',(-0.961261695938319,-0.275637355816999,-0.0));
#2156=DIRECTION('',(0.0,0.0,1.0));
#2157=DIRECTION('',(0.0,0.0,1.0));
#2158=DIRECTION('',(-0.0,-1.0,-0.0));
#2159=DIRECTION('',(0.961261695938318,0.275637355817001,0.0));
#2160=DIRECTION('',(0.0,0.0,1.0));
#2161=DIRECTION('',(-0.275637355817037,0.961261695938308,0.0));
#2162=DIRECTION('',(0.0,0.0,1.0));
#2163=CARTESIAN_POINT('',(9.87707999744342,17.1,1.8));
#2164=DIRECTION('',(0.0,0.0,-1.0));
#2165=DIRECTION('',(1.0,0.0,0.0));
#2166=DIRECTION('',(-0.961261695938217,-0.275637355817355,-0.0));
#2167=DIRECTION('',(-1.0,0.0,0.0));
#2168=DIRECTION('',(1.0,0.0,0.0));
#2169=DIRECTION('',(-1.63001962914294E-016,1.0,0.0));
#2170=CARTESIAN_POINT('',(-2.80000000000001,10.6,-1.6));
#2171=DIRECTION('',(0.0,0.0,1.0));
#2172=DIRECTION('',(1.0,0.0,0.0));
#2173=DIRECTION('',(0.0,-1.0,0.0));
#2174=DIRECTION('',(-0.0,0.0,-1.0));
#2175=DIRECTION('',(-1.63001962914294E-016,1.0,0.0));
#2176=DIRECTION('',(0.0,0.0,1.0));
#2177=CARTESIAN_POINT('',(-2.80000000000001,10.6,1.6));
#2178=DIRECTION('',(0.0,0.0,-1.0));
#2179=DIRECTION('',(1.0,0.0,0.0));
#2180=DIRECTION('',(0.0,0.0,1.0));
#2181=DIRECTION('',(0.0,0.0,1.0));
#2182=DIRECTION('',(0.0,-1.0,0.0));
#2183=DIRECTION('',(-1.0,0.0,0.0));
#2184=DIRECTION('',(-1.0,0.0,0.0));
#2185=DIRECTION('',(0.0,0.0,1.0));
#2186=DIRECTION('',(1.0,0.0,0.0));
#2187=DIRECTION('',(-0.0,-0.0,-1.0));
#2188=CARTESIAN_POINT('',(-4.8,2.9,3.2));
#2189=DIRECTION('',(0.0,0.0,-1.0));
#2190=DIRECTION('',(1.0,0.0,0.0));
#2191=CARTESIAN_POINT('',(-4.8,2.9,-3.2));
#2192=DIRECTION('',(0.0,0.0,1.0));
#2193=DIRECTION('',(1.0,0.0,0.0));
#2194=DIRECTION('',(1.0,0.0,-0.0));
#2195=DIRECTION('',(-1.0,0.0,0.0));
#2196=CARTESIAN_POINT('',(-4.8,2.9,-3.2));
#2197=DIRECTION('',(0.0,0.0,1.0));
#2198=DIRECTION('',(1.0,0.0,0.0));
#2199=CARTESIAN_POINT('',(-4.8,2.9,3.2));
#2200=DIRECTION('',(0.0,0.0,-1.0));
#2201=DIRECTION('',(1.0,0.0,0.0));
#2202=CARTESIAN_POINT('',(4.7,2.9,-3.2));
#2203=DIRECTION('',(0.0,0.0,1.0));
#2204=DIRECTION('',(1.0,0.0,0.0));
#2205=CARTESIAN_POINT('',(4.7,2.9,3.2));
#2206=DIRECTION('',(0.0,0.0,-1.0));
#2207=DIRECTION('',(1.0,0.0,0.0));
#2208=DIRECTION('',(1.0,0.0,0.0));
#2209=DIRECTION('',(0.0,0.0,1.0));
#2210=DIRECTION('',(1.0,0.0,0.0));
#2211=DIRECTION('',(0.0,0.0,1.0));
#2212=DIRECTION('',(0.536875492193158,-0.843661487732108,0.0));
#2213=DIRECTION('',(0.0,0.0,1.0));
#2214=DIRECTION('',(-0.536875492193158,0.843661487732108,0.0));
#2215=DIRECTION('',(1.0,-1.75876914792104E-016,0.0));
#2216=DIRECTION('',(0.0,0.0,1.0));
#2217=DIRECTION('',(-1.0,1.75876914792104E-016,0.0));
#2218=DIRECTION('',(-0.0,-1.0,-0.0));
#2219=DIRECTION('',(0.0,0.0,1.0));
#2220=DIRECTION('',(0.0,1.0,0.0));
#2221=DIRECTION('',(-1.0,1.30614473485313E-016,0.0));
#2222=DIRECTION('',(0.0,0.0,1.0));
#2223=DIRECTION('',(-1.0,1.30614473485313E-016,0.0));
#2224=DIRECTION('',(-0.707106781186545,-0.70710678118655,-0.0));
#2225=DIRECTION('',(0.0,0.0,1.0));
#2226=DIRECTION('',(0.707106781186545,0.70710678118655,0.0));
#2227=DIRECTION('',(-1.0,1.22460635382238E-016,0.0));
#2228=DIRECTION('',(0.0,0.0,1.0));
#2229=DIRECTION('',(-1.0,1.22460635382238E-016,0.0));
#2230=DIRECTION('',(-0.707106781186547,0.707106781186548,0.0));
#2231=DIRECTION('',(0.0,0.0,1.0));
#2232=DIRECTION('',(0.707106781186547,-0.707106781186548,0.0));
#2233=DIRECTION('',(-1.0,-9.40866970021319E-018,-0.0));
#2234=DIRECTION('',(0.0,0.0,1.0));
#2235=DIRECTION('',(1.0,9.40866970021319E-018,0.0));
#2236=DIRECTION('',(-0.707106781186548,-0.707106781186548,0.0));
#2237=DIRECTION('',(0.0,0.0,1.0));
#2238=DIRECTION('',(-0.707106781186548,-0.707106781186548,0.0));
#2239=DIRECTION('',(-1.0,-0.0,-0.0));
#2240=DIRECTION('',(0.0,0.0,1.0));
#2241=DIRECTION('',(1.0,0.0,0.0));
#2242=DIRECTION('',(-0.707106781186548,0.707106781186548,0.0));
#2243=DIRECTION('',(0.0,0.0,1.0));
#2244=DIRECTION('',(-0.707106781186548,0.707106781186548,0.0));
#2245=DIRECTION('',(-1.0,-0.0,-0.0));
#2246=DIRECTION('',(0.0,0.0,1.0));
#2247=DIRECTION('',(1.0,0.0,0.0));
#2248=DIRECTION('',(0.0,1.0,0.0));
#2249=DIRECTION('',(0.0,1.0,0.0));
ENDSEC;
END-ISO-10303-21;
