%TF.GenerationSoftware,KiCad,Pcbnew,10.0.4*%
%TF.CreationDate,2026-07-26T12:37:20-07:00*%
%TF.ProjectId,RBF PCB,52424620-5043-4422-9e6b-696361645f70,rev?*%
%TF.SameCoordinates,Original*%
%TF.FileFunction,Copper,L2,Bot*%
%TF.FilePolarity,Positive*%
%FSLAX46Y46*%
G04 Gerber Fmt 4.6, Leading zero omitted, Abs format (unit mm)*
G04 Created by KiCad (PCBNEW 10.0.4) date 2026-07-26 12:37:20*
%MOMM*%
%LPD*%
G01*
G04 APERTURE LIST*
G04 Aperture macros list*
%AMRoundRect*
0 Rectangle with rounded corners*
0 $1 Rounding radius*
0 $2 $3 $4 $5 $6 $7 $8 $9 X,Y pos of 4 corners*
0 Add a 4 corners polygon primitive as box body*
4,1,4,$2,$3,$4,$5,$6,$7,$8,$9,$2,$3,0*
0 Add four circle primitives for the rounded corners*
1,1,$1+$1,$2,$3*
1,1,$1+$1,$4,$5*
1,1,$1+$1,$6,$7*
1,1,$1+$1,$8,$9*
0 Add four rect primitives between the rounded corners*
20,1,$1+$1,$2,$3,$4,$5,0*
20,1,$1+$1,$4,$5,$6,$7,0*
20,1,$1+$1,$6,$7,$8,$9,0*
20,1,$1+$1,$8,$9,$2,$3,0*%
G04 Aperture macros list end*
%TA.AperFunction,ComponentPad*%
%ADD10C,0.800000*%
%TD*%
%TA.AperFunction,ComponentPad*%
%ADD11C,5.400000*%
%TD*%
%TA.AperFunction,ComponentPad*%
%ADD12R,1.575000X1.575000*%
%TD*%
%TA.AperFunction,ComponentPad*%
%ADD13C,1.575000*%
%TD*%
%TA.AperFunction,ComponentPad*%
%ADD14RoundRect,0.250000X0.575000X-0.350000X0.575000X0.350000X-0.575000X0.350000X-0.575000X-0.350000X0*%
%TD*%
%TA.AperFunction,ComponentPad*%
%ADD15O,1.650000X1.200000*%
%TD*%
%TA.AperFunction,ComponentPad*%
%ADD16R,4.000000X2.000000*%
%TD*%
%TA.AperFunction,Conductor*%
%ADD17C,0.200000*%
%TD*%
G04 APERTURE END LIST*
D10*
%TO.P,H4,1*%
%TO.N,N/C*%
X166262500Y-135312500D03*
X166855609Y-133880609D03*
X166855609Y-136744391D03*
X168287500Y-133287500D03*
D11*
X168287500Y-135312500D03*
D10*
X168287500Y-137337500D03*
X169719391Y-133880609D03*
X169719391Y-136744391D03*
X170312500Y-135312500D03*
%TD*%
D12*
%TO.P,J9,1,1_1*%
%TO.N,NC*%
X168812500Y-122642500D03*
D13*
%TO.P,J9,2,2_2*%
%TO.N,VBAT-*%
X168812500Y-125142500D03*
%TD*%
D14*
%TO.P,J1,1,Pin_1_1*%
%TO.N,VBAT+*%
X138287500Y-114372500D03*
D15*
%TO.P,J1,2,Pin_2_2*%
%TO.N,VBAT-*%
X140287500Y-114372500D03*
%TO.P,J1,3,Pin_3_3*%
%TO.N,VBAT+*%
X138287500Y-112372500D03*
%TO.P,J1,4,Pin_4_4*%
%TO.N,VBAT-*%
X140287500Y-112372500D03*
%TO.P,J1,5,Pin_5_5*%
%TO.N,VBAT+*%
X138287500Y-110372500D03*
%TO.P,J1,6,Pin_6_6*%
%TO.N,VBAT-*%
X140287500Y-110372500D03*
%TO.P,J1,7,Pin_7_7*%
%TO.N,VBAT+*%
X138287500Y-108372500D03*
%TO.P,J1,8,Pin_8_8*%
%TO.N,VBAT-*%
X140287500Y-108372500D03*
%TO.P,J1,9,Pin_9_9*%
%TO.N,VBAT+*%
X138287500Y-106372500D03*
%TO.P,J1,10,Pin_10_10*%
%TO.N,unconnected-(J1-Pin_10-Pad10)*%
X140287500Y-106372500D03*
%TO.P,J1,11,Pin_11_11*%
%TO.N,unconnected-(J1-Pin_11-Pad11)*%
X138287500Y-104372500D03*
%TO.P,J1,12,Pin_12_12*%
%TO.N,unconnected-(J1-Pin_12-Pad12)*%
X140287500Y-104372500D03*
%TD*%
D14*
%TO.P,J5,1,Pin_1_1*%
%TO.N,NC*%
X167337500Y-114372500D03*
D15*
%TO.P,J5,2,Pin_2_2*%
%TO.N,VBAT-*%
X169337500Y-114372500D03*
%TO.P,J5,3,Pin_3_3*%
%TO.N,NC*%
X167337500Y-112372500D03*
%TO.P,J5,4,Pin_4_4*%
%TO.N,VBAT-*%
X169337500Y-112372500D03*
%TO.P,J5,5,Pin_5_5*%
%TO.N,NC*%
X167337500Y-110372500D03*
%TO.P,J5,6,Pin_6_6*%
%TO.N,VBAT-*%
X169337500Y-110372500D03*
%TO.P,J5,7,Pin_7_7*%
%TO.N,NC*%
X167337500Y-108372500D03*
%TO.P,J5,8,Pin_8_8*%
%TO.N,VBAT-*%
X169337500Y-108372500D03*
%TO.P,J5,9,Pin_9_9*%
%TO.N,NC*%
X167337500Y-106372500D03*
%TO.P,J5,10,Pin_10_10*%
%TO.N,unconnected-(J5-Pin_10-Pad10)*%
X169337500Y-106372500D03*
%TO.P,J5,11,Pin_11_11*%
%TO.N,unconnected-(J5-Pin_11-Pad11)*%
X167337500Y-104372500D03*
%TO.P,J5,12,Pin_12_12*%
%TO.N,unconnected-(J5-Pin_12-Pad12)*%
X169337500Y-104372500D03*
%TD*%
D14*
%TO.P,J2,1,Pin_1_1*%
%TO.N,VBAT+*%
X138287500Y-93302500D03*
D15*
%TO.P,J2,2,Pin_2_2*%
%TO.N,VBAT-*%
X140287500Y-93302500D03*
%TO.P,J2,3,Pin_3_3*%
%TO.N,VBAT+*%
X138287500Y-91302500D03*
%TO.P,J2,4,Pin_4_4*%
%TO.N,VBAT-*%
X140287500Y-91302500D03*
%TO.P,J2,5,Pin_5_5*%
%TO.N,VBAT+*%
X138287500Y-89302500D03*
%TO.P,J2,6,Pin_6_6*%
%TO.N,VBAT-*%
X140287500Y-89302500D03*
%TO.P,J2,7,Pin_7_7*%
%TO.N,VBAT+*%
X138287500Y-87302500D03*
%TO.P,J2,8,Pin_8_8*%
%TO.N,VBAT-*%
X140287500Y-87302500D03*
%TO.P,J2,9,Pin_9_9*%
%TO.N,VBAT+*%
X138287500Y-85302500D03*
%TO.P,J2,10,Pin_10_10*%
%TO.N,unconnected-(J2-Pin_10-Pad10)*%
X140287500Y-85302500D03*
%TO.P,J2,11,Pin_11_11*%
%TO.N,unconnected-(J2-Pin_11-Pad11)*%
X138287500Y-83302500D03*
%TO.P,J2,12,Pin_12_12*%
%TO.N,unconnected-(J2-Pin_12-Pad12)*%
X140287500Y-83302500D03*
%TD*%
D16*
%TO.P,SW1,1,COM_1*%
%TO.N,VBAT+*%
X154327500Y-84252500D03*
%TO.P,SW1,2,NO_2*%
%TO.N,unconnected-(SW1-NO-Pad2)*%
X154327500Y-93052500D03*
%TO.P,SW1,3,NC_3*%
%TO.N,NC*%
X154327500Y-100352500D03*
%TD*%
D10*
%TO.P,H2,1*%
%TO.N,N/C*%
X137262500Y-135312500D03*
X137855609Y-133880609D03*
X137855609Y-136744391D03*
X139287500Y-133287500D03*
D11*
X139287500Y-135312500D03*
D10*
X139287500Y-137337500D03*
X140719391Y-133880609D03*
X140719391Y-136744391D03*
X141312500Y-135312500D03*
%TD*%
D14*
%TO.P,J6,1,Pin_1_1*%
%TO.N,NC*%
X167337500Y-93302500D03*
D15*
%TO.P,J6,2,Pin_2_2*%
%TO.N,VBAT-*%
X169337500Y-93302500D03*
%TO.P,J6,3,Pin_3_3*%
%TO.N,NC*%
X167337500Y-91302500D03*
%TO.P,J6,4,Pin_4_4*%
%TO.N,VBAT-*%
X169337500Y-91302500D03*
%TO.P,J6,5,Pin_5_5*%
%TO.N,NC*%
X167337500Y-89302500D03*
%TO.P,J6,6,Pin_6_6*%
%TO.N,VBAT-*%
X169337500Y-89302500D03*
%TO.P,J6,7,Pin_7_7*%
%TO.N,NC*%
X167337500Y-87302500D03*
%TO.P,J6,8,Pin_8_8*%
%TO.N,VBAT-*%
X169337500Y-87302500D03*
%TO.P,J6,9,Pin_9_9*%
%TO.N,NC*%
X167337500Y-85302500D03*
%TO.P,J6,10,Pin_10_10*%
%TO.N,unconnected-(J6-Pin_10-Pad10)*%
X169337500Y-85302500D03*
%TO.P,J6,11,Pin_11_11*%
%TO.N,unconnected-(J6-Pin_11-Pad11)*%
X167337500Y-83302500D03*
%TO.P,J6,12,Pin_12_12*%
%TO.N,unconnected-(J6-Pin_12-Pad12)*%
X169337500Y-83302500D03*
%TD*%
D10*
%TO.P,H3,1*%
%TO.N,N/C*%
X166262500Y-75312500D03*
X166855609Y-73880609D03*
X166855609Y-76744391D03*
X168287500Y-73287500D03*
D11*
X168287500Y-75312500D03*
D10*
X168287500Y-77337500D03*
X169719391Y-73880609D03*
X169719391Y-76744391D03*
X170312500Y-75312500D03*
%TD*%
%TO.P,H1,1*%
%TO.N,N/C*%
X137262500Y-75312500D03*
X137855609Y-73880609D03*
X137855609Y-76744391D03*
X139287500Y-73287500D03*
D11*
X139287500Y-75312500D03*
D10*
X139287500Y-77337500D03*
X140719391Y-73880609D03*
X140719391Y-76744391D03*
X141312500Y-75312500D03*
%TD*%
%TO.N,unconnected-(J2-Pin_10-Pad10)*%
D17*
X140287500Y-85302500D02*
X140617500Y-85632500D01*
%TD*%
%TA.AperFunction,Conductor*%
%TO.N,VBAT-*%
G36*
X169290202Y-70813117D02*
G01*
X169674273Y-70829886D01*
X169685005Y-70830826D01*
X170063463Y-70880650D01*
X170074101Y-70882525D01*
X170446779Y-70965147D01*
X170457220Y-70967945D01*
X170821265Y-71082727D01*
X170831411Y-71086420D01*
X171184078Y-71232500D01*
X171193869Y-71237066D01*
X171532442Y-71413316D01*
X171541810Y-71418724D01*
X171863744Y-71623818D01*
X171872605Y-71630023D01*
X172175430Y-71862389D01*
X172183717Y-71869343D01*
X172465135Y-72127215D01*
X172472784Y-72134864D01*
X172730656Y-72416282D01*
X172737610Y-72424569D01*
X172969976Y-72727394D01*
X172976181Y-72736255D01*
X173181275Y-73058189D01*
X173186683Y-73067557D01*
X173362930Y-73406123D01*
X173367502Y-73415927D01*
X173513575Y-73768578D01*
X173517275Y-73778744D01*
X173632053Y-74142776D01*
X173634853Y-74153224D01*
X173717472Y-74525890D01*
X173719350Y-74536544D01*
X173769171Y-74914972D01*
X173770114Y-74925748D01*
X173786882Y-75309797D01*
X173787000Y-75315206D01*
X173787000Y-135309793D01*
X173786882Y-135315202D01*
X173770114Y-135699251D01*
X173769171Y-135710027D01*
X173719350Y-136088455D01*
X173717472Y-136099109D01*
X173634853Y-136471775D01*
X173632053Y-136482223D01*
X173517275Y-136846255D01*
X173513575Y-136856421D01*
X173367502Y-137209072D01*
X173362930Y-137218876D01*
X173186683Y-137557442D01*
X173181275Y-137566810D01*
X172976181Y-137888744D01*
X172969976Y-137897605D01*
X172737610Y-138200430D01*
X172730656Y-138208717D01*
X172472784Y-138490135D01*
X172465135Y-138497784D01*
X172183717Y-138755656D01*
X172175430Y-138762610D01*
X171872605Y-138994976D01*
X171863744Y-139001181D01*
X171541810Y-139206275D01*
X171532442Y-139211683D01*
X171193876Y-139387930D01*
X171184072Y-139392502D01*
X170831421Y-139538575D01*
X170821255Y-139542275D01*
X170457223Y-139657053D01*
X170446775Y-139659853D01*
X170074109Y-139742472D01*
X170063455Y-139744350D01*
X169685027Y-139794171D01*
X169674251Y-139795114D01*
X169290203Y-139811882D01*
X169284794Y-139812000D01*
X139290206Y-139812000D01*
X139284797Y-139811882D01*
X138900748Y-139795114D01*
X138889974Y-139794171D01*
X138827507Y-139785947D01*
X138511544Y-139744350D01*
X138500890Y-139742472D01*
X138128224Y-139659853D01*
X138117776Y-139657053D01*
X137753744Y-139542275D01*
X137743578Y-139538575D01*
X137390927Y-139392502D01*
X137381123Y-139387930D01*
X137042557Y-139211683D01*
X137033189Y-139206275D01*
X136711255Y-139001181D01*
X136702394Y-138994976D01*
X136399569Y-138762610D01*
X136391282Y-138755656D01*
X136109864Y-138497784D01*
X136102215Y-138490135D01*
X135844343Y-138208717D01*
X135837389Y-138200430D01*
X135605023Y-137897605D01*
X135598818Y-137888744D01*
X135393724Y-137566810D01*
X135388316Y-137557442D01*
X135212069Y-137218876D01*
X135207497Y-137209072D01*
X135190259Y-137167456D01*
X135061420Y-136856411D01*
X135057724Y-136846255D01*
X134942946Y-136482223D01*
X134940146Y-136471775D01*
X134933601Y-136442252D01*
X134857525Y-136099101D01*
X134855649Y-136088455D01*
X134824184Y-135849451D01*
X134805826Y-135710005D01*
X134804886Y-135699273D01*
X134788118Y-135315202D01*
X134788000Y-135309793D01*
X134788000Y-135132759D01*
X136087000Y-135132759D01*
X136087000Y-135492240D01*
X136127246Y-135849435D01*
X136127248Y-135849451D01*
X136207237Y-136199907D01*
X136207241Y-136199919D01*
X136325965Y-136539211D01*
X136481932Y-136863079D01*
X136481934Y-136863082D01*
X136673185Y-137167456D01*
X136897312Y-137448503D01*
X137151497Y-137702688D01*
X137432544Y-137926815D01*
X137736918Y-138118066D01*
X138060792Y-138274036D01*
X138315619Y-138363203D01*
X138400080Y-138392758D01*
X138400092Y-138392762D01*
X138750552Y-138472752D01*
X139107760Y-138512999D01*
X139107761Y-138513000D01*
X139107764Y-138513000D01*
X139467239Y-138513000D01*
X139467239Y-138512999D01*
X139824448Y-138472752D01*
X140174908Y-138392762D01*
X140514208Y-138274036D01*
X140838082Y-138118066D01*
X141142456Y-137926815D01*
X141423503Y-137702688D01*
X141677688Y-137448503D01*
X141901815Y-137167456D01*
X142093066Y-136863082D01*
X142249036Y-136539208D01*
X142367762Y-136199908D01*
X142447752Y-135849448D01*
X142488000Y-135492236D01*
X142488000Y-135132764D01*
X142487999Y-135132759D01*
X165087000Y-135132759D01*
X165087000Y-135492240D01*
X165127246Y-135849435D01*
X165127248Y-135849451D01*
X165207237Y-136199907D01*
X165207241Y-136199919D01*
X165325965Y-136539211D01*
X165481932Y-136863079D01*
X165481934Y-136863082D01*
X165673185Y-137167456D01*
X165897312Y-137448503D01*
X166151497Y-137702688D01*
X166432544Y-137926815D01*
X166736918Y-138118066D01*
X167060792Y-138274036D01*
X167315619Y-138363203D01*
X167400080Y-138392758D01*
X167400092Y-138392762D01*
X167750552Y-138472752D01*
X168107760Y-138512999D01*
X168107761Y-138513000D01*
X168107764Y-138513000D01*
X168467239Y-138513000D01*
X168467239Y-138512999D01*
X168824448Y-138472752D01*
X169174908Y-138392762D01*
X169514208Y-138274036D01*
X169838082Y-138118066D01*
X170142456Y-137926815D01*
X170423503Y-137702688D01*
X170677688Y-137448503D01*
X170901815Y-137167456D01*
X171093066Y-136863082D01*
X171249036Y-136539208D01*
X171367762Y-136199908D01*
X171447752Y-135849448D01*
X171488000Y-135492236D01*
X171488000Y-135132764D01*
X171447752Y-134775552D01*
X171367762Y-134425092D01*
X171249036Y-134085792D01*
X171093066Y-133761918D01*
X170901815Y-133457544D01*
X170677688Y-133176497D01*
X170423503Y-132922312D01*
X170142456Y-132698185D01*
X169838082Y-132506934D01*
X169838079Y-132506932D01*
X169514211Y-132350965D01*
X169174919Y-132232241D01*
X169174907Y-132232237D01*
X168824451Y-132152248D01*
X168824435Y-132152246D01*
X168467240Y-132112000D01*
X168467236Y-132112000D01*
X168107764Y-132112000D01*
X168107759Y-132112000D01*
X167750564Y-132152246D01*
X167750548Y-132152248D01*
X167400092Y-132232237D01*
X167400080Y-132232241D01*
X167060788Y-132350965D01*
X166736920Y-132506932D01*
X166432545Y-132698184D01*
X166151497Y-132922311D01*
X165897311Y-133176497D01*
X165673184Y-133457545D01*
X165481932Y-133761920D01*
X165325965Y-134085788D01*
X165207241Y-134425080D01*
X165207237Y-134425092D01*
X165127248Y-134775548D01*
X165127246Y-134775564D01*
X165087000Y-135132759D01*
X142487999Y-135132759D01*
X142447752Y-134775552D01*
X142367762Y-134425092D01*
X142249036Y-134085792D01*
X142093066Y-133761918D01*
X141901815Y-133457544D01*
X141677688Y-133176497D01*
X141423503Y-132922312D01*
X141142456Y-132698185D01*
X140838082Y-132506934D01*
X140838079Y-132506932D01*
X140514211Y-132350965D01*
X140174919Y-132232241D01*
X140174907Y-132232237D01*
X139824451Y-132152248D01*
X139824435Y-132152246D01*
X139467240Y-132112000D01*
X139467236Y-132112000D01*
X139107764Y-132112000D01*
X139107759Y-132112000D01*
X138750564Y-132152246D01*
X138750548Y-132152248D01*
X138400092Y-132232237D01*
X138400080Y-132232241D01*
X138060788Y-132350965D01*
X137736920Y-132506932D01*
X137432545Y-132698184D01*
X137151497Y-132922311D01*
X136897311Y-133176497D01*
X136673184Y-133457545D01*
X136481932Y-133761920D01*
X136325965Y-134085788D01*
X136207241Y-134425080D01*
X136207237Y-134425092D01*
X136127248Y-134775548D01*
X136127246Y-134775564D01*
X136087000Y-135132759D01*
X134788000Y-135132759D01*
X134788000Y-121807135D01*
X167524500Y-121807135D01*
X167524500Y-123477870D01*
X167524501Y-123477876D01*
X167530908Y-123537483D01*
X167581202Y-123672328D01*
X167581206Y-123672335D01*
X167667452Y-123787544D01*
X167667455Y-123787547D01*
X167782664Y-123873793D01*
X167782671Y-123873797D01*
X167917517Y-123924091D01*
X167917516Y-123924091D01*
X167924444Y-123924835D01*
X167977127Y-123930500D01*
X169647872Y-123930499D01*
X169707483Y-123924091D01*
X169842331Y-123873796D01*
X169957546Y-123787546D01*
X170043796Y-123672331D01*
X170094091Y-123537483D01*
X170100500Y-123477873D01*
X170100499Y-121807128D01*
X170094091Y-121747517D01*
X170043796Y-121612669D01*
X170043795Y-121612668D01*
X170043793Y-121612664D01*
X169957547Y-121497455D01*
X169957544Y-121497452D01*
X169842335Y-121411206D01*
X169842328Y-121411202D01*
X169707482Y-121360908D01*
X169707483Y-121360908D01*
X169647883Y-121354501D01*
X169647881Y-121354500D01*
X169647873Y-121354500D01*
X169647864Y-121354500D01*
X167977129Y-121354500D01*
X167977123Y-121354501D01*
X167917516Y-121360908D01*
X167782671Y-121411202D01*
X167782664Y-121411206D01*
X167667455Y-121497452D01*
X167667452Y-121497455D01*
X167581206Y-121612664D01*
X167581202Y-121612671D01*
X167530908Y-121747517D01*
X167524501Y-121807116D01*
X167524501Y-121807123D01*
X167524500Y-121807135D01*
X134788000Y-121807135D01*
X134788000Y-104285889D01*
X136962000Y-104285889D01*
X136962000Y-104459111D01*
X136989098Y-104630201D01*
X137042627Y-104794945D01*
X137121268Y-104949288D01*
X137223086Y-105089428D01*
X137345572Y-105211914D01*
X137345578Y-105211918D01*
X137428523Y-105272183D01*
X137471189Y-105327513D01*
X137477167Y-105397126D01*
X137444561Y-105458921D01*
X137428523Y-105472817D01*
X137345578Y-105533081D01*
X137345569Y-105533088D01*
X137223088Y-105655569D01*
X137223088Y-105655570D01*
X137223086Y-105655572D01*
X137179359Y-105715756D01*
X137121268Y-105795711D01*
X137042628Y-105950052D01*
X136989097Y-106114802D01*
X136962000Y-106285889D01*
X136962000Y-106459111D01*
X136989098Y-106630201D01*
X137042627Y-106794945D01*
X137121268Y-106949288D01*
X137223086Y-107089428D01*
X137345572Y-107211914D01*
X137360385Y-107222676D01*
X137428523Y-107272183D01*
X137471189Y-107327513D01*
X137477167Y-107397126D01*
X137444561Y-107458921D01*
X137428523Y-107472817D01*
X137345578Y-107533081D01*
X137345569Y-107533088D01*
X137223088Y-107655569D01*
X137223088Y-107655570D01*
X137223086Y-107655572D01*
X137179359Y-107715756D01*
X137121268Y-107795711D01*
X137042628Y-107950052D01*
X136989097Y-108114802D01*
X136962000Y-108285889D01*
X136962000Y-108459111D01*
X136989098Y-108630201D01*
X137042627Y-108794945D01*
X137121268Y-108949288D01*
X137223086Y-109089428D01*
X137345572Y-109211914D01*
X137345578Y-109211918D01*
X137428523Y-109272183D01*
X137471189Y-109327513D01*
X137477167Y-109397126D01*
X137444561Y-109458921D01*
X137428523Y-109472817D01*
X137345578Y-109533081D01*
X137345569Y-109533088D01*
X137223088Y-109655569D01*
X137223088Y-109655570D01*
X137223086Y-109655572D01*
X137179359Y-109715756D01*
X137121268Y-109795711D01*
X137042628Y-109950052D01*
X136989097Y-110114802D01*
X136962000Y-110285889D01*
X136962000Y-110459111D01*
X136989098Y-110630201D01*
X137042627Y-110794945D01*
X137121268Y-110949288D01*
X137223086Y-111089428D01*
X137345572Y-111211914D01*
X137345578Y-111211918D01*
X137428523Y-111272183D01*
X137471189Y-111327513D01*
X137477167Y-111397126D01*
X137444561Y-111458921D01*
X137428523Y-111472817D01*
X137345578Y-111533081D01*
X137345569Y-111533088D01*
X137223088Y-111655569D01*
X137223088Y-111655570D01*
X137223086Y-111655572D01*
X137179359Y-111715756D01*
X137121268Y-111795711D01*
X137042628Y-111950052D01*
X136989097Y-112114802D01*
X136962000Y-112285889D01*
X136962000Y-112459111D01*
X136989098Y-112630201D01*
X137042627Y-112794945D01*
X137121268Y-112949288D01*
X137223086Y-113089428D01*
X137223088Y-113089430D01*
X137330627Y-113196969D01*
X137364112Y-113258292D01*
X137359128Y-113327984D01*
X137317256Y-113383917D01*
X137308044Y-113390188D01*
X137243844Y-113429787D01*
X137119789Y-113553842D01*
X137027687Y-113703163D01*
X137027686Y-113703166D01*
X136972501Y-113869703D01*
X136972501Y-113869704D01*
X136972500Y-113869704D01*
X136962000Y-113972483D01*
X136962000Y-114772501D01*
X136962001Y-114772519D01*
X136972500Y-114875296D01*
X136972501Y-114875299D01*
X137027685Y-115041831D01*
X137027686Y-115041834D01*
X137119788Y-115191156D01*
X137243844Y-115315212D01*
X137393166Y-115407314D01*
X137559703Y-115462499D01*
X137662491Y-115473000D01*
X138912508Y-115472999D01*
X139015297Y-115462499D01*
X139181834Y-115407314D01*
X139331156Y-115315212D01*
X139455212Y-115191156D01*
X139547314Y-115041834D01*
X139602499Y-114875297D01*
X139613000Y-114772509D01*
X139612999Y-113972492D01*
X139602499Y-113869703D01*
X139547314Y-113703166D01*
X139455212Y-113553844D01*
X139331156Y-113429788D01*
X139331152Y-113429785D01*
X139266956Y-113390188D01*
X139220231Y-113338240D01*
X139209010Y-113269277D01*
X139236853Y-113205195D01*
X139244350Y-113196991D01*
X139351914Y-113089428D01*
X139453732Y-112949288D01*
X139532373Y-112794945D01*
X139585902Y-112630201D01*
X139613000Y-112459111D01*
X139613000Y-112285889D01*
X139585902Y-112114799D01*
X139532373Y-111950055D01*
X139453732Y-111795712D01*
X139351914Y-111655572D01*
X139229428Y-111533086D01*
X139146475Y-111472817D01*
X139103811Y-111417488D01*
X139097832Y-111347874D01*
X139130438Y-111286079D01*
X139146476Y-111272182D01*
X139229428Y-111211914D01*
X139351914Y-111089428D01*
X139453732Y-110949288D01*
X139532373Y-110794945D01*
X139585902Y-110630201D01*
X139613000Y-110459111D01*
X139613000Y-110285889D01*
X139585902Y-110114799D01*
X139532373Y-109950055D01*
X139453732Y-109795712D01*
X139351914Y-109655572D01*
X139229428Y-109533086D01*
X139146475Y-109472817D01*
X139103811Y-109417488D01*
X139097832Y-109347874D01*
X139130438Y-109286079D01*
X139146476Y-109272182D01*
X139229428Y-109211914D01*
X139351914Y-109089428D01*
X139453732Y-108949288D01*
X139532373Y-108794945D01*
X139585902Y-108630201D01*
X139613000Y-108459111D01*
X139613000Y-108285889D01*
X139585902Y-108114799D01*
X139532373Y-107950055D01*
X139453732Y-107795712D01*
X139351914Y-107655572D01*
X139229428Y-107533086D01*
X139146475Y-107472817D01*
X139129297Y-107450540D01*
X139109693Y-107430368D01*
X139108249Y-107423243D01*
X139103811Y-107417488D01*
X139101403Y-107389460D01*
X139095817Y-107361890D01*
X139098454Y-107355116D01*
X139097832Y-107347874D01*
X139110961Y-107322991D01*
X139121166Y-107296780D01*
X139128607Y-107289547D01*
X139130438Y-107286079D01*
X139146476Y-107272182D01*
X139214616Y-107222675D01*
X139280420Y-107199196D01*
X139348474Y-107215021D01*
X139360373Y-107222668D01*
X139485712Y-107313732D01*
X139640055Y-107392373D01*
X139804799Y-107445902D01*
X139975889Y-107473000D01*
X139975890Y-107473000D01*
X140599110Y-107473000D01*
X140599111Y-107473000D01*
X140770201Y-107445902D01*
X140934945Y-107392373D01*
X141089288Y-107313732D01*
X141229428Y-107211914D01*
X141351914Y-107089428D01*
X141453732Y-106949288D01*
X141532373Y-106794945D01*
X141585902Y-106630201D01*
X141613000Y-106459111D01*
X141613000Y-106285889D01*
X141585902Y-106114799D01*
X141532373Y-105950055D01*
X141453732Y-105795712D01*
X141351914Y-105655572D01*
X141229428Y-105533086D01*
X141146475Y-105472817D01*
X141103811Y-105417488D01*
X141097832Y-105347874D01*
X141130438Y-105286079D01*
X141146476Y-105272182D01*
X141229428Y-105211914D01*
X141351914Y-105089428D01*
X141453732Y-104949288D01*
X141532373Y-104794945D01*
X141585902Y-104630201D01*
X141613000Y-104459111D01*
X141613000Y-104285889D01*
X166012000Y-104285889D01*
X166012000Y-104459111D01*
X166039098Y-104630201D01*
X166092627Y-104794945D01*
X166171268Y-104949288D01*
X166273086Y-105089428D01*
X166395572Y-105211914D01*
X166395578Y-105211918D01*
X166478523Y-105272183D01*
X166521189Y-105327513D01*
X166527167Y-105397126D01*
X166494561Y-105458921D01*
X166478523Y-105472817D01*
X166395578Y-105533081D01*
X166395569Y-105533088D01*
X166273088Y-105655569D01*
X166273088Y-105655570D01*
X166273086Y-105655572D01*
X166229359Y-105715756D01*
X166171268Y-105795711D01*
X166092628Y-105950052D01*
X166039097Y-106114802D01*
X166012000Y-106285889D01*
X166012000Y-106459111D01*
X166039098Y-106630201D01*
X166092627Y-106794945D01*
X166171268Y-106949288D01*
X166273086Y-107089428D01*
X166395572Y-107211914D01*
X166410385Y-107222676D01*
X166478523Y-107272183D01*
X166521189Y-107327513D01*
X166527167Y-107397126D01*
X166494561Y-107458921D01*
X166478523Y-107472817D01*
X166395578Y-107533081D01*
X166395569Y-107533088D01*
X166273088Y-107655569D01*
X166273088Y-107655570D01*
X166273086Y-107655572D01*
X166229359Y-107715756D01*
X166171268Y-107795711D01*
X166092628Y-107950052D01*
X166039097Y-108114802D01*
X166012000Y-108285889D01*
X166012000Y-108459111D01*
X166039098Y-108630201D01*
X166092627Y-108794945D01*
X166171268Y-108949288D01*
X166273086Y-109089428D01*
X166395572Y-109211914D01*
X166395578Y-109211918D01*
X166478523Y-109272183D01*
X166521189Y-109327513D01*
X166527167Y-109397126D01*
X166494561Y-109458921D01*
X166478523Y-109472817D01*
X166395578Y-109533081D01*
X166395569Y-109533088D01*
X166273088Y-109655569D01*
X166273088Y-109655570D01*
X166273086Y-109655572D01*
X166229359Y-109715756D01*
X166171268Y-109795711D01*
X166092628Y-109950052D01*
X166039097Y-110114802D01*
X166012000Y-110285889D01*
X166012000Y-110459111D01*
X166039098Y-110630201D01*
X166092627Y-110794945D01*
X166171268Y-110949288D01*
X166273086Y-111089428D01*
X166395572Y-111211914D01*
X166395578Y-111211918D01*
X166478523Y-111272183D01*
X166521189Y-111327513D01*
X166527167Y-111397126D01*
X166494561Y-111458921D01*
X166478523Y-111472817D01*
X166395578Y-111533081D01*
X166395569Y-111533088D01*
X166273088Y-111655569D01*
X166273088Y-111655570D01*
X166273086Y-111655572D01*
X166229359Y-111715756D01*
X166171268Y-111795711D01*
X166092628Y-111950052D01*
X166039097Y-112114802D01*
X166012000Y-112285889D01*
X166012000Y-112459111D01*
X166039098Y-112630201D01*
X166092627Y-112794945D01*
X166171268Y-112949288D01*
X166273086Y-113089428D01*
X166273088Y-113089430D01*
X166380627Y-113196969D01*
X166414112Y-113258292D01*
X166409128Y-113327984D01*
X166367256Y-113383917D01*
X166358044Y-113390188D01*
X166293844Y-113429787D01*
X166169789Y-113553842D01*
X166077687Y-113703163D01*
X166077686Y-113703166D01*
X166022501Y-113869703D01*
X166022501Y-113869704D01*
X166022500Y-113869704D01*
X166012000Y-113972483D01*
X166012000Y-114772501D01*
X166012001Y-114772519D01*
X166022500Y-114875296D01*
X166022501Y-114875299D01*
X166077685Y-115041831D01*
X166077686Y-115041834D01*
X166169788Y-115191156D01*
X166293844Y-115315212D01*
X166443166Y-115407314D01*
X166609703Y-115462499D01*
X166712491Y-115473000D01*
X167962508Y-115472999D01*
X168065297Y-115462499D01*
X168231834Y-115407314D01*
X168381156Y-115315212D01*
X168505212Y-115191156D01*
X168597314Y-115041834D01*
X168652499Y-114875297D01*
X168663000Y-114772509D01*
X168662999Y-113972492D01*
X168652499Y-113869703D01*
X168597314Y-113703166D01*
X168505212Y-113553844D01*
X168381156Y-113429788D01*
X168381152Y-113429785D01*
X168316956Y-113390188D01*
X168270231Y-113338240D01*
X168259010Y-113269277D01*
X168286853Y-113205195D01*
X168294350Y-113196991D01*
X168401914Y-113089428D01*
X168503732Y-112949288D01*
X168582373Y-112794945D01*
X168635902Y-112630201D01*
X168663000Y-112459111D01*
X168663000Y-112285889D01*
X168635902Y-112114799D01*
X168582373Y-111950055D01*
X168503732Y-111795712D01*
X168401914Y-111655572D01*
X168279428Y-111533086D01*
X168196475Y-111472817D01*
X168153811Y-111417488D01*
X168147832Y-111347874D01*
X168180438Y-111286079D01*
X168196476Y-111272182D01*
X168279428Y-111211914D01*
X168401914Y-111089428D01*
X168503732Y-110949288D01*
X168582373Y-110794945D01*
X168635902Y-110630201D01*
X168663000Y-110459111D01*
X168663000Y-110285889D01*
X168635902Y-110114799D01*
X168582373Y-109950055D01*
X168503732Y-109795712D01*
X168401914Y-109655572D01*
X168279428Y-109533086D01*
X168196475Y-109472817D01*
X168153811Y-109417488D01*
X168147832Y-109347874D01*
X168180438Y-109286079D01*
X168196476Y-109272182D01*
X168279428Y-109211914D01*
X168401914Y-109089428D01*
X168503732Y-108949288D01*
X168582373Y-108794945D01*
X168635902Y-108630201D01*
X168663000Y-108459111D01*
X168663000Y-108285889D01*
X168635902Y-108114799D01*
X168582373Y-107950055D01*
X168503732Y-107795712D01*
X168401914Y-107655572D01*
X168279428Y-107533086D01*
X168196475Y-107472817D01*
X168179297Y-107450540D01*
X168159693Y-107430368D01*
X168158249Y-107423243D01*
X168153811Y-107417488D01*
X168151403Y-107389460D01*
X168145817Y-107361890D01*
X168148454Y-107355116D01*
X168147832Y-107347874D01*
X168160961Y-107322991D01*
X168171166Y-107296780D01*
X168178607Y-107289547D01*
X168180438Y-107286079D01*
X168196476Y-107272182D01*
X168264616Y-107222675D01*
X168330420Y-107199196D01*
X168398474Y-107215021D01*
X168410373Y-107222668D01*
X168535712Y-107313732D01*
X168690055Y-107392373D01*
X168854799Y-107445902D01*
X169025889Y-107473000D01*
X169025890Y-107473000D01*
X169649110Y-107473000D01*
X169649111Y-107473000D01*
X169820201Y-107445902D01*
X169984945Y-107392373D01*
X170139288Y-107313732D01*
X170279428Y-107211914D01*
X170401914Y-107089428D01*
X170503732Y-106949288D01*
X170582373Y-106794945D01*
X170635902Y-106630201D01*
X170663000Y-106459111D01*
X170663000Y-106285889D01*
X170635902Y-106114799D01*
X170582373Y-105950055D01*
X170503732Y-105795712D01*
X170401914Y-105655572D01*
X170279428Y-105533086D01*
X170196475Y-105472817D01*
X170153811Y-105417488D01*
X170147832Y-105347874D01*
X170180438Y-105286079D01*
X170196476Y-105272182D01*
X170279428Y-105211914D01*
X170401914Y-105089428D01*
X170503732Y-104949288D01*
X170582373Y-104794945D01*
X170635902Y-104630201D01*
X170663000Y-104459111D01*
X170663000Y-104285889D01*
X170635902Y-104114799D01*
X170582373Y-103950055D01*
X170503732Y-103795712D01*
X170401914Y-103655572D01*
X170279428Y-103533086D01*
X170139288Y-103431268D01*
X169984945Y-103352627D01*
X169820201Y-103299098D01*
X169820199Y-103299097D01*
X169820198Y-103299097D01*
X169688771Y-103278281D01*
X169649111Y-103272000D01*
X169025889Y-103272000D01*
X168986228Y-103278281D01*
X168854802Y-103299097D01*
X168690052Y-103352628D01*
X168535711Y-103431268D01*
X168410386Y-103522323D01*
X168344579Y-103545803D01*
X168276525Y-103529978D01*
X168264614Y-103522323D01*
X168139288Y-103431268D01*
X167984947Y-103352628D01*
X167984946Y-103352627D01*
X167984945Y-103352627D01*
X167820201Y-103299098D01*
X167820199Y-103299097D01*
X167820198Y-103299097D01*
X167688771Y-103278281D01*
X167649111Y-103272000D01*
X167025889Y-103272000D01*
X166986228Y-103278281D01*
X166854802Y-103299097D01*
X166690052Y-103352628D01*
X166535711Y-103431268D01*
X166455756Y-103489359D01*
X166395572Y-103533086D01*
X166395570Y-103533088D01*
X166395569Y-103533088D01*
X166273088Y-103655569D01*
X166273088Y-103655570D01*
X166273086Y-103655572D01*
X166229359Y-103715756D01*
X166171268Y-103795711D01*
X166092628Y-103950052D01*
X166039097Y-104114802D01*
X166012000Y-104285889D01*
X141613000Y-104285889D01*
X141585902Y-104114799D01*
X141532373Y-103950055D01*
X141453732Y-103795712D01*
X141351914Y-103655572D01*
X141229428Y-103533086D01*
X141089288Y-103431268D01*
X140934945Y-103352627D01*
X140770201Y-103299098D01*
X140770199Y-103299097D01*
X140770198Y-103299097D01*
X140638771Y-103278281D01*
X140599111Y-103272000D01*
X139975889Y-103272000D01*
X139936228Y-103278281D01*
X139804802Y-103299097D01*
X139640052Y-103352628D01*
X139485711Y-103431268D01*
X139360386Y-103522323D01*
X139294579Y-103545803D01*
X139226525Y-103529978D01*
X139214614Y-103522323D01*
X139089288Y-103431268D01*
X138934947Y-103352628D01*
X138934946Y-103352627D01*
X138934945Y-103352627D01*
X138770201Y-103299098D01*
X138770199Y-103299097D01*
X138770198Y-103299097D01*
X138638771Y-103278281D01*
X138599111Y-103272000D01*
X137975889Y-103272000D01*
X137936228Y-103278281D01*
X137804802Y-103299097D01*
X137640052Y-103352628D01*
X137485711Y-103431268D01*
X137405756Y-103489359D01*
X137345572Y-103533086D01*
X137345570Y-103533088D01*
X137345569Y-103533088D01*
X137223088Y-103655569D01*
X137223088Y-103655570D01*
X137223086Y-103655572D01*
X137179359Y-103715756D01*
X137121268Y-103795711D01*
X137042628Y-103950052D01*
X136989097Y-104114802D01*
X136962000Y-104285889D01*
X134788000Y-104285889D01*
X134788000Y-99304635D01*
X151827000Y-99304635D01*
X151827000Y-101400370D01*
X151827001Y-101400376D01*
X151833408Y-101459983D01*
X151883702Y-101594828D01*
X151883706Y-101594835D01*
X151969952Y-101710044D01*
X151969955Y-101710047D01*
X152085164Y-101796293D01*
X152085171Y-101796297D01*
X152220017Y-101846591D01*
X152220016Y-101846591D01*
X152226944Y-101847335D01*
X152279627Y-101853000D01*
X156375372Y-101852999D01*
X156434983Y-101846591D01*
X156569831Y-101796296D01*
X156685046Y-101710046D01*
X156771296Y-101594831D01*
X156821591Y-101459983D01*
X156828000Y-101400373D01*
X156827999Y-99304628D01*
X156821591Y-99245017D01*
X156771296Y-99110169D01*
X156771295Y-99110168D01*
X156771293Y-99110164D01*
X156685047Y-98994955D01*
X156685044Y-98994952D01*
X156569835Y-98908706D01*
X156569828Y-98908702D01*
X156434982Y-98858408D01*
X156434983Y-98858408D01*
X156375383Y-98852001D01*
X156375381Y-98852000D01*
X156375373Y-98852000D01*
X156375364Y-98852000D01*
X152279629Y-98852000D01*
X152279623Y-98852001D01*
X152220016Y-98858408D01*
X152085171Y-98908702D01*
X152085164Y-98908706D01*
X151969955Y-98994952D01*
X151969952Y-98994955D01*
X151883706Y-99110164D01*
X151883702Y-99110171D01*
X151833408Y-99245017D01*
X151827001Y-99304616D01*
X151827001Y-99304623D01*
X151827000Y-99304635D01*
X134788000Y-99304635D01*
X134788000Y-83215889D01*
X136962000Y-83215889D01*
X136962000Y-83389111D01*
X136989098Y-83560201D01*
X137042627Y-83724945D01*
X137121268Y-83879288D01*
X137223086Y-84019428D01*
X137345572Y-84141914D01*
X137345578Y-84141918D01*
X137428523Y-84202183D01*
X137471189Y-84257513D01*
X137477167Y-84327126D01*
X137444561Y-84388921D01*
X137428523Y-84402817D01*
X137345578Y-84463081D01*
X137345569Y-84463088D01*
X137223088Y-84585569D01*
X137223088Y-84585570D01*
X137223086Y-84585572D01*
X137179359Y-84645756D01*
X137121268Y-84725711D01*
X137042628Y-84880052D01*
X136989097Y-85044802D01*
X136962000Y-85215889D01*
X136962000Y-85389111D01*
X136989098Y-85560201D01*
X137042627Y-85724945D01*
X137121268Y-85879288D01*
X137223086Y-86019428D01*
X137345572Y-86141914D01*
X137360385Y-86152676D01*
X137428523Y-86202183D01*
X137471189Y-86257513D01*
X137477167Y-86327126D01*
X137444561Y-86388921D01*
X137428523Y-86402817D01*
X137345578Y-86463081D01*
X137345569Y-86463088D01*
X137223088Y-86585569D01*
X137223088Y-86585570D01*
X137223086Y-86585572D01*
X137179359Y-86645756D01*
X137121268Y-86725711D01*
X137042628Y-86880052D01*
X136989097Y-87044802D01*
X136962000Y-87215889D01*
X136962000Y-87389111D01*
X136989098Y-87560201D01*
X137042627Y-87724945D01*
X137121268Y-87879288D01*
X137223086Y-88019428D01*
X137345572Y-88141914D01*
X137345578Y-88141918D01*
X137428523Y-88202183D01*
X137471189Y-88257513D01*
X137477167Y-88327126D01*
X137444561Y-88388921D01*
X137428523Y-88402817D01*
X137345578Y-88463081D01*
X137345569Y-88463088D01*
X137223088Y-88585569D01*
X137223088Y-88585570D01*
X137223086Y-88585572D01*
X137179359Y-88645756D01*
X137121268Y-88725711D01*
X137042628Y-88880052D01*
X136989097Y-89044802D01*
X136962000Y-89215889D01*
X136962000Y-89389111D01*
X136989098Y-89560201D01*
X137042627Y-89724945D01*
X137121268Y-89879288D01*
X137223086Y-90019428D01*
X137345572Y-90141914D01*
X137345578Y-90141918D01*
X137428523Y-90202183D01*
X137471189Y-90257513D01*
X137477167Y-90327126D01*
X137444561Y-90388921D01*
X137428523Y-90402817D01*
X137345578Y-90463081D01*
X137345569Y-90463088D01*
X137223088Y-90585569D01*
X137223088Y-90585570D01*
X137223086Y-90585572D01*
X137179359Y-90645756D01*
X137121268Y-90725711D01*
X137042628Y-90880052D01*
X136989097Y-91044802D01*
X136962000Y-91215889D01*
X136962000Y-91389111D01*
X136989098Y-91560201D01*
X137042627Y-91724945D01*
X137121268Y-91879288D01*
X137223086Y-92019428D01*
X137223088Y-92019430D01*
X137330627Y-92126969D01*
X137364112Y-92188292D01*
X137359128Y-92257984D01*
X137317256Y-92313917D01*
X137308044Y-92320188D01*
X137243844Y-92359787D01*
X137119789Y-92483842D01*
X137027687Y-92633163D01*
X137027686Y-92633166D01*
X136972501Y-92799703D01*
X136972501Y-92799704D01*
X136972500Y-92799704D01*
X136962000Y-92902483D01*
X136962000Y-93702501D01*
X136962001Y-93702519D01*
X136972500Y-93805296D01*
X136972501Y-93805299D01*
X137027685Y-93971831D01*
X137027686Y-93971834D01*
X137119788Y-94121156D01*
X137243844Y-94245212D01*
X137393166Y-94337314D01*
X137559703Y-94392499D01*
X137662491Y-94403000D01*
X138912508Y-94402999D01*
X139015297Y-94392499D01*
X139181834Y-94337314D01*
X139331156Y-94245212D01*
X139455212Y-94121156D01*
X139547314Y-93971834D01*
X139602499Y-93805297D01*
X139613000Y-93702509D01*
X139612999Y-92902492D01*
X139602499Y-92799703D01*
X139547314Y-92633166D01*
X139455212Y-92483844D01*
X139331156Y-92359788D01*
X139331152Y-92359785D01*
X139266956Y-92320188D01*
X139220231Y-92268240D01*
X139209010Y-92199277D01*
X139236853Y-92135195D01*
X139244350Y-92126991D01*
X139351914Y-92019428D01*
X139362662Y-92004635D01*
X151827000Y-92004635D01*
X151827000Y-94100370D01*
X151827001Y-94100376D01*
X151833408Y-94159983D01*
X151883702Y-94294828D01*
X151883706Y-94294835D01*
X151969952Y-94410044D01*
X151969955Y-94410047D01*
X152085164Y-94496293D01*
X152085171Y-94496297D01*
X152220017Y-94546591D01*
X152220016Y-94546591D01*
X152226944Y-94547335D01*
X152279627Y-94553000D01*
X156375372Y-94552999D01*
X156434983Y-94546591D01*
X156569831Y-94496296D01*
X156685046Y-94410046D01*
X156771296Y-94294831D01*
X156821591Y-94159983D01*
X156828000Y-94100373D01*
X156827999Y-92004628D01*
X156821591Y-91945017D01*
X156771296Y-91810169D01*
X156771295Y-91810168D01*
X156771293Y-91810164D01*
X156685047Y-91694955D01*
X156685044Y-91694952D01*
X156569835Y-91608706D01*
X156569828Y-91608702D01*
X156434982Y-91558408D01*
X156434983Y-91558408D01*
X156375383Y-91552001D01*
X156375381Y-91552000D01*
X156375373Y-91552000D01*
X156375364Y-91552000D01*
X152279629Y-91552000D01*
X152279623Y-91552001D01*
X152220016Y-91558408D01*
X152085171Y-91608702D01*
X152085164Y-91608706D01*
X151969955Y-91694952D01*
X151969952Y-91694955D01*
X151883706Y-91810164D01*
X151883702Y-91810171D01*
X151833408Y-91945017D01*
X151827001Y-92004616D01*
X151827001Y-92004623D01*
X151827000Y-92004635D01*
X139362662Y-92004635D01*
X139453732Y-91879288D01*
X139532373Y-91724945D01*
X139585902Y-91560201D01*
X139613000Y-91389111D01*
X139613000Y-91215889D01*
X139585902Y-91044799D01*
X139532373Y-90880055D01*
X139453732Y-90725712D01*
X139351914Y-90585572D01*
X139229428Y-90463086D01*
X139146475Y-90402817D01*
X139103811Y-90347488D01*
X139097832Y-90277874D01*
X139130438Y-90216079D01*
X139146476Y-90202182D01*
X139229428Y-90141914D01*
X139351914Y-90019428D01*
X139453732Y-89879288D01*
X139532373Y-89724945D01*
X139585902Y-89560201D01*
X139613000Y-89389111D01*
X139613000Y-89215889D01*
X139585902Y-89044799D01*
X139532373Y-88880055D01*
X139453732Y-88725712D01*
X139351914Y-88585572D01*
X139229428Y-88463086D01*
X139146475Y-88402817D01*
X139103811Y-88347488D01*
X139097832Y-88277874D01*
X139130438Y-88216079D01*
X139146476Y-88202182D01*
X139229428Y-88141914D01*
X139351914Y-88019428D01*
X139453732Y-87879288D01*
X139532373Y-87724945D01*
X139585902Y-87560201D01*
X139613000Y-87389111D01*
X139613000Y-87215889D01*
X139585902Y-87044799D01*
X139532373Y-86880055D01*
X139453732Y-86725712D01*
X139351914Y-86585572D01*
X139229428Y-86463086D01*
X139146475Y-86402817D01*
X139129297Y-86380540D01*
X139109693Y-86360368D01*
X139108249Y-86353243D01*
X139103811Y-86347488D01*
X139101403Y-86319460D01*
X139095817Y-86291890D01*
X139098454Y-86285116D01*
X139097832Y-86277874D01*
X139110961Y-86252991D01*
X139121166Y-86226780D01*
X139128607Y-86219547D01*
X139130438Y-86216079D01*
X139146476Y-86202182D01*
X139214616Y-86152675D01*
X139280420Y-86129196D01*
X139348474Y-86145021D01*
X139360373Y-86152668D01*
X139485712Y-86243732D01*
X139640055Y-86322373D01*
X139804799Y-86375902D01*
X139975889Y-86403000D01*
X139975890Y-86403000D01*
X140599110Y-86403000D01*
X140599111Y-86403000D01*
X140770201Y-86375902D01*
X140934945Y-86322373D01*
X141089288Y-86243732D01*
X141229428Y-86141914D01*
X141351914Y-86019428D01*
X141453732Y-85879288D01*
X141532373Y-85724945D01*
X141585902Y-85560201D01*
X141613000Y-85389111D01*
X141613000Y-85215889D01*
X141585902Y-85044799D01*
X141532373Y-84880055D01*
X141453732Y-84725712D01*
X141351914Y-84585572D01*
X141229428Y-84463086D01*
X141146475Y-84402817D01*
X141103811Y-84347488D01*
X141097832Y-84277874D01*
X141130438Y-84216079D01*
X141146476Y-84202182D01*
X141229428Y-84141914D01*
X141351914Y-84019428D01*
X141453732Y-83879288D01*
X141532373Y-83724945D01*
X141585902Y-83560201D01*
X141613000Y-83389111D01*
X141613000Y-83215889D01*
X141611218Y-83204635D01*
X151827000Y-83204635D01*
X151827000Y-85300370D01*
X151827001Y-85300376D01*
X151833408Y-85359983D01*
X151883702Y-85494828D01*
X151883706Y-85494835D01*
X151969952Y-85610044D01*
X151969955Y-85610047D01*
X152085164Y-85696293D01*
X152085171Y-85696297D01*
X152220017Y-85746591D01*
X152220016Y-85746591D01*
X152226944Y-85747335D01*
X152279627Y-85753000D01*
X156375372Y-85752999D01*
X156434983Y-85746591D01*
X156569831Y-85696296D01*
X156685046Y-85610046D01*
X156771296Y-85494831D01*
X156821591Y-85359983D01*
X156828000Y-85300373D01*
X156827999Y-83215889D01*
X166012000Y-83215889D01*
X166012000Y-83389111D01*
X166039098Y-83560201D01*
X166092627Y-83724945D01*
X166171268Y-83879288D01*
X166273086Y-84019428D01*
X166395572Y-84141914D01*
X166395578Y-84141918D01*
X166478523Y-84202183D01*
X166521189Y-84257513D01*
X166527167Y-84327126D01*
X166494561Y-84388921D01*
X166478523Y-84402817D01*
X166395578Y-84463081D01*
X166395569Y-84463088D01*
X166273088Y-84585569D01*
X166273088Y-84585570D01*
X166273086Y-84585572D01*
X166229359Y-84645756D01*
X166171268Y-84725711D01*
X166092628Y-84880052D01*
X166039097Y-85044802D01*
X166012000Y-85215889D01*
X166012000Y-85389111D01*
X166039098Y-85560201D01*
X166092627Y-85724945D01*
X166171268Y-85879288D01*
X166273086Y-86019428D01*
X166395572Y-86141914D01*
X166410385Y-86152676D01*
X166478523Y-86202183D01*
X166521189Y-86257513D01*
X166527167Y-86327126D01*
X166494561Y-86388921D01*
X166478523Y-86402817D01*
X166395578Y-86463081D01*
X166395569Y-86463088D01*
X166273088Y-86585569D01*
X166273088Y-86585570D01*
X166273086Y-86585572D01*
X166229359Y-86645756D01*
X166171268Y-86725711D01*
X166092628Y-86880052D01*
X166039097Y-87044802D01*
X166012000Y-87215889D01*
X166012000Y-87389111D01*
X166039098Y-87560201D01*
X166092627Y-87724945D01*
X166171268Y-87879288D01*
X166273086Y-88019428D01*
X166395572Y-88141914D01*
X166395578Y-88141918D01*
X166478523Y-88202183D01*
X166521189Y-88257513D01*
X166527167Y-88327126D01*
X166494561Y-88388921D01*
X166478523Y-88402817D01*
X166395578Y-88463081D01*
X166395569Y-88463088D01*
X166273088Y-88585569D01*
X166273088Y-88585570D01*
X166273086Y-88585572D01*
X166229359Y-88645756D01*
X166171268Y-88725711D01*
X166092628Y-88880052D01*
X166039097Y-89044802D01*
X166012000Y-89215889D01*
X166012000Y-89389111D01*
X166039098Y-89560201D01*
X166092627Y-89724945D01*
X166171268Y-89879288D01*
X166273086Y-90019428D01*
X166395572Y-90141914D01*
X166395578Y-90141918D01*
X166478523Y-90202183D01*
X166521189Y-90257513D01*
X166527167Y-90327126D01*
X166494561Y-90388921D01*
X166478523Y-90402817D01*
X166395578Y-90463081D01*
X166395569Y-90463088D01*
X166273088Y-90585569D01*
X166273088Y-90585570D01*
X166273086Y-90585572D01*
X166229359Y-90645756D01*
X166171268Y-90725711D01*
X166092628Y-90880052D01*
X166039097Y-91044802D01*
X166012000Y-91215889D01*
X166012000Y-91389111D01*
X166039098Y-91560201D01*
X166092627Y-91724945D01*
X166171268Y-91879288D01*
X166273086Y-92019428D01*
X166273088Y-92019430D01*
X166380627Y-92126969D01*
X166414112Y-92188292D01*
X166409128Y-92257984D01*
X166367256Y-92313917D01*
X166358044Y-92320188D01*
X166293844Y-92359787D01*
X166169789Y-92483842D01*
X166077687Y-92633163D01*
X166077686Y-92633166D01*
X166022501Y-92799703D01*
X166022501Y-92799704D01*
X166022500Y-92799704D01*
X166012000Y-92902483D01*
X166012000Y-93702501D01*
X166012001Y-93702519D01*
X166022500Y-93805296D01*
X166022501Y-93805299D01*
X166077685Y-93971831D01*
X166077686Y-93971834D01*
X166169788Y-94121156D01*
X166293844Y-94245212D01*
X166443166Y-94337314D01*
X166609703Y-94392499D01*
X166712491Y-94403000D01*
X167962508Y-94402999D01*
X168065297Y-94392499D01*
X168231834Y-94337314D01*
X168381156Y-94245212D01*
X168505212Y-94121156D01*
X168597314Y-93971834D01*
X168652499Y-93805297D01*
X168663000Y-93702509D01*
X168662999Y-92902492D01*
X168652499Y-92799703D01*
X168597314Y-92633166D01*
X168505212Y-92483844D01*
X168381156Y-92359788D01*
X168381152Y-92359785D01*
X168316956Y-92320188D01*
X168270231Y-92268240D01*
X168259010Y-92199277D01*
X168286853Y-92135195D01*
X168294350Y-92126991D01*
X168401914Y-92019428D01*
X168503732Y-91879288D01*
X168582373Y-91724945D01*
X168635902Y-91560201D01*
X168663000Y-91389111D01*
X168663000Y-91215889D01*
X168635902Y-91044799D01*
X168582373Y-90880055D01*
X168503732Y-90725712D01*
X168401914Y-90585572D01*
X168279428Y-90463086D01*
X168196475Y-90402817D01*
X168153811Y-90347488D01*
X168147832Y-90277874D01*
X168180438Y-90216079D01*
X168196476Y-90202182D01*
X168279428Y-90141914D01*
X168401914Y-90019428D01*
X168503732Y-89879288D01*
X168582373Y-89724945D01*
X168635902Y-89560201D01*
X168663000Y-89389111D01*
X168663000Y-89215889D01*
X168635902Y-89044799D01*
X168582373Y-88880055D01*
X168503732Y-88725712D01*
X168401914Y-88585572D01*
X168279428Y-88463086D01*
X168196475Y-88402817D01*
X168153811Y-88347488D01*
X168147832Y-88277874D01*
X168180438Y-88216079D01*
X168196476Y-88202182D01*
X168279428Y-88141914D01*
X168401914Y-88019428D01*
X168503732Y-87879288D01*
X168582373Y-87724945D01*
X168635902Y-87560201D01*
X168663000Y-87389111D01*
X168663000Y-87215889D01*
X168635902Y-87044799D01*
X168582373Y-86880055D01*
X168503732Y-86725712D01*
X168401914Y-86585572D01*
X168279428Y-86463086D01*
X168196475Y-86402817D01*
X168179297Y-86380540D01*
X168159693Y-86360368D01*
X168158249Y-86353243D01*
X168153811Y-86347488D01*
X168151403Y-86319460D01*
X168145817Y-86291890D01*
X168148454Y-86285116D01*
X168147832Y-86277874D01*
X168160961Y-86252991D01*
X168171166Y-86226780D01*
X168178607Y-86219547D01*
X168180438Y-86216079D01*
X168196476Y-86202182D01*
X168264616Y-86152675D01*
X168330420Y-86129196D01*
X168398474Y-86145021D01*
X168410373Y-86152668D01*
X168535712Y-86243732D01*
X168690055Y-86322373D01*
X168854799Y-86375902D01*
X169025889Y-86403000D01*
X169025890Y-86403000D01*
X169649110Y-86403000D01*
X169649111Y-86403000D01*
X169820201Y-86375902D01*
X169984945Y-86322373D01*
X170139288Y-86243732D01*
X170279428Y-86141914D01*
X170401914Y-86019428D01*
X170503732Y-85879288D01*
X170582373Y-85724945D01*
X170635902Y-85560201D01*
X170663000Y-85389111D01*
X170663000Y-85215889D01*
X170635902Y-85044799D01*
X170582373Y-84880055D01*
X170503732Y-84725712D01*
X170401914Y-84585572D01*
X170279428Y-84463086D01*
X170196475Y-84402817D01*
X170153811Y-84347488D01*
X170147832Y-84277874D01*
X170180438Y-84216079D01*
X170196476Y-84202182D01*
X170279428Y-84141914D01*
X170401914Y-84019428D01*
X170503732Y-83879288D01*
X170582373Y-83724945D01*
X170635902Y-83560201D01*
X170663000Y-83389111D01*
X170663000Y-83215889D01*
X170635902Y-83044799D01*
X170582373Y-82880055D01*
X170503732Y-82725712D01*
X170401914Y-82585572D01*
X170279428Y-82463086D01*
X170139288Y-82361268D01*
X169984945Y-82282627D01*
X169820201Y-82229098D01*
X169820199Y-82229097D01*
X169820198Y-82229097D01*
X169688771Y-82208281D01*
X169649111Y-82202000D01*
X169025889Y-82202000D01*
X168986228Y-82208281D01*
X168854802Y-82229097D01*
X168690052Y-82282628D01*
X168535711Y-82361268D01*
X168410386Y-82452323D01*
X168344579Y-82475803D01*
X168276525Y-82459978D01*
X168264614Y-82452323D01*
X168139288Y-82361268D01*
X167984947Y-82282628D01*
X167984946Y-82282627D01*
X167984945Y-82282627D01*
X167820201Y-82229098D01*
X167820199Y-82229097D01*
X167820198Y-82229097D01*
X167688771Y-82208281D01*
X167649111Y-82202000D01*
X167025889Y-82202000D01*
X166986228Y-82208281D01*
X166854802Y-82229097D01*
X166690052Y-82282628D01*
X166535711Y-82361268D01*
X166455756Y-82419359D01*
X166395572Y-82463086D01*
X166395570Y-82463088D01*
X166395569Y-82463088D01*
X166273088Y-82585569D01*
X166273088Y-82585570D01*
X166273086Y-82585572D01*
X166229359Y-82645756D01*
X166171268Y-82725711D01*
X166092628Y-82880052D01*
X166039097Y-83044802D01*
X166023225Y-83145016D01*
X166012000Y-83215889D01*
X156827999Y-83215889D01*
X156827999Y-83204628D01*
X156821591Y-83145017D01*
X156784213Y-83044802D01*
X156771297Y-83010171D01*
X156771293Y-83010164D01*
X156685047Y-82894955D01*
X156685044Y-82894952D01*
X156569835Y-82808706D01*
X156569828Y-82808702D01*
X156434982Y-82758408D01*
X156434983Y-82758408D01*
X156375383Y-82752001D01*
X156375381Y-82752000D01*
X156375373Y-82752000D01*
X156375364Y-82752000D01*
X152279629Y-82752000D01*
X152279623Y-82752001D01*
X152220016Y-82758408D01*
X152085171Y-82808702D01*
X152085164Y-82808706D01*
X151969955Y-82894952D01*
X151969952Y-82894955D01*
X151883706Y-83010164D01*
X151883702Y-83010171D01*
X151833408Y-83145017D01*
X151827001Y-83204616D01*
X151827001Y-83204623D01*
X151827000Y-83204635D01*
X141611218Y-83204635D01*
X141585902Y-83044799D01*
X141532373Y-82880055D01*
X141453732Y-82725712D01*
X141351914Y-82585572D01*
X141229428Y-82463086D01*
X141089288Y-82361268D01*
X140934945Y-82282627D01*
X140770201Y-82229098D01*
X140770199Y-82229097D01*
X140770198Y-82229097D01*
X140638771Y-82208281D01*
X140599111Y-82202000D01*
X139975889Y-82202000D01*
X139936228Y-82208281D01*
X139804802Y-82229097D01*
X139640052Y-82282628D01*
X139485711Y-82361268D01*
X139360386Y-82452323D01*
X139294579Y-82475803D01*
X139226525Y-82459978D01*
X139214614Y-82452323D01*
X139089288Y-82361268D01*
X138934947Y-82282628D01*
X138934946Y-82282627D01*
X138934945Y-82282627D01*
X138770201Y-82229098D01*
X138770199Y-82229097D01*
X138770198Y-82229097D01*
X138638771Y-82208281D01*
X138599111Y-82202000D01*
X137975889Y-82202000D01*
X137936228Y-82208281D01*
X137804802Y-82229097D01*
X137640052Y-82282628D01*
X137485711Y-82361268D01*
X137405756Y-82419359D01*
X137345572Y-82463086D01*
X137345570Y-82463088D01*
X137345569Y-82463088D01*
X137223088Y-82585569D01*
X137223088Y-82585570D01*
X137223086Y-82585572D01*
X137179359Y-82645756D01*
X137121268Y-82725711D01*
X137042628Y-82880052D01*
X136989097Y-83044802D01*
X136973225Y-83145016D01*
X136962000Y-83215889D01*
X134788000Y-83215889D01*
X134788000Y-75315206D01*
X134788118Y-75309798D01*
X134795847Y-75132764D01*
X134795847Y-75132759D01*
X136087000Y-75132759D01*
X136087000Y-75492240D01*
X136127246Y-75849435D01*
X136127248Y-75849451D01*
X136207237Y-76199907D01*
X136207241Y-76199919D01*
X136325965Y-76539211D01*
X136481932Y-76863079D01*
X136481934Y-76863082D01*
X136673185Y-77167456D01*
X136897312Y-77448503D01*
X137151497Y-77702688D01*
X137432544Y-77926815D01*
X137736918Y-78118066D01*
X138060792Y-78274036D01*
X138315619Y-78363203D01*
X138400080Y-78392758D01*
X138400092Y-78392762D01*
X138750552Y-78472752D01*
X139107760Y-78512999D01*
X139107761Y-78513000D01*
X139107764Y-78513000D01*
X139467239Y-78513000D01*
X139467239Y-78512999D01*
X139824448Y-78472752D01*
X140174908Y-78392762D01*
X140514208Y-78274036D01*
X140838082Y-78118066D01*
X141142456Y-77926815D01*
X141423503Y-77702688D01*
X141677688Y-77448503D01*
X141901815Y-77167456D01*
X142093066Y-76863082D01*
X142249036Y-76539208D01*
X142367762Y-76199908D01*
X142447752Y-75849448D01*
X142488000Y-75492236D01*
X142488000Y-75132764D01*
X142487999Y-75132759D01*
X165087000Y-75132759D01*
X165087000Y-75492240D01*
X165127246Y-75849435D01*
X165127248Y-75849451D01*
X165207237Y-76199907D01*
X165207241Y-76199919D01*
X165325965Y-76539211D01*
X165481932Y-76863079D01*
X165481934Y-76863082D01*
X165673185Y-77167456D01*
X165897312Y-77448503D01*
X166151497Y-77702688D01*
X166432544Y-77926815D01*
X166736918Y-78118066D01*
X167060792Y-78274036D01*
X167315619Y-78363203D01*
X167400080Y-78392758D01*
X167400092Y-78392762D01*
X167750552Y-78472752D01*
X168107760Y-78512999D01*
X168107761Y-78513000D01*
X168107764Y-78513000D01*
X168467239Y-78513000D01*
X168467239Y-78512999D01*
X168824448Y-78472752D01*
X169174908Y-78392762D01*
X169514208Y-78274036D01*
X169838082Y-78118066D01*
X170142456Y-77926815D01*
X170423503Y-77702688D01*
X170677688Y-77448503D01*
X170901815Y-77167456D01*
X171093066Y-76863082D01*
X171249036Y-76539208D01*
X171367762Y-76199908D01*
X171447752Y-75849448D01*
X171488000Y-75492236D01*
X171488000Y-75132764D01*
X171447752Y-74775552D01*
X171367762Y-74425092D01*
X171249036Y-74085792D01*
X171093066Y-73761918D01*
X170901815Y-73457544D01*
X170677688Y-73176497D01*
X170423503Y-72922312D01*
X170142456Y-72698185D01*
X169838082Y-72506934D01*
X169838079Y-72506932D01*
X169514211Y-72350965D01*
X169174919Y-72232241D01*
X169174907Y-72232237D01*
X168824451Y-72152248D01*
X168824435Y-72152246D01*
X168467240Y-72112000D01*
X168467236Y-72112000D01*
X168107764Y-72112000D01*
X168107759Y-72112000D01*
X167750564Y-72152246D01*
X167750548Y-72152248D01*
X167400092Y-72232237D01*
X167400080Y-72232241D01*
X167060788Y-72350965D01*
X166736920Y-72506932D01*
X166432545Y-72698184D01*
X166151497Y-72922311D01*
X165897311Y-73176497D01*
X165673184Y-73457545D01*
X165481932Y-73761920D01*
X165325965Y-74085788D01*
X165207241Y-74425080D01*
X165207237Y-74425092D01*
X165127248Y-74775548D01*
X165127246Y-74775564D01*
X165087000Y-75132759D01*
X142487999Y-75132759D01*
X142447752Y-74775552D01*
X142367762Y-74425092D01*
X142249036Y-74085792D01*
X142093066Y-73761918D01*
X141901815Y-73457544D01*
X141677688Y-73176497D01*
X141423503Y-72922312D01*
X141142456Y-72698185D01*
X140838082Y-72506934D01*
X140838079Y-72506932D01*
X140514211Y-72350965D01*
X140174919Y-72232241D01*
X140174907Y-72232237D01*
X139824451Y-72152248D01*
X139824435Y-72152246D01*
X139467240Y-72112000D01*
X139467236Y-72112000D01*
X139107764Y-72112000D01*
X139107759Y-72112000D01*
X138750564Y-72152246D01*
X138750548Y-72152248D01*
X138400092Y-72232237D01*
X138400080Y-72232241D01*
X138060788Y-72350965D01*
X137736920Y-72506932D01*
X137432545Y-72698184D01*
X137151497Y-72922311D01*
X136897311Y-73176497D01*
X136673184Y-73457545D01*
X136481932Y-73761920D01*
X136325965Y-74085788D01*
X136207241Y-74425080D01*
X136207237Y-74425092D01*
X136127248Y-74775548D01*
X136127246Y-74775564D01*
X136087000Y-75132759D01*
X134795847Y-75132759D01*
X134804887Y-74925724D01*
X134805825Y-74914996D01*
X134855651Y-74536532D01*
X134857524Y-74525902D01*
X134940148Y-74153214D01*
X134942946Y-74142776D01*
X134960913Y-74085792D01*
X135057730Y-73778727D01*
X135061417Y-73768595D01*
X135207503Y-73415912D01*
X135212061Y-73406138D01*
X135388322Y-73067545D01*
X135393717Y-73058200D01*
X135598825Y-72736244D01*
X135605015Y-72727405D01*
X135837396Y-72424560D01*
X135844334Y-72416291D01*
X136102226Y-72134852D01*
X136109852Y-72127226D01*
X136391291Y-71869334D01*
X136399560Y-71862396D01*
X136702405Y-71630015D01*
X136711244Y-71623825D01*
X137033200Y-71418717D01*
X137042545Y-71413322D01*
X137381138Y-71237061D01*
X137390912Y-71232503D01*
X137743595Y-71086417D01*
X137753727Y-71082730D01*
X138117785Y-70967943D01*
X138128214Y-70965148D01*
X138500902Y-70882524D01*
X138511532Y-70880651D01*
X138889996Y-70830825D01*
X138900724Y-70829887D01*
X139284797Y-70813117D01*
X139290206Y-70813000D01*
X139353392Y-70813000D01*
X169221608Y-70813000D01*
X169284794Y-70813000D01*
X169290202Y-70813117D01*
G37*
%TD.AperFunction*%
%TD*%
M02*
